<svg width="67" height="51" viewBox="0 0 67 51" fill="none" xmlns="http://www.w3.org/2000/svg">
<g clip-path="url(#clip0_237_40)">
<path d="M-0.000244141 0H66.5063V50.1936H-0.000244141V0Z" fill="#74ACDF"/>
<path d="M0 16.7312H66.5065V33.4624H0V16.7312Z" fill="white"/>
<path d="M32.9343 25.2274L35.7775 31.4514C35.7775 31.4514 35.8274 31.5718 35.9072 31.5417C35.987 31.5016 35.9371 31.3811 35.9371 31.3811L33.5728 24.9563M33.503 27.3857C33.4631 28.3293 34.0417 28.8513 33.9718 29.6946C33.892 30.5479 34.3509 31.0197 34.4706 31.351C34.5704 31.6822 34.3509 31.873 34.4407 31.9232C34.5405 31.9734 34.74 31.7124 34.6801 31.2405C34.6103 30.7788 34.2611 30.6382 34.3409 29.6042C34.4207 28.5702 33.9219 28.3293 34.0417 27.3957" fill="#F6B40E"/>
<path d="M32.9343 25.2274L35.7775 31.4514C35.7775 31.4514 35.8274 31.5718 35.9072 31.5417C35.987 31.5016 35.9371 31.3811 35.9371 31.3811L33.5728 24.9563M33.503 27.3857C33.4631 28.3293 34.0417 28.8513 33.9718 29.6946C33.892 30.5479 34.3509 31.0197 34.4706 31.351C34.5704 31.6822 34.3509 31.873 34.4407 31.9232C34.5405 31.9734 34.74 31.7124 34.6801 31.2405C34.6103 30.7788 34.2611 30.6382 34.3409 29.6042C34.4207 28.5702 33.9219 28.3293 34.0417 27.3957" stroke="#85340A" stroke-width="0.109046"/>
<path d="M32.9086 25.0943L33.1684 31.9394C33.1684 31.9394 33.1687 32.0699 33.2539 32.0728C33.3429 32.0665 33.3426 31.936 33.3426 31.936L33.6016 25.0898M32.6132 27.3073C32.2175 28.1638 32.5535 28.8689 32.1683 29.621C31.7701 30.3786 32.0146 30.9913 31.9992 31.3434C31.9654 31.6879 31.6901 31.7796 31.754 31.8606C31.8271 31.9453 32.1107 31.781 32.2348 31.3221C32.3459 30.8686 32.0767 30.6043 32.5437 29.6797C33.0106 28.7552 32.6414 28.3405 33.1071 27.5241" fill="#F6B40E"/>
<path d="M32.9086 25.0943L33.1684 31.9394C33.1684 31.9394 33.1687 32.0699 33.2539 32.0728C33.3429 32.0665 33.3426 31.936 33.3426 31.936L33.6016 25.0898M32.6132 27.3073C32.2175 28.1638 32.5535 28.8689 32.1683 29.621C31.7701 30.3786 32.0146 30.9913 31.9992 31.3434C31.9654 31.6879 31.6901 31.7796 31.754 31.8606C31.8271 31.9453 32.1107 31.781 32.2348 31.3221C32.3459 30.8686 32.0767 30.6043 32.5437 29.6797C33.0106 28.7552 32.6414 28.3405 33.1071 27.5241" stroke="#85340A" stroke-width="0.109046"/>
<path d="M32.936 24.962L30.5729 31.3861C30.5729 31.3861 30.5235 31.5068 30.6011 31.5423C30.6858 31.5707 30.7351 31.45 30.7351 31.45L33.5779 25.2247M31.8215 26.8928C31.1302 27.5317 31.1725 28.3125 30.5306 28.8591C29.8745 29.4057 29.8675 30.0658 29.7193 30.3853C29.5571 30.6905 29.2679 30.6692 29.2961 30.7686C29.3314 30.8751 29.6559 30.8325 29.9451 30.4562C30.2202 30.08 30.072 29.7322 30.8551 29.0578C31.6381 28.3835 31.4546 27.8582 32.1953 27.2832" fill="#F6B40E"/>
<path d="M32.936 24.962L30.5729 31.3861C30.5729 31.3861 30.5235 31.5068 30.6011 31.5423C30.6858 31.5707 30.7351 31.45 30.7351 31.45L33.5779 25.2247M31.8215 26.8928C31.1302 27.5317 31.1725 28.3125 30.5306 28.8591C29.8745 29.4057 29.8675 30.0658 29.7193 30.3853C29.5571 30.6905 29.2679 30.6692 29.2961 30.7686C29.3314 30.8751 29.6559 30.8325 29.9451 30.4562C30.2202 30.08 30.072 29.7322 30.8551 29.0578C31.6381 28.3835 31.4546 27.8582 32.1953 27.2832" stroke="#85340A" stroke-width="0.109046"/>
<path d="M33.0116 24.8497L28.3854 29.8748C28.3854 29.8748 28.2939 29.9672 28.3521 30.0299C28.4195 30.0887 28.511 29.9963 28.511 29.9963L33.5048 25.3395M31.2477 26.2043C30.3661 26.5283 30.1082 27.266 29.3073 27.5238C28.4933 27.7761 28.2358 28.3833 27.9774 28.6214C27.7115 28.8409 27.4524 28.7098 27.4406 28.8125C27.4327 28.9245 27.7487 29.0101 28.159 28.7739C28.5562 28.5322 28.5516 28.1538 29.5315 27.8324C30.5114 27.5109 30.5417 26.9549 31.4446 26.709" fill="#F6B40E"/>
<path d="M33.0116 24.8497L28.3854 29.8748C28.3854 29.8748 28.2939 29.9672 28.3521 30.0299C28.4195 30.0887 28.511 29.9963 28.511 29.9963L33.5048 25.3395M31.2477 26.2043C30.3661 26.5283 30.1082 27.266 29.3073 27.5238C28.4933 27.7761 28.2358 28.3833 27.9774 28.6214C27.7115 28.8409 27.4524 28.7098 27.4406 28.8125C27.4327 28.9245 27.7487 29.0101 28.159 28.7739C28.5562 28.5322 28.5516 28.1538 29.5315 27.8324C30.5114 27.5109 30.5417 26.9549 31.4446 26.709" stroke="#85340A" stroke-width="0.109046"/>
<path d="M33.6826 27.5464C33.7325 28.4499 34.2412 28.8514 34.1415 29.6847C34.3609 29.0321 33.8322 28.5202 33.8621 27.5565M33.094 25.1672L35.0393 29.4437L33.4132 25.0367" fill="#85340A"/>
<path d="M32.718 27.5248C32.4205 28.3787 32.7379 28.9456 32.3288 29.677C32.7797 29.1586 32.486 28.482 32.8801 27.6032M33.079 25.1L33.25 29.8001L33.4236 25.1024" fill="#85340A"/>
<path d="M31.8355 27.134C31.2359 27.8084 31.3135 28.4543 30.6575 28.9725C31.2712 28.6673 31.2571 27.929 31.9555 27.2689M33.0912 25.0329L31.4617 29.441L33.4086 25.1677" fill="#85340A"/>
<path d="M31.1689 26.4331C30.3585 26.8252 30.1845 27.4519 29.3814 27.678C30.0644 27.6323 30.3321 26.9448 31.2284 26.6038M33.128 24.9754L29.9462 28.4205L33.37 25.2222" fill="#85340A"/>
<path d="M33.1237 24.7758L26.9386 27.6368C26.9386 27.6368 26.8189 27.687 26.8488 27.7673C26.8887 27.8476 27.0084 27.7974 27.0084 27.7974L33.3931 25.4183M30.9789 25.348C30.0411 25.3078 29.5224 25.8901 28.6844 25.8198C27.8364 25.7395 27.3676 26.2013 27.0384 26.3217C26.7092 26.4221 26.5196 26.2013 26.4697 26.2916C26.4199 26.392 26.6792 26.5928 27.1481 26.5325C27.607 26.4623 27.7467 26.1109 28.7742 26.1912C29.8017 26.2715 30.0411 25.7696 30.9689 25.8901" fill="#F6B40E"/>
<path d="M33.1237 24.7758L26.9386 27.6368C26.9386 27.6368 26.8189 27.687 26.8488 27.7673C26.8887 27.8476 27.0084 27.7974 27.0084 27.7974L33.3931 25.4183M30.9789 25.348C30.0411 25.3078 29.5224 25.8901 28.6844 25.8198C27.8364 25.7395 27.3676 26.2013 27.0384 26.3217C26.7092 26.4221 26.5196 26.2013 26.4697 26.2916C26.4199 26.392 26.6792 26.5928 27.1481 26.5325C27.607 26.4623 27.7467 26.1109 28.7742 26.1912C29.8017 26.2715 30.0411 25.7696 30.9689 25.8901" stroke="#85340A" stroke-width="0.109046"/>
<path d="M33.2558 24.7503L26.4535 25.0117C26.4535 25.0117 26.3238 25.012 26.3209 25.0977C26.3272 25.1872 26.4569 25.187 26.4569 25.187L33.2603 25.4476M31.0566 24.4529C30.2055 24.0547 29.5048 24.3929 28.7574 24.0053C28.0045 23.6045 27.3957 23.8506 27.0457 23.8351C26.7034 23.8011 26.6123 23.5241 26.5319 23.5883C26.4476 23.6619 26.6109 23.9472 27.067 24.0722C27.5176 24.1839 27.7803 23.9131 28.6991 24.383C29.6178 24.8529 30.0299 24.4814 30.8412 24.9499" fill="#F6B40E"/>
<path d="M33.2558 24.7503L26.4535 25.0117C26.4535 25.0117 26.3238 25.012 26.3209 25.0977C26.3272 25.1872 26.4569 25.187 26.4569 25.187L33.2603 25.4476M31.0566 24.4529C30.2055 24.0547 29.5048 24.3929 28.7574 24.0053C28.0045 23.6045 27.3957 23.8506 27.0457 23.8351C26.7034 23.8011 26.6123 23.5241 26.5319 23.5883C26.4476 23.6619 26.6109 23.9472 27.067 24.0722C27.5176 24.1839 27.7803 23.9131 28.6991 24.383C29.6178 24.8529 30.0299 24.4814 30.8412 24.9499" stroke="#85340A" stroke-width="0.109046"/>
<path d="M33.3872 24.7776L27.0032 22.3996C27.0032 22.3996 26.8833 22.3499 26.848 22.428C26.8198 22.5132 26.9397 22.5629 26.9397 22.5629L33.1262 25.4235M31.4685 23.656C30.8336 22.9604 30.0576 23.003 29.5145 22.357C28.9713 21.6969 28.3153 21.6898 27.9979 21.5407C27.6945 21.3774 27.7157 21.0864 27.6169 21.1148C27.5111 21.1503 27.5534 21.4768 27.9273 21.7678C28.3012 22.0447 28.6468 21.8956 29.317 22.6835C29.9871 23.4715 30.5091 23.2869 31.0805 24.0322" fill="#F6B40E"/>
<path d="M33.3872 24.7776L27.0032 22.3996C27.0032 22.3996 26.8833 22.3499 26.848 22.428C26.8198 22.5132 26.9397 22.5629 26.9397 22.5629L33.1262 25.4235M31.4685 23.656C30.8336 22.9604 30.0576 23.003 29.5145 22.357C28.9713 21.6969 28.3153 21.6898 27.9979 21.5407C27.6945 21.3774 27.7157 21.0864 27.6169 21.1148C27.5111 21.1503 27.5534 21.4768 27.9273 21.7678C28.3012 22.0447 28.6468 21.8956 29.317 22.6835C29.9871 23.4715 30.5091 23.2869 31.0805 24.0322" stroke="#85340A" stroke-width="0.109046"/>
<path d="M33.4985 24.8534L28.5048 20.1981C28.5048 20.1981 28.4129 20.106 28.3506 20.1645C28.2922 20.2324 28.3841 20.3245 28.3841 20.3245L33.0117 25.3497M32.1523 23.0784C31.8304 22.1912 31.0973 21.9317 30.8411 21.1258C30.5903 20.3067 29.9869 20.0475 29.7504 19.7876C29.5322 19.5199 29.6624 19.2592 29.5604 19.2474C29.4492 19.2394 29.3641 19.5574 29.5988 19.9703C29.8389 20.37 30.215 20.3654 30.5345 21.3514C30.8539 22.3374 31.4064 22.3679 31.6508 23.2765" fill="#F6B40E"/>
<path d="M33.4985 24.8534L28.5048 20.1981C28.5048 20.1981 28.4129 20.106 28.3506 20.1645C28.2922 20.2324 28.3841 20.3245 28.3841 20.3245L33.0117 25.3497M32.1523 23.0784C31.8304 22.1912 31.0973 21.9317 30.8411 21.1258C30.5903 20.3067 29.9869 20.0475 29.7504 19.7876C29.5322 19.5199 29.6624 19.2592 29.5604 19.2474C29.4492 19.2394 29.3641 19.5574 29.5988 19.9703C29.8389 20.37 30.215 20.3654 30.5345 21.3514C30.8539 22.3374 31.4064 22.3679 31.6508 23.2765" stroke="#85340A" stroke-width="0.109046"/>
<path d="M30.819 25.5287C29.9212 25.5789 29.5221 26.0908 28.6941 25.9905C29.3425 26.2113 29.8513 25.6793 30.809 25.7094M33.1833 24.9364L28.9335 26.8939L33.313 25.2576" fill="#85340A"/>
<path d="M30.8405 24.5585C29.9919 24.2591 29.4285 24.5784 28.7017 24.1668C29.2168 24.6206 29.8892 24.325 30.7625 24.7216M33.2501 24.9217L28.5793 25.0937L33.2477 25.2685" fill="#85340A"/>
<path d="M31.2287 23.6698C30.5586 23.0665 29.9167 23.1445 29.4017 22.4844C29.7051 23.102 30.4387 23.0878 31.0947 23.7905M33.3167 24.9334L28.9362 23.2936L33.1827 25.2528" fill="#85340A"/>
<path d="M31.9256 22.999C31.536 22.1835 30.9132 22.0084 30.6885 21.2002C30.7339 21.8876 31.4171 22.157 31.7559 23.0589M33.3742 24.9704L29.9506 21.7686L33.1289 25.2139" fill="#85340A"/>
<path d="M33.5728 24.9663L30.7296 18.7423C30.7296 18.7423 30.6797 18.6218 30.5999 18.6519C30.5201 18.6921 30.57 18.8126 30.57 18.8126L32.9343 25.2373M33.0041 22.808C33.044 21.8643 32.4654 21.3423 32.5352 20.4991C32.6151 19.6458 32.1562 19.174 32.0365 18.8427C31.9367 18.5114 32.1562 18.3207 32.0664 18.2705C31.9666 18.2203 31.7671 18.4813 31.827 18.9531C31.8968 19.4149 32.2459 19.5554 32.1661 20.5894C32.0863 21.6234 32.5851 21.8643 32.4654 22.7979" fill="#F6B40E"/>
<path d="M33.5728 24.9663L30.7296 18.7423C30.7296 18.7423 30.6797 18.6218 30.5999 18.6519C30.5201 18.6921 30.57 18.8126 30.57 18.8126L32.9343 25.2373M33.0041 22.808C33.044 21.8643 32.4654 21.3423 32.5352 20.4991C32.6151 19.6458 32.1562 19.174 32.0365 18.8427C31.9367 18.5114 32.1562 18.3207 32.0664 18.2705C31.9666 18.2203 31.7671 18.4813 31.827 18.9531C31.8968 19.4149 32.2459 19.5554 32.1661 20.5894C32.0863 21.6234 32.5851 21.8643 32.4654 22.7979" stroke="#85340A" stroke-width="0.109046"/>
<path d="M33.5979 25.0996L33.3382 18.2545C33.3382 18.2545 33.3379 18.1239 33.2527 18.121C33.1637 18.1274 33.164 18.2579 33.164 18.2579L32.905 25.1041M33.8934 22.8866C34.2891 22.0301 33.9531 21.325 34.3383 20.5728C34.7365 19.8152 34.492 19.2026 34.5074 18.8505C34.5412 18.506 34.8165 18.4143 34.7526 18.3333C34.6795 18.2485 34.3959 18.4128 34.2718 18.8718C34.1607 19.3253 34.4298 19.5896 33.9629 20.5142C33.4959 21.4387 33.8652 21.8534 33.3995 22.6698" fill="#F6B40E"/>
<path d="M33.5979 25.0996L33.3382 18.2545C33.3382 18.2545 33.3379 18.1239 33.2527 18.121C33.1637 18.1274 33.164 18.2579 33.164 18.2579L32.905 25.1041M33.8934 22.8866C34.2891 22.0301 33.9531 21.325 34.3383 20.5728C34.7365 19.8152 34.492 19.2026 34.5074 18.8505C34.5412 18.506 34.8165 18.4143 34.7526 18.3333C34.6795 18.2485 34.3959 18.4128 34.2718 18.8718C34.1607 19.3253 34.4298 19.5896 33.9629 20.5142C33.4959 21.4387 33.8652 21.8534 33.3995 22.6698" stroke="#85340A" stroke-width="0.109046"/>
<path d="M33.5706 25.2318L35.9337 18.8077C35.9337 18.8077 35.9831 18.6871 35.9055 18.6516C35.8208 18.6232 35.7715 18.7439 35.7715 18.7439L32.9287 24.9692M34.6851 23.3011C35.3764 22.6622 35.3341 21.8814 35.976 21.3348C36.6321 20.7882 36.6391 20.1281 36.7872 19.8086C36.9495 19.5034 37.2387 19.5247 37.2105 19.4253C37.1752 19.3188 36.8507 19.3614 36.5615 19.7376C36.2864 20.1139 36.4345 20.4617 35.6515 21.136C34.8685 21.8104 35.0519 22.3357 34.3113 22.9106" fill="#F6B40E"/>
<path d="M33.5706 25.2318L35.9337 18.8077C35.9337 18.8077 35.9831 18.6871 35.9055 18.6516C35.8208 18.6232 35.7715 18.7439 35.7715 18.7439L32.9287 24.9692M34.6851 23.3011C35.3764 22.6622 35.3341 21.8814 35.976 21.3348C36.6321 20.7882 36.6391 20.1281 36.7872 19.8086C36.9495 19.5034 37.2387 19.5247 37.2105 19.4253C37.1752 19.3188 36.8507 19.3614 36.5615 19.7376C36.2864 20.1139 36.4345 20.4617 35.6515 21.136C34.8685 21.8104 35.0519 22.3357 34.3113 22.9106" stroke="#85340A" stroke-width="0.109046"/>
<path d="M33.4954 25.3437L38.1217 20.3187C38.1217 20.3187 38.2132 20.2262 38.155 20.1635C38.0876 20.1047 37.9961 20.1972 37.9961 20.1972L33.0023 24.8539M35.2594 23.9891C36.141 23.6651 36.3989 22.9274 37.1998 22.6696C38.0137 22.4173 38.2713 21.8101 38.5296 21.572C38.7956 21.3525 39.0547 21.4836 39.0664 21.3809C39.0743 21.2689 38.7584 21.1833 38.3481 21.4195C37.9508 21.6612 37.9554 22.0396 36.9756 22.3611C35.9957 22.6826 35.9654 23.2385 35.0625 23.4845" fill="#F6B40E"/>
<path d="M33.4954 25.3437L38.1217 20.3187C38.1217 20.3187 38.2132 20.2262 38.155 20.1635C38.0876 20.1047 37.9961 20.1972 37.9961 20.1972L33.0023 24.8539M35.2594 23.9891C36.141 23.6651 36.3989 22.9274 37.1998 22.6696C38.0137 22.4173 38.2713 21.8101 38.5296 21.572C38.7956 21.3525 39.0547 21.4836 39.0664 21.3809C39.0743 21.2689 38.7584 21.1833 38.3481 21.4195C37.9508 21.6612 37.9554 22.0396 36.9756 22.3611C35.9957 22.6826 35.9654 23.2385 35.0625 23.4845" stroke="#85340A" stroke-width="0.109046"/>
<path d="M32.8243 22.6477C32.7744 21.7442 32.2656 21.3427 32.3654 20.5095C32.1459 21.162 32.6746 21.6739 32.6447 22.6377M33.4128 25.0269L31.4675 20.7504L33.0936 25.1574" fill="#85340A"/>
<path d="M33.7888 22.669C34.0863 21.815 33.769 21.2481 34.178 20.5168C33.7271 21.0351 34.0209 21.7117 33.6267 22.5905M33.4278 25.0937L33.2569 20.3936L33.0832 25.0913" fill="#85340A"/>
<path d="M34.6713 23.0597C35.2709 22.3853 35.1933 21.7394 35.8493 21.2212C35.2356 21.5264 35.2497 22.2647 34.5514 22.9248M33.4157 25.1608L35.0452 20.7527L33.0982 25.026" fill="#85340A"/>
<path d="M35.3379 23.7606C36.1484 23.3685 36.3223 22.7419 37.1255 22.5157C36.4424 22.5614 36.1747 23.2489 35.2784 23.5899M33.3788 25.2183L36.5607 21.7732L33.1369 24.9715" fill="#85340A"/>
<path d="M33.3831 25.4179L39.5682 22.5568C39.5682 22.5568 39.6879 22.5066 39.658 22.4263C39.6181 22.346 39.4984 22.3962 39.4984 22.3962L33.1138 24.7754M35.528 24.8456C36.4657 24.8858 36.9844 24.3036 37.8224 24.3738C38.6704 24.4541 39.1393 23.9924 39.4685 23.8719C39.7977 23.7715 39.9872 23.9924 40.0371 23.902C40.087 23.8016 39.8276 23.6008 39.3587 23.6611C38.8998 23.7313 38.7602 24.0827 37.7326 24.0024C36.7051 23.9221 36.4657 24.424 35.5379 24.3036" fill="#F6B40E"/>
<path d="M33.3831 25.4179L39.5682 22.5568C39.5682 22.5568 39.6879 22.5066 39.658 22.4263C39.6181 22.346 39.4984 22.3962 39.4984 22.3962L33.1138 24.7754M35.528 24.8456C36.4657 24.8858 36.9844 24.3036 37.8224 24.3738C38.6704 24.4541 39.1393 23.9924 39.4685 23.8719C39.7977 23.7715 39.9872 23.9924 40.0371 23.902C40.087 23.8016 39.8276 23.6008 39.3587 23.6611C38.8998 23.7313 38.7602 24.0827 37.7326 24.0024C36.7051 23.9221 36.4657 24.424 35.5379 24.3036" stroke="#85340A" stroke-width="0.109046"/>
<path d="M33.251 25.4438L40.0534 25.1824C40.0534 25.1824 40.1831 25.1821 40.1859 25.0964C40.1796 25.0069 40.0499 25.0071 40.0499 25.0071L33.2465 24.7465M35.4502 25.7411C36.3013 26.1394 37.002 25.8012 37.7495 26.1888C38.5023 26.5896 39.1111 26.3435 39.4611 26.359C39.8034 26.393 39.8945 26.67 39.975 26.6058C40.0592 26.5322 39.896 26.2469 39.4399 26.1219C38.9892 26.0101 38.7265 26.281 37.8078 25.8111C36.889 25.3412 36.4769 25.7127 35.6656 25.2442" fill="#F6B40E"/>
<path d="M33.251 25.4438L40.0534 25.1824C40.0534 25.1824 40.1831 25.1821 40.1859 25.0964C40.1796 25.0069 40.0499 25.0071 40.0499 25.0071L33.2465 24.7465M35.4502 25.7411C36.3013 26.1394 37.002 25.8012 37.7495 26.1888C38.5023 26.5896 39.1111 26.3435 39.4611 26.359C39.8034 26.393 39.8945 26.67 39.975 26.6058C40.0592 26.5322 39.896 26.2469 39.4399 26.1219C38.9892 26.0101 38.7265 26.281 37.8078 25.8111C36.889 25.3412 36.4769 25.7127 35.6656 25.2442" stroke="#85340A" stroke-width="0.109046"/>
<path d="M33.1194 25.4167L39.5034 27.7947C39.5034 27.7947 39.6233 27.8444 39.6586 27.7663C39.6868 27.6811 39.5668 27.6314 39.5668 27.6314L33.3804 24.7707M35.0381 26.5382C35.673 27.2339 36.4489 27.1913 36.9921 27.8373C37.5353 28.4974 38.1913 28.5045 38.5087 28.6536C38.8121 28.8168 38.7909 29.1079 38.8897 29.0795C38.9955 29.044 38.9531 28.7175 38.5793 28.4264C38.2054 28.1496 37.8598 28.2987 37.1896 27.5107C36.5195 26.7228 35.9975 26.9074 35.4261 26.162" fill="#F6B40E"/>
<path d="M33.1194 25.4167L39.5034 27.7947C39.5034 27.7947 39.6233 27.8444 39.6586 27.7663C39.6868 27.6811 39.5668 27.6314 39.5668 27.6314L33.3804 24.7707M35.0381 26.5382C35.673 27.2339 36.4489 27.1913 36.9921 27.8373C37.5353 28.4974 38.1913 28.5045 38.5087 28.6536C38.8121 28.8168 38.7909 29.1079 38.8897 29.0795C38.9955 29.044 38.9531 28.7175 38.5793 28.4264C38.2054 28.1496 37.8598 28.2987 37.1896 27.5107C36.5195 26.7228 35.9975 26.9074 35.4261 26.162" stroke="#85340A" stroke-width="0.109046"/>
<path d="M33.0081 25.3404L38.0018 29.9958C38.0018 29.9958 38.0937 30.0879 38.156 30.0293C38.2144 29.9615 38.1225 29.8694 38.1225 29.8694L33.4949 24.8442M34.3542 27.1155C34.6762 28.0027 35.4093 28.2621 35.6655 29.0681C35.9163 29.8872 36.5196 30.1463 36.7562 30.4063C36.9744 30.6739 36.8441 30.9347 36.9462 30.9465C37.0574 30.9544 37.1425 30.6365 36.9078 30.2236C36.6677 29.8239 36.2916 29.8285 35.9721 28.8425C35.6527 27.8565 35.1002 27.8259 34.8558 26.9173" fill="#F6B40E"/>
<path d="M33.0081 25.3404L38.0018 29.9958C38.0018 29.9958 38.0937 30.0879 38.156 30.0293C38.2144 29.9615 38.1225 29.8694 38.1225 29.8694L33.4949 24.8442M34.3542 27.1155C34.6762 28.0027 35.4093 28.2621 35.6655 29.0681C35.9163 29.8872 36.5196 30.1463 36.7562 30.4063C36.9744 30.6739 36.8441 30.9347 36.9462 30.9465C37.0574 30.9544 37.1425 30.6365 36.9078 30.2236C36.6677 29.8239 36.2916 29.8285 35.9721 28.8425C35.6527 27.8565 35.1002 27.8259 34.8558 26.9173" stroke="#85340A" stroke-width="0.109046"/>
<path d="M35.6876 24.665C36.5854 24.6148 36.9845 24.1028 37.8125 24.2032C37.164 23.9824 36.6553 24.5144 35.6976 24.4843M33.3233 25.2573L37.5731 23.2997L33.1936 24.9361" fill="#85340A"/>
<path d="M35.6666 25.6352C36.5152 25.9346 37.0785 25.6152 37.8053 26.0269C37.2903 25.5731 36.6179 25.8687 35.7445 25.4721M33.257 25.2719L37.9277 25.0999L33.2594 24.9252" fill="#85340A"/>
<path d="M35.2779 26.5238C35.948 27.1272 36.5899 27.0491 37.1049 27.7092C36.8015 27.0917 36.0679 27.1059 35.4119 26.4031M33.1898 25.2603L37.5704 26.9L33.3239 24.9408" fill="#85340A"/>
<path d="M34.5814 27.1947C34.9711 28.0102 35.5939 28.1853 35.8186 28.9935C35.7732 28.3061 35.09 28.0367 34.7512 27.1348M33.1329 25.2233L36.5564 28.4251L33.3782 24.9798" fill="#85340A"/>
<path d="M33.2533 27.8889C34.7857 27.8889 36.0279 26.6389 36.0279 25.0969C36.0279 23.5549 34.7857 22.3049 33.2533 22.3049C31.721 22.3049 30.4788 23.5549 30.4788 25.0969C30.4788 26.6389 31.721 27.8889 33.2533 27.8889Z" fill="#F6B40E" stroke="#85340A" stroke-width="0.144568"/>
<path d="M34.1886 24.501C34.0119 24.501 33.8249 24.5846 33.7209 24.7519C33.9288 24.9506 34.4068 24.9611 34.7289 24.731C34.6609 24.6583 34.5787 24.6004 34.4876 24.5608C34.3965 24.5213 34.2982 24.5009 34.199 24.501H34.1886ZM34.1886 24.5428C34.3756 24.5428 34.5523 24.6265 34.5731 24.7101C34.3652 24.9506 34.0223 24.9193 33.8041 24.7519C33.908 24.6055 34.0535 24.5428 34.199 24.5428H34.1886Z" fill="#843511"/>
<path d="M34.2301 24.3651C33.9496 24.3651 33.8872 24.4278 33.7625 24.5429C33.6378 24.6474 33.5651 24.6265 33.5547 24.6474C33.5235 24.6683 33.5547 24.7311 33.5859 24.7102C33.6378 24.6893 33.7209 24.6474 33.8456 24.5429C33.9703 24.4383 34.1054 24.4383 34.2301 24.4383C34.6146 24.4383 34.8225 24.752 34.864 24.7311C34.916 24.7102 34.6562 24.3651 34.2301 24.3651Z" fill="#85340A"/>
<path d="M34.9993 24.5007C34.5109 24.072 33.8874 23.9988 33.5444 24.3229C33.4655 24.4275 33.4121 24.5493 33.3886 24.6785C33.347 24.9294 33.4197 25.1909 33.6068 25.4627L33.5237 25.5046C33.3574 25.1804 33.295 24.8458 33.3574 24.5216L33.4197 24.2811C33.8874 23.8942 34.5316 23.8628 34.9993 24.4902V24.5007Z" fill="#85340A"/>
<path d="M34.1874 24.8957C34.2902 24.8957 34.3734 24.8119 34.3734 24.7086C34.3734 24.6052 34.2902 24.5214 34.1874 24.5214C34.0847 24.5214 34.0015 24.6052 34.0015 24.7086C34.0015 24.8119 34.0847 24.8957 34.1874 24.8957Z" fill="#85340A"/>
<path d="M34.7395 24.8354C34.3758 25.1177 34.0121 25.0968 33.8043 24.9713C33.5964 24.8354 33.5964 24.7936 33.638 24.7936C33.6796 24.7936 33.7211 24.8354 33.8874 24.9295C34.064 25.0132 34.3134 25.0132 34.7395 24.8354V24.8354Z" fill="#85340A"/>
<path d="M32.8378 25.4839C32.809 25.4908 32.7821 25.5044 32.7595 25.5238C32.737 25.5432 32.7193 25.5676 32.708 25.5952C32.6966 25.6228 32.692 25.6527 32.6944 25.6825C32.6968 25.7122 32.7063 25.741 32.7219 25.7663C32.7376 25.7917 32.759 25.813 32.7844 25.8284C32.8098 25.8438 32.8385 25.8528 32.8681 25.8549C32.8977 25.8569 32.9274 25.8518 32.9546 25.84C32.9819 25.8283 33.006 25.8101 33.0249 25.7872C33.0934 25.8299 33.1729 25.8517 33.2535 25.8499H33.2743C33.3366 25.8499 33.4406 25.8394 33.5133 25.7872C33.5445 25.8394 33.6068 25.8604 33.6692 25.8604C33.7188 25.8645 33.768 25.8487 33.806 25.8163C33.844 25.784 33.8677 25.7377 33.8718 25.6878C33.8759 25.6379 33.8602 25.5884 33.828 25.5501C33.7959 25.5119 33.75 25.4881 33.7003 25.4839C33.7523 25.5048 33.7835 25.5466 33.7835 25.6094C33.7835 25.6427 33.7703 25.6746 33.747 25.6981C33.7236 25.7216 33.6919 25.7349 33.6588 25.7349C33.6257 25.7349 33.594 25.7216 33.5706 25.6981C33.5472 25.6746 33.5341 25.6427 33.5341 25.6094C33.5095 25.661 33.4713 25.7049 33.4236 25.7362C33.376 25.7675 33.3208 25.7852 33.2639 25.7872C33.2088 25.7833 33.1558 25.7648 33.1101 25.7336C33.0645 25.7024 33.0279 25.6595 33.0041 25.6094C33.0041 25.6826 32.9418 25.7349 32.869 25.7349C32.8067 25.7349 32.7443 25.6721 32.7443 25.6094C32.7443 25.5466 32.7755 25.5048 32.8274 25.4839H32.8378ZM33.0457 26.0486C32.8274 26.0486 32.7339 26.2577 32.5469 26.3727C32.6508 26.3309 32.7339 26.2473 32.8898 26.1636C33.0353 26.0799 33.16 26.1845 33.2535 26.1845C33.3366 26.1845 33.4613 26.0799 33.6172 26.1636C33.7627 26.2473 33.8562 26.3309 33.9601 26.3727C33.7627 26.2473 33.6796 26.059 33.4613 26.059C33.4198 26.059 33.3366 26.0799 33.2535 26.1218L33.0457 26.0486Z" fill="#85340A"/>
<path d="M32.9624 26.3099C32.8793 26.3099 32.7754 26.3308 32.6091 26.3727C32.9936 26.289 33.0768 26.4249 33.2534 26.4249C33.4197 26.4249 33.5132 26.289 33.8873 26.3727C33.4716 26.2472 33.3781 26.3308 33.2534 26.3308C33.1703 26.3308 33.1079 26.2995 32.9624 26.3099Z" fill="#85340A"/>
<path d="M32.63 26.3726H32.5469C32.9937 26.4249 32.7859 26.6863 33.2535 26.6863C33.7211 26.6863 33.5133 26.4249 33.9601 26.3726C33.4925 26.3308 33.638 26.6131 33.2535 26.6131C32.8898 26.6131 33.0041 26.3726 32.63 26.3726Z" fill="#85340A"/>
<path d="M33.6376 27.0733C33.6376 26.9707 33.5971 26.8723 33.525 26.7997C33.4529 26.7272 33.3551 26.6864 33.2531 26.6864C33.1512 26.6864 33.0534 26.7272 32.9813 26.7997C32.9092 26.8723 32.8687 26.9707 32.8687 27.0733C32.889 26.986 32.938 26.9082 33.0078 26.8525C33.0776 26.7968 33.1641 26.7665 33.2531 26.7665C33.3422 26.7665 33.4287 26.7968 33.4985 26.8525C33.5683 26.9082 33.6173 26.986 33.6376 27.0733Z" fill="#85340A"/>
<path d="M31.5283 24.5007C32.0167 24.072 32.6402 23.9988 32.9832 24.3229C33.0621 24.4275 33.1155 24.5493 33.139 24.6785C33.1806 24.9294 33.1079 25.1909 32.9208 25.4627L33.0039 25.5046C33.1702 25.1804 33.2326 24.8458 33.1702 24.5216L33.1079 24.2811C32.6402 23.8942 31.9959 23.8628 31.5283 24.4902V24.5007Z" fill="#85340A"/>
<path d="M32.2975 24.3651C32.578 24.3651 32.6404 24.4278 32.7651 24.5429C32.8898 24.6474 32.9625 24.6265 32.9729 24.6474C33.0041 24.6683 32.9729 24.7311 32.9417 24.7102C32.8898 24.6893 32.8066 24.6474 32.6819 24.5429C32.5572 24.4383 32.4222 24.4383 32.2975 24.4383C31.913 24.4383 31.7051 24.752 31.6636 24.7311C31.6116 24.7102 31.8714 24.3651 32.2975 24.3651Z" fill="#85340A"/>
<path d="M32.2765 24.501C32.0998 24.501 31.9128 24.5846 31.8088 24.7519C32.0167 24.9506 32.4947 24.9611 32.8168 24.731C32.7488 24.6583 32.6666 24.6004 32.5755 24.5608C32.4843 24.5213 32.3861 24.5009 32.2869 24.501H32.2765ZM32.2765 24.5428C32.4635 24.5428 32.6402 24.6265 32.661 24.7101C32.4531 24.9506 32.1102 24.9193 31.892 24.7519C31.9959 24.6055 32.1414 24.5428 32.2869 24.5428H32.2765Z" fill="#843511"/>
<path d="M32.3066 24.8957C32.4093 24.8957 32.4926 24.8119 32.4926 24.7086C32.4926 24.6052 32.4093 24.5214 32.3066 24.5214C32.2039 24.5214 32.1206 24.6052 32.1206 24.7086C32.1206 24.8119 32.2039 24.8957 32.3066 24.8957Z" fill="#85340A"/>
<path d="M31.7881 24.8354C32.1518 25.1177 32.5155 25.0968 32.7233 24.9713C32.9312 24.8354 32.9312 24.7936 32.8896 24.7936C32.848 24.7936 32.8065 24.8354 32.6402 24.9295C32.4635 25.0132 32.2141 25.0132 31.7881 24.8354V24.8354Z" fill="#85340A"/>
</g>
<defs>
<clipPath id="clip0_237_40">
<rect width="66.5065" height="50.1936" fill="white"/>
</clipPath>
</defs>
</svg>
