<svg width="68" height="51" viewBox="0 0 68 51" fill="none" xmlns="http://www.w3.org/2000/svg">
<g clip-path="url(#clip0_237_2223)">
<path fill-rule="evenodd" clip-rule="evenodd" d="M0.313599 0.00263977H67.2515V50.1963H0.313599V0.00263977Z" fill="white"/>
<path fill-rule="evenodd" clip-rule="evenodd" d="M7.64697 15.2477L14.6094 4.80796L16.3493 5.96836L9.38692 16.4081L7.64697 15.2477ZM10.2569 16.9883L17.2193 6.54856L18.9593 7.70896L11.9968 18.1487L10.2569 16.9883ZM12.8668 18.7289L19.8292 8.28916L21.5692 9.44957L14.6068 19.8893L12.8668 18.7289Z" fill="black"/>
<path fill-rule="evenodd" clip-rule="evenodd" d="M45.9259 40.7764L52.8883 30.3367L54.6283 31.4971L47.6659 41.9368L45.9259 40.7764ZM48.5358 42.517L55.4982 32.0773L57.2382 33.2377L50.2758 43.6774L48.5358 42.517ZM51.1458 44.2576L58.1082 33.8179L59.8481 34.9783L52.8857 45.418L51.1458 44.2576Z" fill="black"/>
<path fill-rule="evenodd" clip-rule="evenodd" d="M48.5376 34.9769L57.2373 40.7789Z" fill="black"/>
<path d="M48.5376 34.9769L57.2373 40.7789" stroke="white" stroke-width="1.0491"/>
<path fill-rule="evenodd" clip-rule="evenodd" d="M23.3077 18.1508C25.1543 15.382 28.0251 13.4602 31.2886 12.808C34.5522 12.1559 37.9411 12.8269 40.7099 14.6735C43.4786 16.52 45.4005 19.3908 46.0526 22.6544C46.7047 25.9179 46.0337 29.3068 44.1871 32.0756L23.3077 18.1508Z" fill="#CD2E3A"/>
<path fill-rule="evenodd" clip-rule="evenodd" d="M23.3081 18.1511C21.4616 20.9199 20.7905 24.3088 21.4427 27.5724C22.0948 30.8359 24.0166 33.7067 26.7854 35.5532C29.5542 37.3998 32.9431 38.0708 36.2066 37.4187C39.4702 36.7666 42.341 34.8447 44.1875 32.076C45.1108 30.6916 45.4463 28.9971 45.1202 27.3654C44.7942 25.7336 43.8333 24.2982 42.4489 23.3749C41.0645 22.4516 39.37 22.1161 37.7383 22.4422C36.1065 22.7682 34.6711 23.7292 33.7478 25.1136L23.3081 18.1511Z" fill="#0047A0"/>
<path d="M33.7477 25.1132C35.6703 22.2303 34.8919 18.3347 32.009 16.4121C29.1262 14.4895 25.2306 15.2679 23.308 18.1508C21.3854 21.0336 22.1638 24.9292 25.0466 26.8518C27.9295 28.7744 31.8251 27.996 33.7477 25.1132Z" fill="#CD2E3A"/>
<path fill-rule="evenodd" clip-rule="evenodd" d="M14.6381 45.4224L7.67565 34.9827L9.4156 33.8223L16.378 44.262L14.6381 45.4224ZM17.248 43.6818L10.2856 33.2421L12.0255 32.0817L18.9879 42.5214L17.248 43.6818ZM19.8579 41.9412L12.8955 31.5015L14.6354 30.3411L21.5979 40.7808L19.8579 41.9412Z" fill="black"/>
<path fill-rule="evenodd" clip-rule="evenodd" d="M52.917 19.8935L45.9546 9.45384L47.6945 8.29343L54.6569 18.7331L52.917 19.8935ZM55.5269 18.1529L48.5645 7.71323L50.3045 6.55283L57.2669 16.9925L55.5269 18.1529ZM58.1368 16.4123L51.1744 5.97263L52.9144 4.81223L59.8768 15.2519L58.1368 16.4123Z" fill="black"/>
<path fill-rule="evenodd" clip-rule="evenodd" d="M13.3315 38.7521L15.9415 37.0115ZM48.5655 15.2539L51.6104 13.2232ZM54.2204 11.4826L56.8303 9.742Z" fill="black"/>
<path d="M13.3315 38.7521L15.9415 37.0115M48.5655 15.2539L51.6104 13.2232M54.2204 11.4826L56.8303 9.742" stroke="white" stroke-width="1.0491"/>
</g>
<defs>
<clipPath id="clip0_237_2223">
<rect width="66.9248" height="50.1936" fill="white" transform="translate(0.314941)"/>
</clipPath>
</defs>
</svg>
