<svg width="68" height="51" viewBox="0 0 68 51" fill="none" xmlns="http://www.w3.org/2000/svg">
<g clip-path="url(#clip0_237_2021)">
<path fill-rule="evenodd" clip-rule="evenodd" d="M-3.41428 -9.53674e-06H71.8762V50.1936H-3.41428V-9.53674e-06Z" fill="#E70013"/>
<path fill-rule="evenodd" clip-rule="evenodd" d="M46.9559 25.077C46.9559 28.4336 45.6225 31.6528 43.249 34.0263C40.8755 36.3998 37.6563 37.7332 34.2996 37.7332C30.943 37.7332 27.7238 36.3998 25.3503 34.0263C22.9768 31.6528 21.6434 28.4336 21.6434 25.077C21.6434 21.7203 22.9768 18.5012 25.3503 16.1277C27.7238 13.7542 30.943 12.4207 34.2996 12.4207C37.6563 12.4207 40.8755 13.7542 43.249 16.1277C45.6225 18.5012 46.9559 21.7203 46.9559 25.077V25.077Z" fill="white"/>
<path fill-rule="evenodd" clip-rule="evenodd" d="M34.2994 33.4685C32.1221 33.3941 30.0589 32.4769 28.545 30.9103C27.031 29.3438 26.1848 27.2504 26.1848 25.0719C26.1848 22.8933 27.031 20.8 28.545 19.2334C30.0589 17.6669 32.1221 16.7496 34.2994 16.6752C35.4562 16.6752 36.7797 16.9497 37.6718 17.6066C31.5348 17.832 29.9761 23.0475 29.9761 25.1454C29.9761 27.2433 30.9662 31.9196 37.6718 32.6156C36.9071 33.1058 35.4562 33.4685 34.2994 33.4685Z" fill="#E70013"/>
<path fill-rule="evenodd" clip-rule="evenodd" d="M41.6913 28.6064L37.8778 27.2143L35.3583 30.3906L35.5053 26.3418L31.7016 24.9203L35.6034 23.8027L35.77 19.7539L38.0444 23.1164L41.9462 22.0381L39.4463 25.2242L41.6913 28.6064Z" fill="#E70013"/>
</g>
<defs>
<clipPath id="clip0_237_2021">
<rect width="66.9248" height="50.1936" fill="white" transform="translate(0.768555)"/>
</clipPath>
</defs>
</svg>
