<svg width="67" height="51" viewBox="0 0 67 51" fill="none" xmlns="http://www.w3.org/2000/svg">
<g clip-path="url(#clip0_237_2010)">
<path d="M0.221924 0H66.7285V50.1936H0.221924V0Z" fill="#00008B"/>
<path d="M4.11879 0L16.7966 9.46359L29.4225 0H33.4752V3.24167L21.0052 12.6007L33.4752 21.9074V25.0968H29.3185L16.8486 15.7378L4.43054 25.0968H0.221924V21.9597L12.6399 12.653L0.221924 3.34624V0H4.11879Z" fill="white"/>
<path d="M22.2522 14.6921L33.4752 23.0054V25.0968L19.3945 14.6921H22.2522ZM12.6919 15.7378L13.0037 17.5678L3.02767 25.0968H0.221924L12.6919 15.7378ZM33.4752 0V0.156855L20.5376 9.98644L20.6415 7.6859L30.8773 0H33.4752ZM0.221924 0L12.6399 9.20216H9.52245L0.221924 2.19597V0Z" fill="#FF0000"/>
<path d="M12.7439 0V25.0968H21.0572V0H12.7439ZM0.221924 8.3656V16.7312H33.4752V8.3656H0.221924Z" fill="white"/>
<path d="M0.221924 10.091V15.1104H33.4752V10.091H0.221924ZM14.4065 0V25.0968H19.3945V0H14.4065Z" fill="#FF0000"/>
<path d="M54.9857 41.4826L52.8554 41.7545L53.084 43.8981L51.5461 42.3923L50.0185 43.9086L50.2263 41.7649L48.0961 41.514L49.8938 40.3428L48.7611 38.5128L50.7979 39.1925L51.5149 37.1534L52.2527 39.182L54.2791 38.4814L53.1672 40.3219L54.9753 41.4826H54.9857ZM54.6012 29.227L54.8818 27.8676L53.8634 26.9264L55.2351 26.7696L55.8067 25.5043L56.3782 26.7696L57.7499 26.9264L56.7315 27.8676L57.0121 29.227L55.8067 28.5368L54.6012 29.227V29.227ZM43.7835 22.9528L41.674 23.1828L41.8611 25.3056L40.3647 23.7893L38.8267 25.2638L39.0761 23.141L36.977 22.8587L38.7747 21.7293L37.6836 19.8993L39.6892 20.6104L40.4374 18.6131L41.1337 20.6313L43.1496 19.9725L42.0169 21.7816L43.7939 22.9528H43.7835ZM64.9617 19.5229L62.7898 19.8052L63.0289 21.9907L61.4597 20.4536L59.901 22.0012L60.1192 19.8052L57.9473 19.5543L59.7867 18.3517L58.6332 16.4799L60.7115 17.1805L61.4389 15.11L62.1871 17.1805L64.2551 16.459L63.112 18.3412L64.9617 19.5229ZM54.9753 10.7913L52.8243 11.0318L53.0217 13.2069L51.4941 11.6592L49.925 13.165L50.1744 11.0004L48.0233 10.7076L49.8626 9.55736L48.7507 7.68555L50.7979 8.40709L51.5565 6.36797L52.2631 8.428L54.3206 7.7483L53.1672 9.58873L54.9753 10.7913V10.7913ZM24.5382 40.3323L19.7788 40.897L20.2568 45.6968L16.8484 42.3087L13.4191 45.6758L13.9283 40.8761L9.16895 40.2696L13.2113 37.6762L10.7173 33.5562L15.2481 35.1247L16.8899 30.5864L18.5006 35.1352L23.0418 33.598L20.5166 37.6971L24.5486 40.3219L24.5382 40.3323Z" fill="white"/>
</g>
<defs>
<clipPath id="clip0_237_2010">
<rect width="66.5065" height="50.1936" fill="white" transform="translate(0.221924)"/>
</clipPath>
</defs>
</svg>
