<svg width="68" height="51" viewBox="0 0 68 51" fill="none" xmlns="http://www.w3.org/2000/svg">
<g clip-path="url(#clip0_237_797)">
<path fill-rule="evenodd" clip-rule="evenodd" d="M-10.1069 0.000398636H77.7319V50.194H-10.1069V0.000398636Z" fill="white"/>
<path fill-rule="evenodd" clip-rule="evenodd" d="M-10.1069 33.7045H77.7319V50.1939H-10.1069V33.7045Z" fill="#DA0000"/>
<path fill-rule="evenodd" clip-rule="evenodd" d="M6.5984 34.4107H11.4021V34.7342H6.5984V34.4107ZM7.31406 36.0576H7.64737V36.3811H7.31406V36.0576ZM11.4217 36.0576V36.3811H10.461V36.0478L11.4217 36.0576ZM11.9315 34.4107H12.2648V36.3713H11.9315V34.4107Z" fill="white"/>
<path fill-rule="evenodd" clip-rule="evenodd" d="M13.8529 36.0476V36.3809H12.0294V36.0476H13.8529ZM10.4609 35.2731H10.7746V36.3809H10.4511L10.4609 35.2731Z" fill="white"/>
<path fill-rule="evenodd" clip-rule="evenodd" d="M13.5785 34.4107H13.9118V36.3713H13.5785V34.4107ZM12.755 34.4107H13.0785V36.3713H12.755V34.4107ZM8.36302 35.1949V35.5282H6.5984V35.1949H8.36302ZM12.2158 35.1949V35.5282H10.4512V35.1949H12.2158Z" fill="white"/>
<path fill-rule="evenodd" clip-rule="evenodd" d="M10.4609 35.2831H10.7746V36.3713H10.4511L10.4609 35.2831Z" fill="white"/>
<path fill-rule="evenodd" clip-rule="evenodd" d="M10.4609 35.2831H10.7746V36.3713H10.4511L10.4609 35.2831Z" fill="white"/>
<path fill-rule="evenodd" clip-rule="evenodd" d="M10.4609 35.2831H10.7746V36.3713H10.4511L10.4609 35.2831ZM6.60815 35.2831H6.93167V36.3713H6.60815V35.2831ZM9.43155 35.2831H9.76486V36.3713H9.43155V35.2831ZM8.02965 35.2831H8.36297V36.3713H8.02965V35.2831Z" fill="white"/>
<path fill-rule="evenodd" clip-rule="evenodd" d="M9.65688 36.0481V36.3814H8.17656V36.0481H9.65688ZM9.75491 35.1952V35.5285H8.81378V35.1952H9.75491Z" fill="white"/>
<path fill-rule="evenodd" clip-rule="evenodd" d="M-1.30331 34.4107H3.50037V34.7342H-1.30331V34.4107ZM-0.587664 36.0576H-0.254346V36.3811H-0.597467L-0.587664 36.0576ZM3.51998 36.0576V36.3811H2.55924V36.0478L3.51998 36.0576ZM4.02976 34.4107H4.36307V36.3713H4.02976V34.4107Z" fill="white"/>
<path fill-rule="evenodd" clip-rule="evenodd" d="M5.95141 36.0476V36.3809H4.12797V36.0476H5.95141ZM2.55942 35.2731H2.88293V36.3809H2.55942V35.2731Z" fill="white"/>
<path fill-rule="evenodd" clip-rule="evenodd" d="M5.67674 34.4107H6.01005V36.3713H5.67674V34.4107ZM4.85325 34.4107H5.17676V36.3713H4.85325V34.4107ZM0.461305 35.1949V35.5282H-1.30331V35.1949H0.461305ZM4.31406 35.1949V35.5282H2.54944V35.1949H4.31406Z" fill="white"/>
<path fill-rule="evenodd" clip-rule="evenodd" d="M2.55942 35.2831H2.88293V36.3713H2.55942V35.2831Z" fill="white"/>
<path fill-rule="evenodd" clip-rule="evenodd" d="M2.55942 35.2831H2.88293V36.3713H2.55942V35.2831Z" fill="white"/>
<path fill-rule="evenodd" clip-rule="evenodd" d="M2.55945 35.2831H2.88296V36.3713H2.55945V35.2831ZM-1.2933 35.2831H-0.969791V36.3713H-1.2933V35.2831ZM1.53009 35.2831H1.8536V36.3713H1.53009V35.2831ZM0.128195 35.2831H0.461512V36.3713H0.128195V35.2831Z" fill="white"/>
<path fill-rule="evenodd" clip-rule="evenodd" d="M1.75537 36.0481V36.3814H0.284851V36.0481H1.75537ZM1.8534 35.1952V35.5285H0.912271V35.1952H1.8534Z" fill="white"/>
<path fill-rule="evenodd" clip-rule="evenodd" d="M14.4313 34.4107H19.235V34.7342H14.4313V34.4107ZM15.1469 36.0576H15.4802V36.3811H15.1469V36.0576ZM19.2546 36.0576V36.3811H18.2938V36.0478L19.2546 36.0576ZM19.7741 34.4107H20.1075V36.3713H19.7741V34.4107Z" fill="white"/>
<path fill-rule="evenodd" clip-rule="evenodd" d="M21.6859 36.0476V36.3809H19.8625V36.0476H21.6859ZM18.2939 35.2731H18.6272V36.3809H18.2939V35.2731Z" fill="white"/>
<path fill-rule="evenodd" clip-rule="evenodd" d="M21.4113 34.4107H21.7446V36.3713H21.4113V34.4107ZM20.5878 34.4107H20.9212V36.3713H20.578L20.5878 34.4107ZM16.1959 35.1949V35.5282H14.4313V35.1949H16.1959ZM20.0486 35.1949V35.5282H18.284V35.1949H20.0486Z" fill="white"/>
<path fill-rule="evenodd" clip-rule="evenodd" d="M18.2939 35.2831H18.6272V36.3713H18.2939V35.2831Z" fill="white"/>
<path fill-rule="evenodd" clip-rule="evenodd" d="M18.2939 35.2831H18.6272V36.3713H18.2939V35.2831Z" fill="white"/>
<path fill-rule="evenodd" clip-rule="evenodd" d="M18.294 35.2831H18.6273V36.3713H18.294V35.2831ZM14.4413 35.2831H14.7746V36.3713H14.4413V35.2831ZM17.2646 35.2831H17.598V36.3713H17.2646V35.2831ZM15.8628 35.2831H16.1961V36.3713H15.8628V35.2831Z" fill="white"/>
<path fill-rule="evenodd" clip-rule="evenodd" d="M17.4998 36.0481V36.3814H16.0096V36.0481H17.4998ZM17.5978 35.1952V35.5285H16.6567V35.1952H17.5978Z" fill="white"/>
<path fill-rule="evenodd" clip-rule="evenodd" d="M22.3132 34.4107H27.1267V34.7342H22.323L22.3132 34.4107ZM23.0387 36.0576H23.3622V36.3811H23.0387V36.0576ZM27.1365 36.0576V36.3811H26.1758V36.0478L27.1365 36.0576ZM27.6561 34.4107H27.9894V36.3713H27.6561V34.4107Z" fill="white"/>
<path fill-rule="evenodd" clip-rule="evenodd" d="M29.5774 36.0476V36.3809H27.754V36.0476H29.5774ZM26.1756 35.2731H26.509V36.3809H26.1756V35.2731Z" fill="white"/>
<path fill-rule="evenodd" clip-rule="evenodd" d="M29.302 34.4107H29.6353V36.3714H29.302V34.4107ZM28.4687 34.4107H28.802V36.3714H28.4687V34.4107ZM24.0768 35.195V35.5283H22.3219V35.195H24.0768ZM27.9295 35.195V35.5283H26.1747V35.195H27.9295Z" fill="white"/>
<path fill-rule="evenodd" clip-rule="evenodd" d="M26.1756 35.2831H26.509V36.3713H26.1756V35.2831Z" fill="white"/>
<path fill-rule="evenodd" clip-rule="evenodd" d="M26.1756 35.2831H26.509V36.3713H26.1756V35.2831Z" fill="white"/>
<path fill-rule="evenodd" clip-rule="evenodd" d="M26.1757 35.2831H26.5091V36.3713H26.1757V35.2831ZM22.323 35.2831H22.6563V36.3713H22.323V35.2831ZM25.1464 35.2831H25.4797V36.3713H25.1464V35.2831ZM23.7543 35.2831H24.0778V36.3713H23.7543V35.2831Z" fill="white"/>
<path fill-rule="evenodd" clip-rule="evenodd" d="M25.3817 36.0481V36.3814H23.9014V36.0481H25.3817ZM25.4797 35.1952V35.5285H24.5386V35.1952H25.4797Z" fill="white"/>
<path fill-rule="evenodd" clip-rule="evenodd" d="M30.2345 34.4107H35.0382V34.7342H30.2345V34.4107ZM30.9501 36.0576H31.2834V36.3811H30.9501V36.0576ZM35.0578 36.0576V36.3811H34.097V36.0478L35.0578 36.0576ZM35.5774 34.4107H35.9009V36.3713H35.5774V34.4107Z" fill="white"/>
<path fill-rule="evenodd" clip-rule="evenodd" d="M37.4892 36.0476V36.3809H35.6658V36.0476H37.4892ZM34.0972 35.2731H34.4305V36.3809H34.0972V35.2731Z" fill="white"/>
<path fill-rule="evenodd" clip-rule="evenodd" d="M37.2145 34.4107H37.5478V36.3713H37.2145V34.4107ZM36.391 34.4107H36.7244V36.3713H36.391V34.4107ZM31.9991 35.1949V35.5282H30.2345V35.1949H31.9991ZM35.8519 35.1949V35.5282H34.0872V35.1949H35.8519Z" fill="white"/>
<path fill-rule="evenodd" clip-rule="evenodd" d="M34.0972 35.2831H34.4305V36.3713H34.0972V35.2831Z" fill="white"/>
<path fill-rule="evenodd" clip-rule="evenodd" d="M34.0972 35.2831H34.4305V36.3713H34.0972V35.2831Z" fill="white"/>
<path fill-rule="evenodd" clip-rule="evenodd" d="M34.097 35.2831H34.4303V36.3713H34.097V35.2831ZM30.2443 35.2831H30.5678V36.3713H30.2443V35.2831ZM33.0677 35.2831H33.401V36.3713H33.0677V35.2831ZM31.6658 35.2831H31.9991V36.3713H31.656L31.6658 35.2831Z" fill="white"/>
<path fill-rule="evenodd" clip-rule="evenodd" d="M33.303 36.0481V36.3814H31.8129V36.0481H33.303ZM33.4011 35.1952V35.5285H32.4403V35.1952H33.4011Z" fill="white"/>
<path fill-rule="evenodd" clip-rule="evenodd" d="M-10.1069 0.000398636H77.7319V16.4898H-10.1069V0.000398636Z" fill="#239F40"/>
<path fill-rule="evenodd" clip-rule="evenodd" d="M38.1948 34.4107H42.9985V34.7342H38.1948V34.4107ZM38.9105 36.0576H39.2438V36.3811H38.9105V36.0576ZM43.0181 36.0576V36.3811H42.0476V36.0478L43.0181 36.0576ZM43.5377 34.4107H43.8612V36.3713H43.5377V34.4107Z" fill="white"/>
<path fill-rule="evenodd" clip-rule="evenodd" d="M45.4493 36.0476V36.3809H43.6259V36.0476H45.4493ZM42.0573 35.2731H42.3906V36.3809H42.0475L42.0573 35.2731Z" fill="white"/>
<path fill-rule="evenodd" clip-rule="evenodd" d="M45.1847 34.4107H45.5082V36.3713H45.1847V34.4107ZM44.3514 34.4107H44.6847V36.3713H44.3514V34.4107ZM39.9594 35.1949V35.5282H38.1948V35.1949H39.9594ZM43.8122 35.1949V35.5282H42.0476V35.1949H43.8122Z" fill="white"/>
<path fill-rule="evenodd" clip-rule="evenodd" d="M42.0475 35.2831H42.3906V36.3713H42.0475V35.2831Z" fill="white"/>
<path fill-rule="evenodd" clip-rule="evenodd" d="M42.0475 35.2831H42.3906V36.3713H42.0475V35.2831Z" fill="white"/>
<path fill-rule="evenodd" clip-rule="evenodd" d="M42.0475 35.2831H42.3906V36.3713H42.0475V35.2831ZM38.2046 35.2831H38.5379V36.3713H38.2046V35.2831ZM41.028 35.2831H41.3613V36.3713H41.028V35.2831ZM39.6261 35.2831H39.9594V36.3713H39.6261V35.2831Z" fill="white"/>
<path fill-rule="evenodd" clip-rule="evenodd" d="M41.2631 36.0481V36.3814H39.7729V36.0481H41.2631ZM41.3611 35.1952V35.5285H40.42V35.1952H41.3611Z" fill="white"/>
<path fill-rule="evenodd" clip-rule="evenodd" d="M46.1061 34.4107H50.9097V34.7342H46.1061V34.4107ZM46.8217 36.0576H47.155V36.3811H46.8217V36.0576ZM50.9392 36.0576V36.3811H49.9686V36.0478L50.9392 36.0576ZM51.4489 34.4107H51.7823V36.3713H51.4489V34.4107Z" fill="white"/>
<path fill-rule="evenodd" clip-rule="evenodd" d="M53.3606 36.0476V36.3809H51.5371V36.0476H53.3606ZM49.9686 35.2731H50.3019V36.3809H49.9686V35.2731Z" fill="white"/>
<path fill-rule="evenodd" clip-rule="evenodd" d="M53.0949 34.4107H53.4184V36.3714H53.0949V34.4107ZM52.2616 34.4107H52.5949V36.3714H52.2616V34.4107ZM47.8697 35.195V35.5283H46.1149V35.195H47.8697ZM51.7224 35.195V35.5283H49.9676V35.195H51.7224Z" fill="white"/>
<path fill-rule="evenodd" clip-rule="evenodd" d="M49.9686 35.2831H50.3019V36.3713H49.9686V35.2831Z" fill="white"/>
<path fill-rule="evenodd" clip-rule="evenodd" d="M49.9686 35.2831H50.3019V36.3713H49.9686V35.2831Z" fill="white"/>
<path fill-rule="evenodd" clip-rule="evenodd" d="M49.9687 35.2831H50.302V36.3713H49.9687V35.2831ZM46.1159 35.2831H46.4492V36.3713H46.1159V35.2831ZM48.9393 35.2831H49.2726V36.3713H48.9393V35.2831ZM47.5374 35.2831H47.8707V36.3713H47.5472L47.5374 35.2831Z" fill="white"/>
<path fill-rule="evenodd" clip-rule="evenodd" d="M49.1744 36.0481V36.3814H47.6941V36.0481H49.1744ZM49.2724 35.1952V35.5285H48.3215V35.1952H49.2724Z" fill="white"/>
<path fill-rule="evenodd" clip-rule="evenodd" d="M54.0274 34.4107H58.8311V34.7342H54.0274V34.4107ZM54.743 36.0576H55.0763V36.3811H54.743V36.0576ZM58.8507 36.0576V36.3811H57.8899V36.0478L58.8507 36.0576ZM59.3604 34.4107H59.6938V36.3713H59.3604V34.4107Z" fill="white"/>
<path fill-rule="evenodd" clip-rule="evenodd" d="M61.2819 36.0476V36.3809H59.4584V36.0476H61.2819ZM57.8801 35.2731H58.2134V36.3809H57.8801V35.2731Z" fill="white"/>
<path fill-rule="evenodd" clip-rule="evenodd" d="M61.0074 34.4107H61.3407V36.3713H61.0074V34.4107ZM60.1839 34.4107H60.5074V36.3713H60.1839V34.4107ZM55.792 35.1949V35.5282H54.0274V35.1949H55.792ZM59.6447 35.1949V35.5282H57.8801V35.1949H59.6447Z" fill="white"/>
<path fill-rule="evenodd" clip-rule="evenodd" d="M57.8898 35.2831H58.2133V36.3713H57.8898V35.2831Z" fill="white"/>
<path fill-rule="evenodd" clip-rule="evenodd" d="M57.8898 35.2831H58.2133V36.3713H57.8898V35.2831Z" fill="white"/>
<path fill-rule="evenodd" clip-rule="evenodd" d="M57.8899 35.2831H58.2134V36.3713H57.8899V35.2831ZM54.0274 35.2831H54.3607V36.3713H54.0274V35.2831ZM56.8606 35.2831H57.1841V36.3713H56.8606V35.2831ZM55.4587 35.2831H55.792V36.3713H55.4587V35.2831Z" fill="white"/>
<path fill-rule="evenodd" clip-rule="evenodd" d="M57.0859 36.0481V36.3814H55.6056V36.0481H57.0859ZM57.1839 35.1952V35.5285H56.2428V35.1952H57.1839Z" fill="white"/>
<path fill-rule="evenodd" clip-rule="evenodd" d="M61.9878 34.4107H66.7914V34.7342H61.9878V34.4107ZM62.7034 36.0576H63.0367V36.3811H62.7034V36.0576ZM66.811 36.0576V36.3811H65.8503V36.0478L66.811 36.0576ZM67.3208 34.4107H67.6541V36.3713H67.3208V34.4107Z" fill="white"/>
<path fill-rule="evenodd" clip-rule="evenodd" d="M69.2422 36.0476V36.3809H67.4188V36.0476H69.2422ZM65.8502 35.2731H66.1737V36.3809H65.8502V35.2731Z" fill="white"/>
<path fill-rule="evenodd" clip-rule="evenodd" d="M68.9678 34.4107H69.3011V36.3713H68.9678V34.4107ZM68.1443 34.4107H68.4678V36.3713H68.1443V34.4107ZM63.7524 35.1949V35.5282H61.9878V35.1949H63.7524ZM67.6051 35.1949V35.5282H65.8405V35.1949H67.6051Z" fill="white"/>
<path fill-rule="evenodd" clip-rule="evenodd" d="M65.8502 35.2831H66.1737V36.3713H65.8502V35.2831Z" fill="white"/>
<path fill-rule="evenodd" clip-rule="evenodd" d="M65.8502 35.2831H66.1737V36.3713H65.8502V35.2831Z" fill="white"/>
<path fill-rule="evenodd" clip-rule="evenodd" d="M65.8501 35.2831H66.1736V36.3713H65.8501V35.2831ZM61.9973 35.2831H62.3208V36.3713H61.9973V35.2831ZM64.8207 35.2831H65.154V36.3713H64.8207V35.2831ZM63.4188 35.2831H63.7521V36.3713H63.4188V35.2831Z" fill="white"/>
<path fill-rule="evenodd" clip-rule="evenodd" d="M65.0463 36.0481V36.3814H63.5659V36.0481H65.0463ZM65.1443 35.1952V35.5285H64.2032V35.1952H65.1443Z" fill="white"/>
<path fill-rule="evenodd" clip-rule="evenodd" d="M6.5984 14.0584H11.4021V14.3917H6.5984V14.0584ZM7.31406 15.725H7.64737V16.0387H7.31406V15.725ZM11.4217 15.7054V16.0387H10.461V15.7054H11.4217ZM11.9315 14.0584H12.2648V16.0387H11.9315V14.0584Z" fill="white"/>
<path fill-rule="evenodd" clip-rule="evenodd" d="M13.8529 15.7058V16.0391H12.0294V15.7058H13.8529ZM10.4609 14.9313H10.7746V16.0391H10.4511L10.4609 14.9313Z" fill="white"/>
<path fill-rule="evenodd" clip-rule="evenodd" d="M13.5785 14.0584H13.9118V16.0387H13.5785V14.0584ZM12.755 14.0584H13.0785V16.0387H12.755V14.0584ZM8.36302 14.8426V15.176H6.5984V14.8525L8.36302 14.8426ZM12.2158 14.8426V15.176H10.4512V14.8525L12.2158 14.8426Z" fill="white"/>
<path fill-rule="evenodd" clip-rule="evenodd" d="M10.4609 14.9313H10.7746V16.0391H10.4511L10.4609 14.9313Z" fill="white"/>
<path fill-rule="evenodd" clip-rule="evenodd" d="M10.4609 14.9313H10.7746V16.0391H10.4511L10.4609 14.9313Z" fill="white"/>
<path fill-rule="evenodd" clip-rule="evenodd" d="M10.4609 14.9313H10.7746V16.0391H10.4511L10.4609 14.9313ZM6.60815 14.9313H6.93167V16.0391H6.60815V14.9313ZM9.43155 14.9313H9.76486V16.0391H9.43155V14.9313ZM8.02965 14.9313H8.36297V16.0391H8.02965V14.9313Z" fill="white"/>
<path fill-rule="evenodd" clip-rule="evenodd" d="M9.65688 15.7051V16.0384H8.17656V15.7051H9.65688ZM9.75491 14.8522V15.1757H8.81378V14.8522H9.75491Z" fill="white"/>
<path fill-rule="evenodd" clip-rule="evenodd" d="M-1.30331 14.0584H3.50037V14.3917H-1.30331V14.0584ZM-0.587664 15.725H-0.254346V16.0387H-0.597467L-0.587664 15.725ZM3.51998 15.7054V16.0387H2.55924V15.7054H3.51998ZM4.02976 14.0584H4.36307V16.0387H4.02976V14.0584Z" fill="white"/>
<path fill-rule="evenodd" clip-rule="evenodd" d="M5.95141 15.7058V16.0391H4.12797V15.7058H5.95141ZM2.55942 14.9313H2.88293V16.0391H2.55942V14.9313Z" fill="white"/>
<path fill-rule="evenodd" clip-rule="evenodd" d="M5.67674 14.0584H6.01005V16.0387H5.67674V14.0584ZM4.85325 14.0584H5.17676V16.0387H4.85325V14.0584ZM0.461305 14.8426V15.176H-1.30331V14.8525L0.461305 14.8426ZM4.31406 14.8426V15.176H2.54944V14.8525L4.31406 14.8426Z" fill="white"/>
<path fill-rule="evenodd" clip-rule="evenodd" d="M2.55942 14.9313H2.88293V16.0391H2.55942V14.9313Z" fill="white"/>
<path fill-rule="evenodd" clip-rule="evenodd" d="M2.55942 14.9313H2.88293V16.0391H2.55942V14.9313Z" fill="white"/>
<path fill-rule="evenodd" clip-rule="evenodd" d="M2.55945 14.9313H2.88296V16.0391H2.55945V14.9313ZM-1.2933 14.9313H-0.969791V16.0391H-1.2933V14.9313ZM1.53009 14.9313H1.8536V16.0391H1.53009V14.9313ZM0.128195 14.9313H0.461512V16.0391H0.128195V14.9313Z" fill="white"/>
<path fill-rule="evenodd" clip-rule="evenodd" d="M1.75537 15.7051V16.0384H0.284851V15.7051H1.75537ZM1.8534 14.8522V15.1757H0.912271V14.8522H1.8534Z" fill="white"/>
<path fill-rule="evenodd" clip-rule="evenodd" d="M14.4313 14.0584H19.235V14.3917H14.4313V14.0584ZM15.1469 15.725H15.4802V16.0387H15.1469V15.725ZM19.2546 15.7054V16.0387H18.2938V15.7054H19.2546ZM19.7741 14.0584H20.1075V16.0387H19.7741V14.0584Z" fill="white"/>
<path fill-rule="evenodd" clip-rule="evenodd" d="M21.6859 15.7058V16.0391H19.8625V15.7058H21.6859ZM18.2939 14.9313H18.6272V16.0391H18.2939V14.9313Z" fill="white"/>
<path fill-rule="evenodd" clip-rule="evenodd" d="M21.4113 14.0584H21.7446V16.0387H21.4113V14.0584ZM20.5878 14.0584H20.9212V16.0387H20.578L20.5878 14.0584ZM16.1959 14.8426V15.176H14.4313V14.8525L16.1959 14.8426ZM20.0486 14.8426V15.176H18.284V14.8525L20.0486 14.8426Z" fill="white"/>
<path fill-rule="evenodd" clip-rule="evenodd" d="M18.2939 14.9313H18.6272V16.0391H18.2939V14.9313Z" fill="white"/>
<path fill-rule="evenodd" clip-rule="evenodd" d="M18.2939 14.9313H18.6272V16.0391H18.2939V14.9313Z" fill="white"/>
<path fill-rule="evenodd" clip-rule="evenodd" d="M18.294 14.9313H18.6273V16.0391H18.294V14.9313ZM14.4413 14.9313H14.7746V16.0391H14.4413V14.9313ZM17.2646 14.9313H17.598V16.0391H17.2646V14.9313ZM15.8628 14.9313H16.1961V16.0391H15.8628V14.9313Z" fill="white"/>
<path fill-rule="evenodd" clip-rule="evenodd" d="M17.4998 15.7051V16.0384H16.0096V15.7051H17.4998ZM17.5978 14.8522V15.1757H16.6567V14.8522H17.5978Z" fill="white"/>
<path fill-rule="evenodd" clip-rule="evenodd" d="M22.3132 14.0584H27.1267V14.3917H22.323L22.3132 14.0584ZM23.0387 15.725H23.3622V16.0387H23.0387V15.725ZM27.1365 15.7054V16.0387H26.1758V15.7054H27.1365ZM27.6561 14.0584H27.9894V16.0387H27.6561V14.0584Z" fill="white"/>
<path fill-rule="evenodd" clip-rule="evenodd" d="M29.5774 15.7058V16.0391H27.754V15.7058H29.5774ZM26.1756 14.9313H26.509V16.0391H26.1756V14.9313Z" fill="white"/>
<path fill-rule="evenodd" clip-rule="evenodd" d="M29.302 14.0584H29.6353V16.0387H29.302V14.0584ZM28.4687 14.0584H28.802V16.0387H28.4687V14.0584ZM24.0768 14.8427V15.176H22.3219V14.8525L24.0768 14.8427ZM27.9295 14.8427V15.176H26.1747V14.8525L27.9295 14.8427Z" fill="white"/>
<path fill-rule="evenodd" clip-rule="evenodd" d="M26.1756 14.9313H26.509V16.0391H26.1756V14.9313Z" fill="white"/>
<path fill-rule="evenodd" clip-rule="evenodd" d="M26.1756 14.9313H26.509V16.0391H26.1756V14.9313Z" fill="white"/>
<path fill-rule="evenodd" clip-rule="evenodd" d="M26.1757 14.9313H26.5091V16.0391H26.1757V14.9313ZM22.323 14.9313H22.6563V16.0391H22.323V14.9313ZM25.1464 14.9313H25.4797V16.0391H25.1464V14.9313ZM23.7543 14.9313H24.0778V16.0391H23.7543V14.9313Z" fill="white"/>
<path fill-rule="evenodd" clip-rule="evenodd" d="M25.3817 15.7051V16.0384H23.9014V15.7051H25.3817ZM25.4797 14.8522V15.1757H24.5386V14.8522H25.4797Z" fill="white"/>
<path fill-rule="evenodd" clip-rule="evenodd" d="M30.2345 14.0584H35.0382V14.3917H30.2345V14.0584ZM30.9501 15.725H31.2834V16.0387H30.9501V15.725ZM35.0578 15.7054V16.0387H34.097V15.7054H35.0578ZM35.5774 14.0584H35.9009V16.0387H35.5774V14.0584Z" fill="white"/>
<path fill-rule="evenodd" clip-rule="evenodd" d="M37.4892 15.7058V16.0391H35.6658V15.7058H37.4892ZM34.0972 14.9313H34.4305V16.0391H34.0972V14.9313Z" fill="white"/>
<path fill-rule="evenodd" clip-rule="evenodd" d="M37.2145 14.0584H37.5478V16.0387H37.2145V14.0584ZM36.391 14.0584H36.7244V16.0387H36.391V14.0584ZM31.9991 14.8426V15.176H30.2345V14.8525L31.9991 14.8426ZM35.8519 14.8426V15.176H34.0872V14.8525L35.8519 14.8426Z" fill="white"/>
<path fill-rule="evenodd" clip-rule="evenodd" d="M34.0972 14.9313H34.4305V16.0391H34.0972V14.9313Z" fill="white"/>
<path fill-rule="evenodd" clip-rule="evenodd" d="M34.0972 14.9313H34.4305V16.0391H34.0972V14.9313Z" fill="white"/>
<path fill-rule="evenodd" clip-rule="evenodd" d="M34.097 14.9313H34.4303V16.0391H34.097V14.9313ZM30.2443 14.9313H30.5678V16.0391H30.2443V14.9313ZM33.0677 14.9313H33.401V16.0391H33.0677V14.9313ZM31.6658 14.9313H31.9991V16.0391H31.656L31.6658 14.9313Z" fill="white"/>
<path fill-rule="evenodd" clip-rule="evenodd" d="M33.303 15.7051V16.0384H31.8129V15.7051H33.303ZM33.4011 14.8522V15.1757H32.4403V14.8522H33.4011Z" fill="white"/>
<path fill-rule="evenodd" clip-rule="evenodd" d="M38.1948 14.0584H42.9985V14.3917H38.1948V14.0584ZM38.9105 15.725H39.2438V16.0387H38.9105V15.725ZM43.0181 15.7054V16.0387H42.0476V15.7054H43.0181ZM43.5377 14.0584H43.8612V16.0387H43.5377V14.0584Z" fill="white"/>
<path fill-rule="evenodd" clip-rule="evenodd" d="M45.4493 15.7058V16.0391H43.6259V15.7058H45.4493ZM42.0573 14.9313H42.3906V16.0391H42.0475L42.0573 14.9313Z" fill="white"/>
<path fill-rule="evenodd" clip-rule="evenodd" d="M45.1847 14.0584H45.5082V16.0387H45.1847V14.0584ZM44.3514 14.0584H44.6847V16.0387H44.3514V14.0584ZM39.9594 14.8426V15.176H38.1948V14.8525L39.9594 14.8426ZM43.8122 14.8426V15.176H42.0476V14.8525L43.8122 14.8426Z" fill="white"/>
<path fill-rule="evenodd" clip-rule="evenodd" d="M42.0475 14.9313H42.3906V16.0391H42.0475V14.9313Z" fill="white"/>
<path fill-rule="evenodd" clip-rule="evenodd" d="M42.0475 14.9313H42.3906V16.0391H42.0475V14.9313Z" fill="white"/>
<path fill-rule="evenodd" clip-rule="evenodd" d="M42.0475 14.9313H42.3906V16.0391H42.0475V14.9313ZM38.2046 14.9313H38.5379V16.0391H38.2046V14.9313ZM41.028 14.9313H41.3613V16.0391H41.028V14.9313ZM39.6261 14.9313H39.9594V16.0391H39.6261V14.9313Z" fill="white"/>
<path fill-rule="evenodd" clip-rule="evenodd" d="M41.2631 15.7051V16.0384H39.7729V15.7051H41.2631ZM41.3611 14.8522V15.1757H40.42V14.8522H41.3611Z" fill="white"/>
<path fill-rule="evenodd" clip-rule="evenodd" d="M46.1061 14.0584H50.9097V14.3917H46.1061V14.0584ZM46.8217 15.725H47.155V16.0387H46.8217V15.725ZM50.9392 15.7054V16.0387H49.9686V15.7054H50.9392ZM51.4489 14.0584H51.7823V16.0387H51.4489V14.0584Z" fill="white"/>
<path fill-rule="evenodd" clip-rule="evenodd" d="M53.3606 15.7058V16.0391H51.5371V15.7058H53.3606ZM49.9686 14.9313H50.3019V16.0391H49.9686V14.9313Z" fill="white"/>
<path fill-rule="evenodd" clip-rule="evenodd" d="M53.0949 14.0584H53.4184V16.0387H53.0949V14.0584ZM52.2616 14.0584H52.5949V16.0387H52.2616V14.0584ZM47.8697 14.8427V15.176H46.1149V14.8525L47.8697 14.8427ZM51.7224 14.8427V15.176H49.9676V14.8525L51.7224 14.8427Z" fill="white"/>
<path fill-rule="evenodd" clip-rule="evenodd" d="M49.9686 14.9313H50.3019V16.0391H49.9686V14.9313Z" fill="white"/>
<path fill-rule="evenodd" clip-rule="evenodd" d="M49.9686 14.9313H50.3019V16.0391H49.9686V14.9313Z" fill="white"/>
<path fill-rule="evenodd" clip-rule="evenodd" d="M49.9687 14.9313H50.302V16.0391H49.9687V14.9313ZM46.1159 14.9313H46.4492V16.0391H46.1159V14.9313ZM48.9393 14.9313H49.2726V16.0391H48.9393V14.9313ZM47.5374 14.9313H47.8707V16.0391H47.5472L47.5374 14.9313Z" fill="white"/>
<path fill-rule="evenodd" clip-rule="evenodd" d="M49.1744 15.7051V16.0384H47.6941V15.7051H49.1744ZM49.2724 14.8522V15.1757H48.3215V14.8522H49.2724Z" fill="white"/>
<path fill-rule="evenodd" clip-rule="evenodd" d="M54.0274 14.0584H58.8311V14.3917H54.0274V14.0584ZM54.743 15.725H55.0763V16.0387H54.743V15.725ZM58.8507 15.7054V16.0387H57.8899V15.7054H58.8507ZM59.3604 14.0584H59.6938V16.0387H59.3604V14.0584Z" fill="white"/>
<path fill-rule="evenodd" clip-rule="evenodd" d="M61.2819 15.7058V16.0391H59.4584V15.7058H61.2819ZM57.8801 14.9313H58.2134V16.0391H57.8801V14.9313Z" fill="white"/>
<path fill-rule="evenodd" clip-rule="evenodd" d="M61.0074 14.0584H61.3407V16.0387H61.0074V14.0584ZM60.1839 14.0584H60.5074V16.0387H60.1839V14.0584ZM55.792 14.8426V15.176H54.0274V14.8525L55.792 14.8426ZM59.6447 14.8426V15.176H57.8801V14.8525L59.6447 14.8426Z" fill="white"/>
<path fill-rule="evenodd" clip-rule="evenodd" d="M57.8898 14.9313H58.2133V16.0391H57.8898V14.9313Z" fill="white"/>
<path fill-rule="evenodd" clip-rule="evenodd" d="M57.8898 14.9313H58.2133V16.0391H57.8898V14.9313Z" fill="white"/>
<path fill-rule="evenodd" clip-rule="evenodd" d="M57.8899 14.9313H58.2134V16.0391H57.8899V14.9313ZM54.0274 14.9313H54.3607V16.0391H54.0274V14.9313ZM56.8606 14.9313H57.1841V16.0391H56.8606V14.9313ZM55.4587 14.9313H55.792V16.0391H55.4587V14.9313Z" fill="white"/>
<path fill-rule="evenodd" clip-rule="evenodd" d="M57.0859 15.7051V16.0384H55.6056V15.7051H57.0859ZM57.1839 14.8522V15.1757H56.2428V14.8522H57.1839Z" fill="white"/>
<path fill-rule="evenodd" clip-rule="evenodd" d="M61.9878 14.0584H66.7914V14.3917H61.9878V14.0584ZM62.7034 15.725H63.0367V16.0387H62.7034V15.725ZM66.811 15.7054V16.0387H65.8503V15.7054H66.811ZM67.3208 14.0584H67.6541V16.0387H67.3208V14.0584Z" fill="white"/>
<path fill-rule="evenodd" clip-rule="evenodd" d="M69.2422 15.7058V16.0391H67.4188V15.7058H69.2422ZM65.8502 14.9313H66.1737V16.0391H65.8502V14.9313Z" fill="white"/>
<path fill-rule="evenodd" clip-rule="evenodd" d="M68.9678 14.0584H69.3011V16.0387H68.9678V14.0584ZM68.1443 14.0584H68.4678V16.0387H68.1443V14.0584ZM63.7524 14.8426V15.176H61.9878V14.8525L63.7524 14.8426ZM67.6051 14.8426V15.176H65.8405V14.8525L67.6051 14.8426Z" fill="white"/>
<path fill-rule="evenodd" clip-rule="evenodd" d="M65.8502 14.9313H66.1737V16.0391H65.8502V14.9313Z" fill="white"/>
<path fill-rule="evenodd" clip-rule="evenodd" d="M65.8502 14.9313H66.1737V16.0391H65.8502V14.9313Z" fill="white"/>
<path fill-rule="evenodd" clip-rule="evenodd" d="M65.8501 14.9313H66.1736V16.0391H65.8501V14.9313ZM61.9973 14.9313H62.3208V16.0391H61.9973V14.9313ZM64.8207 14.9313H65.154V16.0391H64.8207V14.9313ZM63.4188 14.9313H63.7521V16.0391H63.4188V14.9313Z" fill="white"/>
<path fill-rule="evenodd" clip-rule="evenodd" d="M65.0463 15.7051V16.0384H63.5659V15.7051H65.0463ZM65.1443 14.8522V15.1757H64.2032V14.8522H65.1443Z" fill="white"/>
<path fill-rule="evenodd" clip-rule="evenodd" d="M1.97095 33.2834H2.55916V34.3127H1.97095V33.2834ZM17.7055 33.2834H18.2937V34.3127H17.7055V33.2834ZM-10.1069 33.2834H-9.51868V34.3127H-10.1069V33.2834ZM-2.11708 33.2834H-1.52888V34.3127H-2.11708V33.2834ZM5.8139 33.2834H6.40211V34.3127H5.8139V33.2834ZM9.73528 33.2834H10.3235V34.3127H9.73528V33.2834ZM13.7449 33.2834H14.3331V34.3127H13.7449V33.2834ZM21.6269 33.2834H22.2151V34.3127H21.6269V33.2834ZM41.5278 33.2834H42.1258V34.3127H41.5376L41.5278 33.2834ZM25.6365 33.2834H26.2247V34.3127H25.6365V33.2834ZM29.5578 33.2834H30.146V34.3127H29.5578V33.2834ZM33.5282 33.2834H34.1164V34.3127H33.5282V33.2834ZM37.4888 33.2834H38.077V34.3127H37.4888V33.2834ZM69.1735 33.2834H69.7617V34.3127H69.1735V33.2834ZM45.3806 33.2834H45.9688V34.3127H45.3806V33.2834ZM49.3804 33.2834H49.9686V34.3127H49.3804V33.2834ZM53.4292 33.2834H54.0174V34.3127H53.4292V33.2834ZM57.233 33.2834H57.8212V34.3127H57.233V33.2834ZM61.2818 33.2834H61.87V34.3127H61.2818V33.2834ZM65.2424 33.2834H65.8306V34.3127H65.2424V33.2834ZM76.9771 33.2834H77.5653V34.3127H76.9771V33.2834ZM73.1733 33.2834H73.7616V34.3127H73.1733V33.2834ZM-6.12669 33.2834H-5.53848V34.3127H-6.12669V33.2834Z" fill="#D90000"/>
<path fill-rule="evenodd" clip-rule="evenodd" d="M1.97095 15.9404H2.55916V16.9698H1.97095V15.9404ZM17.7055 15.9404H18.2937V16.9698H17.7055V15.9404ZM-10.1069 15.9404H-9.51868V16.9698H-10.1069V15.9404ZM-2.11708 15.9404H-1.52888V16.9698H-2.11708V15.9404ZM5.8139 15.9404H6.40211V16.9698H5.8139V15.9404ZM9.73528 15.9404H10.3235V16.9698H9.73528V15.9404ZM13.7449 15.9404H14.3331V16.9698H13.7449V15.9404ZM21.6269 15.9404H22.2151V16.9698H21.6269V15.9404ZM41.5278 15.9404H42.1258V16.9698H41.5376L41.5278 15.9404ZM25.6365 15.9404H26.2247V16.9698H25.6365V15.9404ZM29.5578 15.9404H30.146V16.9698H29.5578V15.9404ZM33.5282 15.9404H34.1164V16.9698H33.5282V15.9404ZM37.4888 15.9404H38.077V16.9698H37.4888V15.9404ZM69.1735 15.9404H69.7617V16.9698H69.1735V15.9404ZM45.3806 15.9404H45.9688V16.9698H45.3806V15.9404ZM49.3804 15.9404H49.9686V16.9698H49.3804V15.9404ZM53.4292 15.9404H54.0174V16.9698H53.4292V15.9404ZM57.233 15.9404H57.8212V16.9698H57.233V15.9404ZM61.2818 15.9404H61.87V16.9698H61.2818V15.9404ZM65.2424 15.9404H65.8306V16.9698H65.2424V15.9404ZM76.9771 15.9404H77.5653V16.9698H76.9771V15.9404ZM73.1733 15.9404H73.7616V16.9698H73.1733V15.9404ZM-6.12669 15.9404H-5.53848V16.9698H-6.12669V15.9404Z" fill="#239E3F"/>
<path fill-rule="evenodd" clip-rule="evenodd" d="M36.1458 19.362C36.9693 20.3815 39.528 25.9891 34.6067 29.6752C32.2833 31.4202 33.7244 31.4986 33.793 31.7927C37.5183 29.8222 38.7241 27.1361 38.6947 24.7343C38.6751 22.3422 37.4007 20.2247 36.1458 19.362Z" fill="#DA0000"/>
<path fill-rule="evenodd" clip-rule="evenodd" d="M36.6359 19.0974C37.5455 19.6509 38.3207 20.3996 38.9055 21.2893C39.4903 22.1791 39.8701 23.1876 40.0174 24.2421C40.1647 25.2966 40.0758 26.3707 39.7572 27.3866C39.4386 28.4026 38.8982 29.335 38.1751 30.1165C40.8416 29.5283 44.2532 21.6463 36.6359 19.0974V19.0974ZM30.9892 19.0974C30.0803 19.6517 29.306 20.401 28.7221 21.2912C28.1382 22.1813 27.7594 23.1901 27.6131 24.2445C27.4667 25.299 27.5565 26.3728 27.8759 27.3883C28.1953 28.4038 28.7363 29.3356 29.4598 30.1165C26.7835 29.5283 23.3817 21.6463 30.9892 19.0974V19.0974Z" fill="#DA0000"/>
<path fill-rule="evenodd" clip-rule="evenodd" d="M31.4791 19.362C30.6556 20.3815 28.0969 25.9891 33.0183 29.6752C35.3319 31.4202 33.9006 31.4986 33.832 31.7927C30.1067 29.8222 28.9008 27.1361 28.9302 24.7343C28.9498 22.3422 30.2243 20.2247 31.4791 19.362Z" fill="#DA0000"/>
<path fill-rule="evenodd" clip-rule="evenodd" d="M38.538 31.2832C37.0773 31.3028 35.244 31.0871 33.8813 30.3714C34.1068 30.8126 34.2931 31.0871 34.5186 31.5185C35.8126 31.6459 37.6066 31.7929 38.538 31.2832ZM29.2247 31.2832C30.6854 31.3028 32.5187 31.0871 33.8813 30.3714C33.6559 30.8126 33.4696 31.0871 33.2441 31.5185C31.9501 31.6459 30.156 31.7929 29.2247 31.2832ZM31.901 17.6858C32.1951 18.4701 32.9696 18.5877 33.7931 18.127C34.4009 18.4799 35.3322 18.5093 35.6558 17.725C35.9008 19.6661 33.8617 19.1955 33.7931 18.823C33.0284 19.5583 31.6167 19.1367 31.901 17.6858Z" fill="#DA0000"/>
<path fill-rule="evenodd" clip-rule="evenodd" d="M33.8517 32.5085L34.6164 31.6262L34.7242 19.8522L33.8125 19.0483L32.9008 19.813L33.0871 31.6752L33.8517 32.5085Z" fill="#DA0000"/>
</g>
<defs>
<clipPath id="clip0_237_797">
<rect width="66.9248" height="50.1936" fill="white" transform="translate(0.350098)"/>
</clipPath>
</defs>
</svg>
