<svg width="68" height="51" viewBox="0 0 68 51" fill="none" xmlns="http://www.w3.org/2000/svg">
<g clip-path="url(#clip0_237_2027)">
<path d="M26.9568 -9.53674e-06H67.1117V50.1936H26.9568V-9.53674e-06Z" fill="#FF0000"/>
<path d="M0.187012 0H26.9569V50.1936H0.187012V0Z" fill="#006600"/>
<path fill-rule="evenodd" clip-rule="evenodd" d="M35.6889 32.0193C32.3113 31.9147 16.8663 22.2733 16.7617 20.7257L17.6087 19.314C19.1459 21.5413 34.936 30.9213 36.4941 30.5867L35.6889 32.0193Z" fill="#FFFF00" stroke="black" stroke-width="0.062742" stroke-linecap="round" stroke-linejoin="round"/>
<path fill-rule="evenodd" clip-rule="evenodd" d="M17.4312 19.1154C17.1279 19.9311 21.4676 22.6081 26.6752 25.787C31.8932 28.9555 36.3897 30.9109 36.7139 30.6391L36.8707 30.3463C36.808 30.4508 36.6616 30.4822 36.4211 30.409C35.0094 30.0012 31.339 28.3176 26.7902 25.557C22.2309 22.7963 18.2782 20.2553 17.6612 19.1782C17.6131 19.0772 17.5915 18.9657 17.5985 18.854H17.5776L17.4521 19.0841L17.4312 19.1154V19.1154ZM35.7623 32.0612C35.71 32.1658 35.595 32.1658 35.3963 32.1449C34.1415 32.0089 30.3142 30.1476 25.7863 27.4392C20.516 24.2812 16.1659 21.416 16.6469 20.6631L16.7724 20.433L16.7933 20.4435C16.375 21.7192 25.3785 26.8641 25.9118 27.1987C31.1194 30.4195 35.5113 32.3122 35.8982 31.8207L35.7623 32.0612V32.0612Z" fill="#FFFF00" stroke="black" stroke-width="0.062742" stroke-linecap="round" stroke-linejoin="round"/>
<path fill-rule="evenodd" clip-rule="evenodd" d="M26.9783 21.6668C30.3455 21.6354 34.5074 21.2067 36.9125 20.2446L36.3896 19.4081C34.978 20.1924 30.7951 20.7152 26.947 20.7884C22.4086 20.7466 19.1983 20.3178 17.588 19.2408L17.1069 20.1401C20.0558 21.3949 23.0883 21.6563 26.9783 21.6668" fill="#FFFF00"/>
<path d="M26.9783 21.6668C30.3455 21.6354 34.5074 21.2067 36.9125 20.2446L36.3896 19.4081C34.978 20.1924 30.7951 20.7152 26.947 20.7884C22.4086 20.7466 19.1983 20.3178 17.588 19.2408L17.1069 20.1401C20.0558 21.3949 23.0883 21.6563 26.9783 21.6668" stroke="black" stroke-width="0.062742" stroke-linecap="round" stroke-linejoin="round"/>
<path fill-rule="evenodd" clip-rule="evenodd" d="M37.0485 20.2655C36.9648 20.4014 35.3963 20.9347 33.0958 21.3321C31.0678 21.6394 29.0191 21.7897 26.9679 21.7817C25.0028 21.7891 23.0393 21.6633 21.0911 21.4053C18.6755 21.0288 17.4312 20.506 16.9606 20.3177L17.0756 20.0877C18.4037 20.6105 19.6585 20.9242 21.1225 21.1543C23.0565 21.4154 25.006 21.5447 26.9575 21.5412C28.998 21.5433 31.0358 21.393 33.0539 21.0916C35.4067 20.7046 36.693 20.2132 36.8812 19.9936L37.0485 20.2759V20.2655ZM36.5884 19.4184C36.3374 19.6276 35.0617 20.0772 32.8239 20.4328C30.8915 20.7123 28.9414 20.8521 26.9889 20.851C24.6883 20.851 22.7956 20.6837 21.363 20.4746C19.0834 20.1818 17.8704 19.638 17.4312 19.4916L17.5671 19.2616C17.9122 19.4393 19.0729 19.9099 21.3839 20.2341C23.2417 20.4829 25.1145 20.6017 26.9889 20.5896C28.9275 20.5902 30.8636 20.4504 32.782 20.1713C35.0303 19.8576 36.2433 19.293 36.4315 19.1466L36.5884 19.4184V19.4184ZM15.9044 25.724C17.9749 26.8429 22.5865 27.3971 26.947 27.439C30.9207 27.4494 36.0865 26.8325 38.021 25.8077L37.9687 24.6888C37.3622 25.6299 31.82 26.5397 26.9052 26.5083C21.9904 26.4665 17.4207 25.7136 15.894 24.7306V25.724" fill="#FFFF00"/>
<path d="M15.9044 25.724C17.9749 26.8429 22.5865 27.3971 26.947 27.439C30.9207 27.4494 36.0865 26.8325 38.021 25.8077L37.9687 24.6888C37.3622 25.6299 31.82 26.5397 26.9052 26.5083C21.9904 26.4665 17.4207 25.7136 15.894 24.7306V25.724M37.0485 20.2655C36.9648 20.4014 35.3963 20.9347 33.0958 21.3321C31.0678 21.6394 29.0191 21.7897 26.9679 21.7817C25.0028 21.7891 23.0393 21.6633 21.0911 21.4053C18.6755 21.0288 17.4312 20.506 16.9606 20.3177L17.0756 20.0877C18.4037 20.6105 19.6585 20.9242 21.1225 21.1543C23.0565 21.4154 25.006 21.5447 26.9575 21.5412C28.998 21.5433 31.0358 21.393 33.0539 21.0916C35.4067 20.7046 36.693 20.2132 36.8812 19.9936L37.0485 20.2759V20.2655ZM36.5884 19.4184C36.3374 19.6276 35.0617 20.0772 32.8239 20.4328C30.8915 20.7123 28.9414 20.8521 26.9889 20.851C24.6883 20.851 22.7956 20.6837 21.363 20.4746C19.0834 20.1818 17.8704 19.638 17.4312 19.4916L17.5671 19.2616C17.9122 19.4393 19.0729 19.9099 21.3839 20.2341C23.2417 20.4829 25.1145 20.6017 26.9889 20.5896C28.9275 20.5902 30.8636 20.4504 32.782 20.1713C35.0303 19.8576 36.2433 19.293 36.4315 19.1466L36.5884 19.4184V19.4184Z" stroke="black" stroke-width="0.062742" stroke-linecap="round" stroke-linejoin="round"/>
<path fill-rule="evenodd" clip-rule="evenodd" d="M38.1256 25.5673V25.8287C37.8328 26.1843 36.0133 26.7071 33.7337 27.0836C31.4689 27.4091 29.1828 27.5629 26.8948 27.5437C24.7253 27.5621 22.5576 27.4118 20.4115 27.094C18.81 26.909 17.2452 26.486 15.7686 25.8392V25.5359C16.7829 26.2052 19.5226 26.7071 20.4428 26.8535C22.095 27.1045 24.2178 27.2927 26.8948 27.2927C29.7077 27.2927 31.956 27.094 33.6919 26.8326C35.3336 26.5921 37.6655 25.9751 38.1256 25.5673V25.5673ZM38.1256 24.6262V24.8876C37.8328 25.2327 36.0133 25.7555 33.7337 26.132C31.4692 26.461 29.183 26.6183 26.8948 26.6025C24.7255 26.6153 22.5583 26.465 20.4115 26.1529C18.81 25.9678 17.2452 25.5449 15.7686 24.898V24.5843C16.7829 25.264 19.5331 25.7555 20.4428 25.9019C22.579 26.2148 24.7359 26.3651 26.8948 26.3516C29.7077 26.3516 31.9665 26.1424 33.6919 25.881C35.3336 25.6509 37.6655 25.034 38.1256 24.6262V24.6262ZM26.9366 31.8206C22.1682 31.7997 18.0796 30.5239 17.2116 30.3148L17.839 31.2977C20.7721 32.3365 23.8672 32.843 26.9785 32.7931C30.607 32.6885 33.7755 32.4062 36.0029 31.3186L36.6512 30.2939C35.1349 31.0154 29.9587 31.8206 26.9262 31.8206" fill="#FFFF00"/>
<path d="M26.9366 31.8206C22.1682 31.7997 18.0796 30.5239 17.2116 30.3148L17.839 31.2977C20.7721 32.3365 23.8672 32.843 26.9785 32.7931C30.607 32.6885 33.7755 32.4062 36.0029 31.3186L36.6512 30.2939C35.1349 31.0154 29.9587 31.8206 26.9262 31.8206M38.1256 25.5673V25.8287C37.8328 26.1843 36.0133 26.7071 33.7337 27.0836C31.4689 27.4091 29.1828 27.5629 26.8948 27.5437C24.7253 27.5621 22.5576 27.4118 20.4115 27.094C18.81 26.909 17.2452 26.486 15.7686 25.8392V25.5359C16.7829 26.2052 19.5226 26.7071 20.4428 26.8535C22.095 27.1045 24.2178 27.2927 26.8948 27.2927C29.7077 27.2927 31.956 27.094 33.6919 26.8326C35.3336 26.5921 37.6655 25.9751 38.1256 25.5673V25.5673ZM38.1256 24.6262V24.8876C37.8328 25.2327 36.0133 25.7555 33.7337 26.132C31.4692 26.461 29.183 26.6183 26.8948 26.6025C24.7255 26.6153 22.5583 26.465 20.4115 26.1529C18.81 25.9678 17.2452 25.5449 15.7686 24.898V24.5843C16.7829 25.264 19.5331 25.7555 20.4428 25.9019C22.579 26.2148 24.7359 26.3651 26.8948 26.3516C29.7077 26.3516 31.9665 26.1424 33.6919 25.881C35.3336 25.6509 37.6655 25.034 38.1256 24.6262V24.6262Z" stroke="black" stroke-width="0.062742" stroke-linecap="round" stroke-linejoin="round"/>
<path fill-rule="evenodd" clip-rule="evenodd" d="M36.2537 31.0887C36.1585 31.2298 36.0609 31.3692 35.961 31.507C34.9152 31.8834 33.2421 32.2808 32.552 32.3853C30.7 32.7304 28.8204 32.9054 26.9366 32.9082C22.7119 32.8455 19.2507 32.0194 17.6298 31.3083L17.4939 31.0887L17.5148 31.0468L17.7344 31.141C20.7105 32.1258 23.8227 32.6375 26.9575 32.6572C28.9234 32.6572 30.8788 32.4376 32.4579 32.1553C34.8839 31.6638 35.8668 31.2978 36.1701 31.1305L36.2433 31.0887H36.2537ZM36.808 30.1685C36.7391 30.2909 36.6694 30.4129 36.5988 30.5345C36.0341 30.7436 34.5074 31.1828 32.2801 31.4965C30.8161 31.6952 29.9063 31.8939 26.9888 31.9462C23.6537 31.9127 20.3391 31.42 17.1383 30.4822L17.0233 30.2207C20.2753 31.1195 23.6262 31.6113 26.9993 31.6847C29.6658 31.6324 30.8056 31.4338 32.2592 31.2351C34.8525 30.8377 36.1596 30.3985 36.5465 30.2835C36.5468 30.2765 36.5468 30.2695 36.5465 30.2626L36.8184 30.158L36.808 30.1685Z" fill="#FFFF00" stroke="black" stroke-width="0.062742" stroke-linecap="round" stroke-linejoin="round"/>
<path fill-rule="evenodd" clip-rule="evenodd" d="M36.8707 24.8455C36.8812 27.9826 35.2708 30.806 33.9846 32.0399C32.0849 33.8927 29.548 34.9479 26.8948 34.9888C23.7263 35.0411 20.746 32.9811 19.9409 32.0713C18.1396 30.1611 17.1144 27.6484 17.0652 25.0233C17.2534 21.5934 18.6024 19.2092 20.5474 17.5674C22.4368 16.012 24.8136 15.1716 27.2608 15.1937C28.6893 15.263 30.0876 15.6299 31.3662 16.2709C32.6447 16.912 33.7752 17.8131 34.6852 18.9164C35.9924 20.5059 36.5675 22.2313 36.8707 24.8455V24.8455ZM26.9157 14.1166C29.841 14.1165 32.6478 15.2729 34.7241 17.3335C36.8005 19.3942 37.978 22.1921 38.0001 25.1174C38.0001 26.5689 37.7142 28.0062 37.1587 29.3472C36.6033 30.6882 35.7891 31.9067 34.7627 32.9331C33.7364 33.9595 32.5179 34.7736 31.1769 35.3291C29.8359 35.8845 28.3986 36.1704 26.9471 36.1704C25.4955 36.1704 24.0582 35.8845 22.7172 35.3291C21.3762 34.7736 20.1577 33.9595 19.1314 32.9331C18.105 31.9067 17.2908 30.6882 16.7354 29.3472C16.1799 28.0062 15.894 26.5689 15.894 25.1174C15.8835 19.0523 20.8402 14.1166 26.9157 14.1166" fill="#FFFF00"/>
<path d="M26.9157 14.1166C29.841 14.1165 32.6478 15.2729 34.7241 17.3335C36.8005 19.3942 37.978 22.1921 38.0001 25.1174C38.0001 26.5689 37.7142 28.0062 37.1587 29.3472C36.6033 30.6882 35.7891 31.9067 34.7627 32.9331C33.7364 33.9595 32.5179 34.7736 31.1769 35.3291C29.8359 35.8845 28.3986 36.1704 26.9471 36.1704C25.4955 36.1704 24.0582 35.8845 22.7172 35.3291C21.3762 34.7736 20.1577 33.9595 19.1314 32.9331C18.105 31.9067 17.2908 30.6882 16.7354 29.3472C16.1799 28.0062 15.894 26.5689 15.894 25.1174C15.8835 19.0523 20.8402 14.1166 26.9157 14.1166M36.8707 24.8455C36.8812 27.9826 35.2708 30.806 33.9846 32.0399C32.0849 33.8927 29.548 34.9479 26.8948 34.9888C23.7263 35.0411 20.746 32.9811 19.9409 32.0713C18.1396 30.1611 17.1144 27.6484 17.0652 25.0233C17.2534 21.5934 18.6024 19.2092 20.5474 17.5674C22.4368 16.012 24.8136 15.1716 27.2608 15.1937C28.6893 15.263 30.0876 15.6299 31.3662 16.2709C32.6447 16.912 33.7752 17.8131 34.6852 18.9164C35.9924 20.5059 36.5675 22.2313 36.8707 24.8455V24.8455Z" stroke="black" stroke-width="0.062742" stroke-linecap="round" stroke-linejoin="round"/>
<path fill-rule="evenodd" clip-rule="evenodd" d="M26.9466 14.0647C33.0326 14.0647 37.9892 19.0213 37.9892 25.1073C37.9892 31.1932 33.0326 36.1499 26.9571 36.1499C20.8816 36.1499 15.9145 31.1932 15.9145 25.1073C15.9145 19.0213 20.8711 14.0647 26.9571 14.0647H26.9466ZM16.1445 25.0968C16.1445 31.0364 21.028 35.8989 26.9466 35.8989C32.8653 35.8989 37.7487 31.0364 37.7487 25.0968C37.7487 19.1572 32.8653 14.2947 26.9466 14.2947C21.028 14.2947 16.1445 19.1572 16.1445 25.0968Z" fill="#FFFF00" stroke="black" stroke-width="0.062742" stroke-linecap="round" stroke-linejoin="round"/>
<path fill-rule="evenodd" clip-rule="evenodd" d="M26.9576 14.9847C29.6369 14.993 32.2041 16.061 34.0986 17.9555C35.9932 19.8501 37.0612 22.4173 37.0695 25.0966C37.0612 27.7769 35.9935 30.3452 34.0993 32.2414C32.205 34.1376 29.6378 35.208 26.9576 35.219C21.4154 35.219 16.8456 30.6597 16.8456 25.0966C16.8567 22.4182 17.9255 19.8525 19.8195 17.9586C21.7135 16.0646 24.2791 14.9957 26.9576 14.9847V14.9847ZM17.0862 25.0966C17.0862 30.5343 21.5408 34.968 26.9576 34.968C32.3743 34.968 36.829 30.5238 36.829 25.0966C36.829 19.659 32.3743 15.2252 26.9576 15.2252C24.3429 15.2362 21.8385 16.2798 19.9896 18.1286C18.1407 19.9775 17.0972 22.4819 17.0862 25.0966V25.0966Z" fill="#FFFF00" stroke="black" stroke-width="0.062742" stroke-linecap="round" stroke-linejoin="round"/>
<path fill-rule="evenodd" clip-rule="evenodd" d="M27.4073 14.0125H26.4557V36.2127H27.3968L27.4073 14.0125Z" fill="#FFFF00" stroke="black" stroke-width="0.062742" stroke-linecap="round" stroke-linejoin="round"/>
<path fill-rule="evenodd" clip-rule="evenodd" d="M27.3024 13.887H27.5429V36.3382H27.3129V13.887H27.3024ZM26.3613 13.887H26.6122V36.3382H26.3717V13.887H26.3613Z" fill="#FFFF00" stroke="black" stroke-width="0.062742" stroke-linecap="round" stroke-linejoin="round"/>
<path fill-rule="evenodd" clip-rule="evenodd" d="M38 25.536V24.7203L37.3308 24.0929L33.5349 23.089L28.0763 22.5348L21.4884 22.8694L16.8037 23.9779L15.8625 24.6785V25.5046L18.2572 24.4275L23.9458 23.5387H29.4148L33.4303 23.9779L36.2119 24.6471L38 25.536Z" fill="#FFFF00" stroke="black" stroke-width="0.062742" stroke-linecap="round" stroke-linejoin="round"/>
<path fill-rule="evenodd" clip-rule="evenodd" d="M26.9575 23.403C29.5613 23.403 32.0815 23.6435 34.0997 24.0304C36.1702 24.4487 37.6237 24.9715 38.1256 25.5467V25.8395C37.5191 25.1075 35.5637 24.5846 34.0474 24.2709C32.0606 23.8944 29.5509 23.6435 26.9471 23.6435C24.2178 23.6435 21.6663 23.9154 19.7004 24.2918C18.1318 24.6055 16.03 25.2329 15.7686 25.8395V25.5362C15.9045 25.1179 17.473 24.4905 19.669 24.0408C21.6454 23.6539 24.1969 23.403 26.9471 23.403H26.9575ZM26.9575 22.4514C29.3522 22.4466 31.7425 22.6566 34.0997 23.0788C36.1702 23.4971 37.6237 24.0199 38.1256 24.6055V24.8879C37.5191 24.1663 35.5637 23.633 34.0474 23.3298C32.0606 22.9429 29.5509 22.7024 26.9471 22.7024C24.5202 22.6947 22.0977 22.9117 19.7108 23.3507C18.1946 23.633 16.0091 24.2814 15.7686 24.8879V24.5951C15.915 24.1768 17.5044 23.518 19.669 23.0997C21.6558 22.7128 24.1969 22.4514 26.9575 22.4514V22.4514ZM26.8948 17.6202C31.0044 17.5993 34.5912 18.1954 36.2329 19.0319L36.829 20.0776C35.4068 19.3038 31.5377 18.5091 26.9053 18.6137C23.1303 18.645 19.0939 19.0319 17.0757 20.1195L17.7868 18.9274C19.4494 18.0594 23.3603 17.6202 26.8948 17.6202" fill="#FFFF00"/>
<path d="M26.8948 17.6202C31.0044 17.5993 34.5912 18.1954 36.2329 19.0319L36.829 20.0776C35.4068 19.3038 31.5377 18.5091 26.9053 18.6137C23.1303 18.645 19.0939 19.0319 17.0757 20.1195L17.7868 18.9274C19.4494 18.0594 23.3603 17.6202 26.8948 17.6202M26.9575 23.403C29.5613 23.403 32.0815 23.6435 34.0997 24.0304C36.1702 24.4487 37.6237 24.9715 38.1256 25.5467V25.8395C37.5191 25.1075 35.5637 24.5846 34.0474 24.2709C32.0606 23.8944 29.5509 23.6435 26.9471 23.6435C24.2178 23.6435 21.6663 23.9154 19.7004 24.2918C18.1318 24.6055 16.03 25.2329 15.7686 25.8395V25.5362C15.9045 25.1179 17.473 24.4905 19.669 24.0408C21.6454 23.6539 24.1969 23.403 26.9471 23.403H26.9575ZM26.9575 22.4514C29.3522 22.4466 31.7425 22.6566 34.0997 23.0788C36.1702 23.4971 37.6237 24.0199 38.1256 24.6055V24.8879C37.5191 24.1663 35.5637 23.633 34.0474 23.3298C32.0606 22.9429 29.5509 22.7024 26.9471 22.7024C24.5202 22.6947 22.0977 22.9117 19.7108 23.3507C18.1946 23.633 16.0091 24.2814 15.7686 24.8879V24.5951C15.915 24.1768 17.5044 23.518 19.669 23.0997C21.6558 22.7128 24.1969 22.4514 26.9575 22.4514V22.4514Z" stroke="black" stroke-width="0.062742" stroke-linecap="round" stroke-linejoin="round"/>
<path fill-rule="evenodd" clip-rule="evenodd" d="M26.9573 18.4773C29.103 18.4411 31.2478 18.5916 33.3674 18.927C35.0405 19.2407 36.6404 19.7008 36.8705 19.9517L37.0483 20.2655C36.494 19.9099 35.1033 19.5021 33.3256 19.1675C31.5479 18.8328 29.2787 18.7178 26.9468 18.7283C24.3012 18.7178 22.2412 18.8538 20.4844 19.1675C19.2734 19.3372 18.0976 19.7009 17.0022 20.2445L17.18 19.9204C17.8074 19.6067 18.7799 19.2198 20.4321 18.9165C22.2621 18.5819 24.343 18.4878 26.9573 18.4773V18.4773ZM26.9573 17.5362C29.1951 17.5153 31.4119 17.6407 33.1374 17.9545C34.2552 18.1204 35.337 18.474 36.3372 19.0002L36.5986 19.4184C36.1594 18.927 34.5072 18.4564 33.0328 18.2054C31.3178 17.9022 29.1951 17.7871 26.9573 17.7662C24.8741 17.7477 22.7931 17.9016 20.7353 18.2263C19.6594 18.3763 18.6144 18.6975 17.6401 19.1779L17.8701 18.8328C18.4766 18.5191 19.4596 18.2263 20.6935 17.9858C22.7648 17.6568 24.8601 17.5029 26.9573 17.5257V17.5362ZM32.4367 29.6977C30.6242 29.3839 28.7859 29.2438 26.9468 29.2794C20.0975 29.3631 17.891 30.6911 17.6192 31.0885L17.0963 30.2519C18.8531 28.9971 22.5758 28.286 26.9886 28.3487C29.2787 28.3905 31.2551 28.5474 32.9073 28.8716L32.4367 29.7081" fill="#FFFF00"/>
<path d="M32.4367 29.6977C30.6242 29.3839 28.7859 29.2438 26.9468 29.2794C20.0975 29.3631 17.891 30.6911 17.6192 31.0885L17.0963 30.2519C18.8531 28.9971 22.5758 28.286 26.9886 28.3487C29.2787 28.3905 31.2551 28.5474 32.9073 28.8716L32.4367 29.7081M26.9573 18.4773C29.103 18.4411 31.2478 18.5916 33.3674 18.927C35.0405 19.2407 36.6404 19.7008 36.8705 19.9517L37.0483 20.2655C36.494 19.9099 35.1033 19.5021 33.3256 19.1675C31.5479 18.8328 29.2787 18.7178 26.9468 18.7283C24.3012 18.7178 22.2412 18.8538 20.4844 19.1675C19.2734 19.3372 18.0976 19.7009 17.0022 20.2445L17.18 19.9204C17.8074 19.6067 18.7799 19.2198 20.4321 18.9165C22.2621 18.5819 24.343 18.4878 26.9573 18.4773V18.4773ZM26.9573 17.5362C29.1951 17.5153 31.4119 17.6407 33.1374 17.9545C34.2552 18.1204 35.337 18.474 36.3372 19.0002L36.5986 19.4184C36.1594 18.927 34.5072 18.4564 33.0328 18.2054C31.3178 17.9022 29.1951 17.7871 26.9573 17.7662C24.8741 17.7477 22.7931 17.9016 20.7353 18.2263C19.6594 18.3763 18.6144 18.6975 17.6401 19.1779L17.8701 18.8328C18.4766 18.5191 19.4596 18.2263 20.6935 17.9858C22.7648 17.6568 24.8601 17.5029 26.9573 17.5257V17.5362Z" stroke="black" stroke-width="0.062742" stroke-linecap="round" stroke-linejoin="round"/>
<path fill-rule="evenodd" clip-rule="evenodd" d="M26.9157 29.1644C28.8189 29.1958 30.6802 29.269 32.4893 29.6036L32.3638 29.8337C30.6907 29.52 28.8921 29.4154 26.9262 29.4154C24.3851 29.3945 21.8336 29.635 19.6063 30.2729C18.9057 30.4716 17.7449 30.9212 17.6194 31.2977L17.494 31.0885C17.5358 30.8585 18.226 30.3984 19.5435 30.0428C22.095 29.3108 24.4792 29.1749 26.9157 29.1644ZM26.9994 28.2024C29.0081 28.2004 31.0132 28.3753 32.9912 28.7253L32.8553 28.9658C30.9237 28.6114 28.9631 28.4399 26.9994 28.4534C24.4688 28.4534 21.7813 28.6416 19.3344 29.3527C18.5501 29.5827 17.1803 30.0847 17.1384 30.4716L17.0129 30.2415C17.0339 29.886 18.2155 29.4154 19.2821 29.1122C21.7395 28.3906 24.4374 28.2129 26.9994 28.2024V28.2024Z" fill="#FFFF00" stroke="black" stroke-width="0.062742" stroke-linecap="round" stroke-linejoin="round"/>
<path fill-rule="evenodd" clip-rule="evenodd" d="M36.7242 30.3776L35.9085 31.6638L33.5348 29.562L27.407 25.4315L20.4845 21.6356L16.8977 20.4121L17.6611 18.99L17.9225 18.854L20.1498 19.4082L27.5116 23.2041L31.7571 25.8811L35.3229 28.4431L36.7765 30.1162L36.7242 30.3776Z" fill="#FFFF00" stroke="black" stroke-width="0.062742" stroke-linecap="round" stroke-linejoin="round"/>
<path fill-rule="evenodd" clip-rule="evenodd" d="M16.7722 20.4438C17.3997 20.0256 22.0216 22.0751 26.8737 25.0031C31.6944 27.9311 36.3164 31.2355 35.8981 31.8524L35.7622 32.072L35.6994 32.1243C35.7099 32.1139 35.7831 32.0197 35.6994 31.8001C35.4903 31.1204 32.2068 28.5062 26.7796 25.2227C21.4779 22.0751 17.065 20.172 16.6363 20.7157L16.7722 20.4438V20.4438ZM36.8915 30.3675C37.2889 29.5728 33.0015 26.3416 27.6789 23.194C22.2412 20.1092 18.3094 18.2897 17.5879 18.8335L17.4415 19.1367C17.4415 19.1472 17.4415 19.1158 17.4833 19.0844C17.6088 18.9799 17.8284 18.9799 17.9225 18.9799C19.1564 19.0008 22.6804 20.6216 27.6266 23.4555C29.8017 24.7103 36.7869 29.2068 36.7556 30.4616C36.7556 30.5662 36.766 30.5871 36.7242 30.6499L36.902 30.378L36.8915 30.3675Z" fill="#FFFF00" stroke="black" stroke-width="0.062742" stroke-linecap="round" stroke-linejoin="round"/>
<path d="M20.3312 26.3273C20.3328 27.1931 20.5062 28.05 20.8413 28.8484C21.1763 29.6468 21.6664 30.3708 22.2832 30.9785C22.8924 31.5972 23.618 32.0891 24.4182 32.426C25.2184 32.7629 26.0774 32.9382 26.9456 32.9417C28.7028 32.9416 30.3879 32.2434 31.6304 31.0009C32.2449 30.3898 32.7327 29.6633 33.0658 28.8632C33.3989 28.0631 33.5706 27.2051 33.5712 26.3384V17.5043L20.3312 17.482V26.3273V26.3273Z" fill="white" stroke="black" stroke-width="0.0780792"/>
<path d="M20.5767 26.3385C20.579 27.1691 20.7458 27.9909 21.0674 28.7567C21.3891 29.5225 21.8591 30.217 22.4506 30.8002C23.6381 31.9939 25.2507 32.6678 26.9345 32.6741C28.6154 32.675 30.228 32.0091 31.4185 30.8225C32.0079 30.2384 32.4759 29.5435 32.7956 28.7777C33.1153 28.012 33.2804 27.1906 33.2813 26.3608V17.7721H20.599V26.3385M30.7493 20.3487V25.8031L30.7381 26.3719C30.7419 26.8703 30.645 27.3642 30.4534 27.8242C30.2617 28.2842 29.9792 28.7007 29.6227 29.049C28.9134 29.7607 27.9506 30.1619 26.9457 30.1644C25.8972 30.1644 24.9714 29.7182 24.2798 29.0266C23.5681 28.3173 23.1669 27.3545 23.1644 26.3496V20.3264L30.7493 20.3487Z" fill="#FF0000"/>
<path d="M20.5767 26.3385C20.579 27.1691 20.7458 27.9909 21.0674 28.7567C21.3891 29.5225 21.8591 30.217 22.4506 30.8002C23.6381 31.9939 25.2507 32.6678 26.9345 32.6741C28.6154 32.675 30.228 32.0091 31.4185 30.8225C32.0079 30.2384 32.4759 29.5435 32.7956 28.7777C33.1153 28.012 33.2804 27.1906 33.2813 26.3608V17.7721H20.599V26.3385M30.7493 20.3487V25.8031L30.7381 26.3719C30.7419 26.8703 30.645 27.3642 30.4534 27.8242C30.2617 28.2842 29.9792 28.7007 29.6227 29.049C28.9134 29.7607 27.9506 30.1619 26.9457 30.1644C25.8972 30.1644 24.9714 29.7182 24.2798 29.0266C23.5681 28.3173 23.1669 27.3545 23.1644 26.3496V20.3264L30.7493 20.3487Z" stroke="black" stroke-width="0.0557709"/>
<path d="M21.4017 20.0139C21.4129 19.4004 21.8479 19.2554 21.8479 19.2554C21.8591 19.2554 22.3275 19.4116 22.3275 20.0251H21.4017" fill="#FFFF00"/>
<path d="M21.0227 19.2666L20.9446 19.9693H21.4131C21.4131 19.3893 21.8593 19.3 21.8593 19.3C21.8704 19.3 22.3054 19.4227 22.3166 19.9693H22.7851L22.6958 19.2554H21.0227V19.2666ZM20.9112 19.9804H22.8074C22.8408 19.9804 22.8743 20.0139 22.8743 20.0585C22.8743 20.1143 22.8408 20.1477 22.8074 20.1477H20.9112C20.8777 20.1477 20.8442 20.1143 20.8442 20.0585C20.8442 20.0139 20.8777 19.9804 20.9223 19.9804H20.9112Z" fill="#FFFF00" stroke="black" stroke-width="0.0557709"/>
<path d="M21.602 19.9692C21.602 19.6011 21.8586 19.5007 21.8586 19.5007C21.8586 19.5007 22.1151 19.6123 22.1151 19.9692H21.602ZM20.9551 18.9653H22.7732C22.8067 18.9653 22.8402 19.0099 22.8402 19.0546C22.8402 19.088 22.8067 19.1215 22.7732 19.1215H20.9551C20.9216 19.1215 20.8882 19.088 20.8882 19.0434C20.8882 19.0099 20.9216 18.9765 20.9551 18.9765V18.9653ZM20.9997 19.1326H22.7175C22.7509 19.1326 22.7844 19.1661 22.7844 19.2107C22.7844 19.2553 22.7509 19.2888 22.7175 19.2888H20.9886C20.944 19.2888 20.9216 19.2553 20.9216 19.2107C20.9216 19.1661 20.944 19.1326 20.9886 19.1326H20.9997ZM21.5574 17.9503H21.6913V18.0395H21.7917V17.9503H21.9367V18.0507H22.0371V17.9391H22.1709V18.1622C22.1709 18.2068 22.1486 18.2291 22.1151 18.2291H21.6244C21.5909 18.2291 21.5574 18.2068 21.5574 18.1734V17.9503ZM22.0705 18.2514L22.104 18.9653H21.6244L21.6578 18.2403H22.0705" fill="#FFFF00"/>
<path d="M22.0705 18.2514L22.104 18.9653H21.6244L21.6578 18.2403H22.0705M21.602 19.9692C21.602 19.6011 21.8586 19.5007 21.8586 19.5007C21.8586 19.5007 22.1151 19.6123 22.1151 19.9692H21.602ZM20.9551 18.9653H22.7732C22.8067 18.9653 22.8402 19.0099 22.8402 19.0546C22.8402 19.088 22.8067 19.1215 22.7732 19.1215H20.9551C20.9216 19.1215 20.8882 19.088 20.8882 19.0434C20.8882 19.0099 20.9216 18.9765 20.9551 18.9765V18.9653ZM20.9997 19.1326H22.7175C22.7509 19.1326 22.7844 19.1661 22.7844 19.2107C22.7844 19.2553 22.7509 19.2888 22.7175 19.2888H20.9886C20.944 19.2888 20.9216 19.2553 20.9216 19.2107C20.9216 19.1661 20.944 19.1326 20.9886 19.1326H20.9997ZM21.5574 17.9503H21.6913V18.0395H21.7917V17.9503H21.9367V18.0507H22.0371V17.9391H22.1709V18.1622C22.1709 18.2068 22.1486 18.2291 22.1151 18.2291H21.6244C21.5909 18.2291 21.5574 18.2068 21.5574 18.1734V17.9503Z" stroke="black" stroke-width="0.0557709"/>
<path d="M21.4911 18.5864V18.9656H21.045V18.5864H21.4911Z" fill="#FFFF00" stroke="black" stroke-width="0.0557709"/>
<path d="M22.6733 18.5864V18.9656H22.2272V18.5864H22.6733Z" fill="#FFFF00" stroke="black" stroke-width="0.0557709"/>
<path d="M20.9668 18.2963H21.1006V18.4078H21.201V18.2963H21.3349V18.4078H21.4353V18.2963H21.5691V18.5194C21.5691 18.564 21.5468 18.5863 21.5134 18.5863H21.0337C21.016 18.5863 20.9989 18.5792 20.9864 18.5667C20.9738 18.5541 20.9668 18.5371 20.9668 18.5194V18.2963V18.2963Z" fill="#FFFF00" stroke="black" stroke-width="0.0557709"/>
<path d="M22.1493 18.2963H22.2831V18.4078H22.3835V18.2963H22.5174V18.4078H22.6178V18.2963H22.7516V18.5194C22.7516 18.564 22.7293 18.5863 22.6958 18.5863H22.2162C22.1985 18.5863 22.1814 18.5792 22.1689 18.5667C22.1563 18.5541 22.1493 18.5371 22.1493 18.5194V18.2963V18.2963Z" fill="#FFFF00" stroke="black" stroke-width="0.0557709"/>
<path d="M21.8141 18.4743C21.8141 18.4082 21.9133 18.4082 21.9133 18.4743V18.6505H21.8141V18.4743Z" fill="black"/>
<path d="M21.2234 18.7193C21.2234 18.6531 21.3117 18.6531 21.3117 18.7193V18.8518H21.2234V18.7193Z" fill="black"/>
<path d="M22.4054 18.7193C22.4054 18.6531 22.4937 18.6531 22.4937 18.7193V18.8518H22.4054V18.7193Z" fill="black"/>
<path d="M21.4017 25.1779C21.4128 24.5645 21.8478 24.4195 21.8478 24.4195C21.859 24.4195 22.3275 24.5756 22.3275 25.1891H21.4017" fill="#FFFF00"/>
<path d="M21.0226 24.4306L20.9446 25.1333H21.413C21.413 24.5533 21.8592 24.4641 21.8592 24.4641C21.8704 24.4641 22.3054 24.5868 22.3165 25.1333H22.785L22.6958 24.4195H21.0226V24.4306ZM20.9111 25.1445H22.8073C22.8408 25.1445 22.8742 25.1779 22.8742 25.2226C22.8742 25.2783 22.8408 25.3118 22.8073 25.3118H20.9111C20.8776 25.3118 20.8442 25.2783 20.8442 25.2226C20.8442 25.1779 20.8776 25.1445 20.9223 25.1445H20.9111Z" fill="#FFFF00" stroke="black" stroke-width="0.0557709"/>
<path d="M21.602 25.1334C21.602 24.7653 21.8585 24.665 21.8585 24.665C21.8585 24.665 22.1151 24.7765 22.1151 25.1334H21.602ZM20.955 24.1296H22.7732C22.8066 24.1296 22.8401 24.1742 22.8401 24.2188C22.8401 24.2523 22.8066 24.2857 22.7732 24.2857H20.955C20.9216 24.2857 20.8881 24.2523 20.8881 24.2076C20.8881 24.1742 20.9216 24.1407 20.955 24.1407V24.1296ZM20.9997 24.2969H22.7174C22.7509 24.2969 22.7843 24.3303 22.7843 24.3749C22.7843 24.4196 22.7509 24.453 22.7174 24.453H20.9885C20.9439 24.453 20.9216 24.4196 20.9216 24.3749C20.9216 24.3303 20.9439 24.2969 20.9885 24.2969H20.9997ZM21.5574 23.1145H21.6912V23.2038H21.7916V23.1145H21.9366V23.2149H22.037V23.1034H22.1709V23.3265C22.1709 23.3711 22.1485 23.3934 22.1151 23.3934H21.6243C21.5908 23.3934 21.5574 23.3711 21.5574 23.3376V23.1145ZM22.0705 23.4157L22.1039 24.1296H21.6243L21.6578 23.4045H22.0705" fill="#FFFF00"/>
<path d="M22.0705 23.4157L22.1039 24.1296H21.6243L21.6578 23.4045H22.0705M21.602 25.1334C21.602 24.7653 21.8585 24.665 21.8585 24.665C21.8585 24.665 22.1151 24.7765 22.1151 25.1334H21.602ZM20.955 24.1296H22.7732C22.8066 24.1296 22.8401 24.1742 22.8401 24.2188C22.8401 24.2523 22.8066 24.2857 22.7732 24.2857H20.955C20.9216 24.2857 20.8881 24.2523 20.8881 24.2076C20.8881 24.1742 20.9216 24.1407 20.955 24.1407V24.1296ZM20.9997 24.2969H22.7174C22.7509 24.2969 22.7843 24.3303 22.7843 24.3749C22.7843 24.4196 22.7509 24.453 22.7174 24.453H20.9885C20.9439 24.453 20.9216 24.4196 20.9216 24.3749C20.9216 24.3303 20.9439 24.2969 20.9885 24.2969H20.9997ZM21.5574 23.1145H21.6912V23.2038H21.7916V23.1145H21.9366V23.2149H22.037V23.1034H22.1709V23.3265C22.1709 23.3711 22.1485 23.3934 22.1151 23.3934H21.6243C21.5908 23.3934 21.5574 23.3711 21.5574 23.3376V23.1145Z" stroke="black" stroke-width="0.0557709"/>
<path d="M21.4911 23.7505V24.1297H21.0449V23.7505H21.4911Z" fill="#FFFF00" stroke="black" stroke-width="0.0557709"/>
<path d="M22.6733 23.7505V24.1297H22.2271V23.7505H22.6733Z" fill="#FFFF00" stroke="black" stroke-width="0.0557709"/>
<path d="M20.9667 23.4608H21.1006V23.5723H21.201V23.4608H21.3348V23.5723H21.4352V23.4608H21.5691V23.6839C21.5691 23.7285 21.5468 23.7508 21.5133 23.7508H21.0337C21.0159 23.7508 20.9989 23.7437 20.9863 23.7312C20.9738 23.7186 20.9667 23.7016 20.9667 23.6839V23.4608V23.4608Z" fill="#FFFF00" stroke="black" stroke-width="0.0557709"/>
<path d="M22.1492 23.4608H22.2831V23.5723H22.3835V23.4608H22.5173V23.5723H22.6177V23.4608H22.7516V23.6839C22.7516 23.7285 22.7292 23.7508 22.6958 23.7508H22.2162C22.1984 23.7508 22.1814 23.7437 22.1688 23.7312C22.1563 23.7186 22.1492 23.7016 22.1492 23.6839V23.4608V23.4608Z" fill="#FFFF00" stroke="black" stroke-width="0.0557709"/>
<path d="M21.8141 23.6383C21.8141 23.5722 21.9132 23.5722 21.9132 23.6383V23.8145H21.8141V23.6383Z" fill="black"/>
<path d="M21.2233 23.8841C21.2233 23.8178 21.3117 23.8178 21.3117 23.8841V24.0166H21.2233V23.8841Z" fill="black"/>
<path d="M22.4053 23.8841C22.4053 23.8178 22.4937 23.8178 22.4937 23.8841V24.0166H22.4053V23.8841Z" fill="black"/>
<path d="M23.415 30.5607C22.9875 30.1205 23.1912 29.7096 23.1912 29.7096C23.199 29.7017 23.6399 29.4793 24.0752 29.9116L23.4229 30.5685" fill="#FFFF00"/>
<path d="M22.6175 30.3028L23.0611 30.8534L23.3912 30.5209C22.9796 30.1122 23.2307 29.7328 23.2307 29.7328C23.2386 29.7249 23.6322 29.5026 24.0278 29.8799L24.3579 29.5474L23.7885 29.1077L22.6096 30.2949L22.6175 30.3028ZM23.0454 30.885L24.3816 29.5395C24.4052 29.5157 24.4525 29.5156 24.4841 29.547C24.5237 29.5863 24.5239 29.6336 24.5003 29.6574L23.1642 31.0029C23.1406 31.0266 23.0933 31.0268 23.0537 30.9875C23.022 30.956 23.0219 30.9087 23.0533 30.877L23.0454 30.885Z" fill="#FFFF00" stroke="black" stroke-width="0.0557709"/>
<path d="M23.5245 30.387C23.2634 30.1277 23.3729 29.8749 23.3729 29.8749C23.3729 29.8749 23.6328 29.7714 23.8861 30.0229L23.5245 30.387ZM22.3564 30.1387L23.6375 28.8486C23.6611 28.8249 23.7163 28.8326 23.748 28.864C23.7717 28.8876 23.7719 28.9349 23.7483 28.9587L22.4672 30.2487C22.4436 30.2725 22.3963 30.2727 22.3646 30.2412C22.3409 30.2176 22.3407 30.1703 22.3643 30.1466L22.3564 30.1387ZM22.5065 30.2249L23.7169 29.0061C23.7405 28.9823 23.7878 28.9822 23.8195 29.0136C23.8511 29.0451 23.8513 29.0924 23.8277 29.1161L22.6095 30.3429C22.578 30.3746 22.5386 30.3668 22.5069 30.3354C22.4752 30.3039 22.4672 30.2645 22.4987 30.2329L22.5065 30.2249ZM22.0605 28.9961L22.1549 28.9011L22.2182 28.964L22.2889 28.8928L22.2256 28.8299L22.3278 28.727L22.399 28.7977L22.4697 28.7265L22.3906 28.6479L22.4849 28.5529L22.6432 28.7101C22.6749 28.7416 22.675 28.7731 22.6514 28.7968L22.3056 29.1451C22.282 29.1688 22.2426 29.1769 22.2188 29.1533L22.0605 28.9961ZM22.6358 28.8442L23.1659 29.3235L22.8279 29.6638L22.3371 29.1292L22.6279 28.8364" fill="#FFFF00"/>
<path d="M22.6358 28.8442L23.1659 29.3235L22.8279 29.6638L22.3371 29.1292L22.6279 28.8364M23.5245 30.387C23.2634 30.1277 23.3729 29.8749 23.3729 29.8749C23.3729 29.8749 23.6328 29.7714 23.8861 30.0229L23.5245 30.387ZM22.3564 30.1387L23.6375 28.8486C23.6611 28.8249 23.7163 28.8326 23.748 28.864C23.7717 28.8876 23.7719 28.9349 23.7483 28.9587L22.4672 30.2487C22.4436 30.2725 22.3963 30.2727 22.3646 30.2412C22.3409 30.2176 22.3407 30.1703 22.3643 30.1466L22.3564 30.1387ZM22.5065 30.2249L23.7169 29.0061C23.7405 28.9823 23.7878 28.9822 23.8195 29.0136C23.8511 29.0451 23.8513 29.0924 23.8277 29.1161L22.6095 30.3429C22.578 30.3746 22.5386 30.3668 22.5069 30.3354C22.4752 30.3039 22.4672 30.2645 22.4987 30.2329L22.5065 30.2249ZM22.0605 28.9961L22.1549 28.9011L22.2182 28.964L22.2889 28.8928L22.2256 28.8299L22.3278 28.727L22.399 28.7977L22.4697 28.7265L22.3906 28.6479L22.4849 28.5529L22.6432 28.7101C22.6749 28.7416 22.675 28.7731 22.6514 28.7968L22.3056 29.1451C22.282 29.1688 22.2426 29.1769 22.2188 29.1533L22.0605 28.9961Z" stroke="black" stroke-width="0.0557709"/>
<path d="M22.4647 29.4915L22.7338 29.7587L22.4194 30.0753L22.1503 29.8081L22.4647 29.4915Z" fill="#FFFF00" stroke="black" stroke-width="0.0557709"/>
<path d="M23.298 28.6524L23.5671 28.9196L23.2527 29.2362L22.9836 28.969L23.298 28.6524Z" fill="#FFFF00" stroke="black" stroke-width="0.0557709"/>
<path d="M21.8898 29.6591L21.9841 29.5641L22.0632 29.6427L22.134 29.5714L22.0548 29.4929L22.1491 29.3979L22.2283 29.4765L22.299 29.4052L22.2199 29.3266L22.3142 29.2317L22.4725 29.3889C22.5041 29.4203 22.5043 29.4518 22.4807 29.4756L22.1427 29.8159C22.1302 29.8285 22.1132 29.8356 22.0955 29.8357C22.0777 29.8357 22.0607 29.8288 22.0481 29.8163L21.8898 29.6591V29.6591Z" fill="#FFFF00" stroke="black" stroke-width="0.0557709"/>
<path d="M22.7229 28.8199L22.8172 28.7249L22.8964 28.8035L22.9671 28.7323L22.888 28.6537L22.9823 28.5587L23.0614 28.6373L23.1322 28.5661L23.053 28.4875L23.1473 28.3925L23.3056 28.5497C23.3373 28.5812 23.3374 28.6127 23.3138 28.6365L22.9758 28.9768C22.9633 28.9894 22.9463 28.9965 22.9286 28.9965C22.9108 28.9966 22.8938 28.9896 22.8812 28.9771L22.7229 28.8199V28.8199Z" fill="#FFFF00" stroke="black" stroke-width="0.0557709"/>
<path d="M22.6129 29.1827C22.566 29.1361 22.6358 29.0658 22.6827 29.1123L22.8078 29.2365L22.7379 29.3069L22.6129 29.1827Z" fill="black"/>
<path d="M22.3705 29.775C22.3235 29.7283 22.3858 29.6656 22.4328 29.7123L22.5268 29.8056L22.4645 29.8683L22.3705 29.775Z" fill="black"/>
<path d="M23.2038 28.9362C23.1568 28.8896 23.219 28.8269 23.266 28.8736L23.36 28.9669L23.2978 29.0296L23.2038 28.9362Z" fill="black"/>
<path d="M26.4995 20.0139C26.5106 19.4004 26.9456 19.2554 26.9456 19.2554C26.9568 19.2554 27.4252 19.4116 27.4252 20.0251H26.4995" fill="#FFFF00"/>
<path d="M26.1205 19.2666L26.0424 19.9693H26.5109C26.5109 19.3893 26.957 19.3 26.957 19.3C26.9682 19.3 27.4032 19.4227 27.4144 19.9693H27.8828L27.7936 19.2554H26.1205V19.2666ZM26.0089 19.9804H27.9052C27.9386 19.9804 27.9721 20.0139 27.9721 20.0585C27.9721 20.1143 27.9386 20.1477 27.9052 20.1477H26.0089C25.9755 20.1477 25.942 20.1143 25.942 20.0585C25.942 20.0139 25.9755 19.9804 26.0201 19.9804H26.0089Z" fill="#FFFF00" stroke="black" stroke-width="0.0557709"/>
<path d="M26.6996 19.9692C26.6996 19.6011 26.9562 19.5007 26.9562 19.5007C26.9562 19.5007 27.2127 19.6123 27.2127 19.9692H26.6996ZM26.0527 18.9653H27.8708C27.9043 18.9653 27.9378 19.0099 27.9378 19.0546C27.9378 19.088 27.9043 19.1215 27.8708 19.1215H26.0527C26.0192 19.1215 25.9858 19.088 25.9858 19.0434C25.9858 19.0099 26.0192 18.9765 26.0527 18.9765V18.9653ZM26.0973 19.1326H27.8151C27.8485 19.1326 27.882 19.1661 27.882 19.2107C27.882 19.2553 27.8485 19.2888 27.8151 19.2888H26.0862C26.0415 19.2888 26.0192 19.2553 26.0192 19.2107C26.0192 19.1661 26.0415 19.1326 26.0862 19.1326H26.0973ZM26.655 17.9503H26.7889V18.0395H26.8893V17.9503H27.0343V18.0507H27.1347V17.9391H27.2685V18.1622C27.2685 18.2068 27.2462 18.2291 27.2127 18.2291H26.722C26.6885 18.2291 26.655 18.2068 26.655 18.1734V17.9503ZM27.1681 18.2514L27.2016 18.9653H26.722L26.7554 18.2403H27.1681" fill="#FFFF00"/>
<path d="M27.1681 18.2514L27.2016 18.9653H26.722L26.7554 18.2403H27.1681M26.6996 19.9692C26.6996 19.6011 26.9562 19.5007 26.9562 19.5007C26.9562 19.5007 27.2127 19.6123 27.2127 19.9692H26.6996ZM26.0527 18.9653H27.8708C27.9043 18.9653 27.9378 19.0099 27.9378 19.0546C27.9378 19.088 27.9043 19.1215 27.8708 19.1215H26.0527C26.0192 19.1215 25.9858 19.088 25.9858 19.0434C25.9858 19.0099 26.0192 18.9765 26.0527 18.9765V18.9653ZM26.0973 19.1326H27.8151C27.8485 19.1326 27.882 19.1661 27.882 19.2107C27.882 19.2553 27.8485 19.2888 27.8151 19.2888H26.0862C26.0415 19.2888 26.0192 19.2553 26.0192 19.2107C26.0192 19.1661 26.0415 19.1326 26.0862 19.1326H26.0973ZM26.655 17.9503H26.7889V18.0395H26.8893V17.9503H27.0343V18.0507H27.1347V17.9391H27.2685V18.1622C27.2685 18.2068 27.2462 18.2291 27.2127 18.2291H26.722C26.6885 18.2291 26.655 18.2068 26.655 18.1734V17.9503Z" stroke="black" stroke-width="0.0557709"/>
<path d="M26.589 18.5864V18.9656H26.1428V18.5864H26.589Z" fill="#FFFF00" stroke="black" stroke-width="0.0557709"/>
<path d="M27.7713 18.5864V18.9656H27.3251V18.5864H27.7713Z" fill="#FFFF00" stroke="black" stroke-width="0.0557709"/>
<path d="M26.0645 18.2963H26.1984V18.4078H26.2988V18.2963H26.4326V18.4078H26.533V18.2963H26.6668V18.5194C26.6668 18.564 26.6445 18.5863 26.6111 18.5863H26.1314C26.1137 18.5863 26.0967 18.5792 26.0841 18.5667C26.0716 18.5541 26.0645 18.5371 26.0645 18.5194V18.2963V18.2963Z" fill="#FFFF00" stroke="black" stroke-width="0.0557709"/>
<path d="M27.2471 18.2963H27.381V18.4078H27.4814V18.2963H27.6152V18.4078H27.7156V18.2963H27.8495V18.5194C27.8495 18.564 27.8271 18.5863 27.7937 18.5863H27.3141C27.2963 18.5863 27.2793 18.5792 27.2667 18.5667C27.2542 18.5541 27.2471 18.5371 27.2471 18.5194V18.2963V18.2963Z" fill="#FFFF00" stroke="black" stroke-width="0.0557709"/>
<path d="M26.9122 18.4743C26.9122 18.4082 27.0114 18.4082 27.0114 18.4743V18.6505H26.9122V18.4743Z" fill="black"/>
<path d="M26.3209 18.7193C26.3209 18.6531 26.4092 18.6531 26.4092 18.7193V18.8518H26.3209V18.7193Z" fill="black"/>
<path d="M27.5033 18.7193C27.5033 18.6531 27.5916 18.6531 27.5916 18.7193V18.8518H27.5033V18.7193Z" fill="black"/>
<path d="M32.489 20.0139C32.4779 19.4004 32.0428 19.2554 32.0428 19.2554C32.0317 19.2554 31.5632 19.4116 31.5632 20.0251H32.489" fill="#FFFF00"/>
<path d="M32.8682 19.2666L32.9462 19.9693H32.4778C32.4778 19.3893 32.0316 19.3 32.0316 19.3C32.0204 19.3 31.5854 19.4227 31.5743 19.9693H31.1058L31.195 19.2554H32.8682V19.2666ZM32.9797 19.9804H31.0835C31.05 19.9804 31.0166 20.0139 31.0166 20.0585C31.0166 20.1143 31.05 20.1477 31.0835 20.1477H32.9797C33.0132 20.1477 33.0466 20.1143 33.0466 20.0585C33.0466 20.0139 33.0132 19.9804 32.9686 19.9804H32.9797Z" fill="#FFFF00" stroke="black" stroke-width="0.0557709"/>
<path d="M32.2887 19.9692C32.2887 19.6011 32.0322 19.5007 32.0322 19.5007C32.0322 19.5007 31.7756 19.6123 31.7756 19.9692H32.2887ZM32.9356 18.9653H31.1175C31.084 18.9653 31.0506 19.0099 31.0506 19.0546C31.0506 19.088 31.084 19.1215 31.1175 19.1215H32.9356C32.9691 19.1215 33.0026 19.088 33.0026 19.0434C33.0026 19.0099 32.9691 18.9765 32.9356 18.9765V18.9653ZM32.891 19.1326H31.1733C31.1398 19.1326 31.1064 19.1661 31.1064 19.2107C31.1064 19.2553 31.1398 19.2888 31.1733 19.2888H32.9022C32.9468 19.2888 32.9691 19.2553 32.9691 19.2107C32.9691 19.1661 32.9468 19.1326 32.9022 19.1326H32.891ZM32.3333 17.9503H32.1995V18.0395H32.0991V17.9503H31.9541V18.0507H31.8537V17.9391H31.7198V18.1622C31.7198 18.2068 31.7421 18.2291 31.7756 18.2291H32.2664C32.2999 18.2291 32.3333 18.2068 32.3333 18.1734V17.9503ZM31.8202 18.2514L31.7868 18.9653H32.2664L32.2329 18.2403H31.8202" fill="#FFFF00"/>
<path d="M31.8202 18.2514L31.7868 18.9653H32.2664L32.2329 18.2403H31.8202M32.2887 19.9692C32.2887 19.6011 32.0322 19.5007 32.0322 19.5007C32.0322 19.5007 31.7756 19.6123 31.7756 19.9692H32.2887ZM32.9356 18.9653H31.1175C31.084 18.9653 31.0506 19.0099 31.0506 19.0546C31.0506 19.088 31.084 19.1215 31.1175 19.1215H32.9356C32.9691 19.1215 33.0026 19.088 33.0026 19.0434C33.0026 19.0099 32.9691 18.9765 32.9356 18.9765V18.9653ZM32.891 19.1326H31.1733C31.1398 19.1326 31.1064 19.1661 31.1064 19.2107C31.1064 19.2553 31.1398 19.2888 31.1733 19.2888H32.9022C32.9468 19.2888 32.9691 19.2553 32.9691 19.2107C32.9691 19.1661 32.9468 19.1326 32.9022 19.1326H32.891ZM32.3333 17.9503H32.1995V18.0395H32.0991V17.9503H31.9541V18.0507H31.8537V17.9391H31.7198V18.1622C31.7198 18.2068 31.7421 18.2291 31.7756 18.2291H32.2664C32.2999 18.2291 32.3333 18.2068 32.3333 18.1734V17.9503Z" stroke="black" stroke-width="0.0557709"/>
<path d="M32.3996 18.5864V18.9656H32.8458V18.5864H32.3996Z" fill="#FFFF00" stroke="black" stroke-width="0.0557709"/>
<path d="M31.2172 18.5864V18.9656H31.6634V18.5864H31.2172Z" fill="#FFFF00" stroke="black" stroke-width="0.0557709"/>
<path d="M32.9242 18.2963H32.7903V18.4078H32.69V18.2963H32.5561V18.4078H32.4557V18.2963H32.3219V18.5194C32.3219 18.564 32.3442 18.5863 32.3776 18.5863H32.8573C32.875 18.5863 32.892 18.5792 32.9046 18.5667C32.9171 18.5541 32.9242 18.5371 32.9242 18.5194V18.2963V18.2963Z" fill="#FFFF00" stroke="black" stroke-width="0.0557709"/>
<path d="M31.7416 18.2963H31.6077V18.4078H31.5073V18.2963H31.3735V18.4078H31.2731V18.2963H31.1393V18.5194C31.1393 18.564 31.1616 18.5863 31.195 18.5863H31.6747C31.6924 18.5863 31.7094 18.5792 31.722 18.5667C31.7345 18.5541 31.7416 18.5371 31.7416 18.5194V18.2963V18.2963Z" fill="#FFFF00" stroke="black" stroke-width="0.0557709"/>
<path d="M32.0762 18.4743C32.0762 18.4082 31.9771 18.4082 31.9771 18.4743V18.6505H32.0762V18.4743Z" fill="black"/>
<path d="M32.6676 18.7193C32.6676 18.6531 32.5793 18.6531 32.5793 18.7193V18.8518H32.6676V18.7193Z" fill="black"/>
<path d="M31.485 18.7193C31.485 18.6531 31.3967 18.6531 31.3967 18.7193V18.8518H31.485V18.7193Z" fill="black"/>
<path d="M32.4885 25.1779C32.4773 24.5645 32.0423 24.4195 32.0423 24.4195C32.0311 24.4195 31.5627 24.5756 31.5627 25.1891H32.4885" fill="#FFFF00"/>
<path d="M32.8675 24.4306L32.9456 25.1333H32.4771C32.4771 24.5533 32.0309 24.4641 32.0309 24.4641C32.0198 24.4641 31.5848 24.5868 31.5736 25.1333H31.1051L31.1944 24.4195H32.8675V24.4306ZM32.979 25.1445H31.0828C31.0494 25.1445 31.0159 25.1779 31.0159 25.2226C31.0159 25.2783 31.0494 25.3118 31.0828 25.3118H32.979C33.0125 25.3118 33.046 25.2783 33.046 25.2226C33.046 25.1779 33.0125 25.1445 32.9679 25.1445H32.979Z" fill="#FFFF00" stroke="black" stroke-width="0.0557709"/>
<path d="M32.2881 25.1335C32.2881 24.7654 32.0316 24.665 32.0316 24.665C32.0316 24.665 31.7751 24.7766 31.7751 25.1335H32.2881ZM32.9351 24.1296H31.117C31.0835 24.1296 31.05 24.1742 31.05 24.2189C31.05 24.2523 31.0835 24.2858 31.117 24.2858H32.9351C32.9686 24.2858 33.002 24.2523 33.002 24.2077C33.002 24.1742 32.9686 24.1408 32.9351 24.1408V24.1296ZM32.8905 24.2969H31.1727C31.1393 24.2969 31.1058 24.3304 31.1058 24.375C31.1058 24.4196 31.1393 24.4531 31.1727 24.4531H32.9016C32.9462 24.4531 32.9686 24.4196 32.9686 24.375C32.9686 24.3304 32.9462 24.2969 32.9016 24.2969H32.8905ZM32.3328 23.1146H32.1989V23.2038H32.0985V23.1146H31.9535V23.215H31.8531V23.1034H31.7193V23.3265C31.7193 23.3711 31.7416 23.3934 31.7751 23.3934H32.2658C32.2993 23.3934 32.3328 23.3711 32.3328 23.3377V23.1146ZM31.8197 23.4157L31.7862 24.1296H32.2658L32.2324 23.4046H31.8197" fill="#FFFF00"/>
<path d="M31.8197 23.4157L31.7862 24.1296H32.2658L32.2324 23.4046H31.8197M32.2881 25.1335C32.2881 24.7654 32.0316 24.665 32.0316 24.665C32.0316 24.665 31.7751 24.7766 31.7751 25.1335H32.2881ZM32.9351 24.1296H31.117C31.0835 24.1296 31.05 24.1742 31.05 24.2189C31.05 24.2523 31.0835 24.2858 31.117 24.2858H32.9351C32.9686 24.2858 33.002 24.2523 33.002 24.2077C33.002 24.1742 32.9686 24.1408 32.9351 24.1408V24.1296ZM32.8905 24.2969H31.1727C31.1393 24.2969 31.1058 24.3304 31.1058 24.375C31.1058 24.4196 31.1393 24.4531 31.1727 24.4531H32.9016C32.9462 24.4531 32.9686 24.4196 32.9686 24.375C32.9686 24.3304 32.9462 24.2969 32.9016 24.2969H32.8905ZM32.3328 23.1146H32.1989V23.2038H32.0985V23.1146H31.9535V23.215H31.8531V23.1034H31.7193V23.3265C31.7193 23.3711 31.7416 23.3934 31.7751 23.3934H32.2658C32.2993 23.3934 32.3328 23.3711 32.3328 23.3377V23.1146Z" stroke="black" stroke-width="0.0557709"/>
<path d="M32.3991 23.7505V24.1297H32.8453V23.7505H32.3991Z" fill="#FFFF00" stroke="black" stroke-width="0.0557709"/>
<path d="M31.2167 23.7505V24.1297H31.6628V23.7505H31.2167Z" fill="#FFFF00" stroke="black" stroke-width="0.0557709"/>
<path d="M32.9237 23.4608H32.7899V23.5724H32.6895V23.4608H32.5556V23.5724H32.4552V23.4608H32.3214V23.6839C32.3214 23.7285 32.3437 23.7509 32.3772 23.7509H32.8568C32.8745 23.7509 32.8916 23.7438 32.9041 23.7313C32.9167 23.7187 32.9237 23.7017 32.9237 23.6839V23.4608V23.4608Z" fill="#FFFF00" stroke="black" stroke-width="0.0557709"/>
<path d="M31.741 23.4608H31.6072V23.5724H31.5068V23.4608H31.3729V23.5724H31.2726V23.4608H31.1387V23.6839C31.1387 23.7285 31.161 23.7509 31.1945 23.7509H31.6741C31.6919 23.7509 31.7089 23.7438 31.7214 23.7313C31.734 23.7187 31.741 23.7017 31.741 23.6839V23.4608V23.4608Z" fill="#FFFF00" stroke="black" stroke-width="0.0557709"/>
<path d="M32.0757 23.6383C32.0757 23.5722 31.9766 23.5722 31.9766 23.6383V23.8145H32.0757V23.6383Z" fill="black"/>
<path d="M32.6671 23.8841C32.6671 23.8179 32.5788 23.8179 32.5788 23.8841V24.0166H32.6671V23.8841Z" fill="black"/>
<path d="M31.4844 23.8841C31.4844 23.8179 31.3961 23.8179 31.3961 23.8841V24.0166H31.4844V23.8841Z" fill="black"/>
<path d="M30.4755 30.5607C30.903 30.1205 30.6993 29.7096 30.6993 29.7096C30.6915 29.7017 30.2506 29.4793 29.8153 29.9116L30.4676 30.5685" fill="#FFFF00"/>
<path d="M31.2736 30.3028L30.83 30.8533L30.4998 30.5209C30.9114 30.1122 30.6603 29.7328 30.6603 29.7328C30.6525 29.7248 30.2589 29.5026 29.8632 29.8798L29.5331 29.5474L30.1025 29.1077L31.2815 30.2949L31.2736 30.3028ZM30.8456 30.8849L29.5095 29.5395C29.4859 29.5157 29.4386 29.5155 29.4069 29.547C29.3673 29.5863 29.3672 29.6336 29.3908 29.6573L30.7269 31.0028C30.7505 31.0266 30.7978 31.0268 30.8374 30.9875C30.869 30.956 30.8692 30.9087 30.8378 30.877L30.8456 30.8849Z" fill="#FFFF00" stroke="black" stroke-width="0.0557709"/>
<path d="M30.366 30.387C30.6272 30.1276 30.5177 29.8748 30.5177 29.8748C30.5177 29.8748 30.2578 29.7714 30.0045 30.0229L30.366 30.387ZM31.5342 30.1386L30.2531 28.8485C30.2295 28.8248 30.1743 28.8325 30.1426 28.8639C30.1189 28.8875 30.1187 28.9348 30.1423 28.9586L31.4234 30.2487C31.447 30.2724 31.4943 30.2726 31.526 30.2411C31.5497 30.2176 31.5499 30.1702 31.5263 30.1465L31.5342 30.1386ZM31.384 30.2249L30.1737 29.006C30.1501 28.9823 30.1028 28.9821 30.0711 29.0135C30.0394 29.045 30.0393 29.0923 30.0629 29.1161L31.2811 30.3428C31.3125 30.3745 31.352 30.3667 31.3837 30.3353C31.4153 30.3039 31.4233 30.2645 31.3919 30.2328L31.384 30.2249ZM31.83 28.996L31.7357 28.901L31.6724 28.9639L31.6016 28.8927L31.665 28.8298L31.5628 28.7269L31.4916 28.7977L31.4208 28.7264L31.5 28.6478L31.4057 28.5529L31.2474 28.71C31.2157 28.7415 31.2156 28.773 31.2392 28.7968L31.585 29.145C31.6086 29.1688 31.648 29.1768 31.6717 29.1532L31.83 28.996ZM31.2548 28.8442L30.7247 29.3234L31.0626 29.6638L31.5535 29.1291L31.2627 28.8363" fill="#FFFF00"/>
<path d="M31.2548 28.8442L30.7247 29.3234L31.0626 29.6638L31.5535 29.1291L31.2627 28.8363M30.366 30.387C30.6272 30.1276 30.5177 29.8748 30.5177 29.8748C30.5177 29.8748 30.2578 29.7714 30.0045 30.0229L30.366 30.387ZM31.5342 30.1386L30.2531 28.8485C30.2295 28.8248 30.1743 28.8325 30.1426 28.8639C30.1189 28.8875 30.1187 28.9348 30.1423 28.9586L31.4234 30.2487C31.447 30.2724 31.4943 30.2726 31.526 30.2411C31.5497 30.2176 31.5499 30.1702 31.5263 30.1465L31.5342 30.1386ZM31.384 30.2249L30.1737 29.006C30.1501 28.9823 30.1028 28.9821 30.0711 29.0135C30.0394 29.045 30.0393 29.0923 30.0629 29.1161L31.2811 30.3428C31.3125 30.3745 31.352 30.3667 31.3837 30.3353C31.4153 30.3039 31.4233 30.2645 31.3919 30.2328L31.384 30.2249ZM31.83 28.996L31.7357 28.901L31.6724 28.9639L31.6016 28.8927L31.665 28.8298L31.5628 28.7269L31.4916 28.7977L31.4208 28.7264L31.5 28.6478L31.4057 28.5529L31.2474 28.71C31.2157 28.7415 31.2156 28.773 31.2392 28.7968L31.585 29.145C31.6086 29.1688 31.648 29.1768 31.6717 29.1532L31.83 28.996Z" stroke="black" stroke-width="0.0557709"/>
<path d="M31.426 29.4915L31.1569 29.7587L31.4713 30.0753L31.7404 29.8081L31.426 29.4915Z" fill="#FFFF00" stroke="black" stroke-width="0.0557709"/>
<path d="M30.593 28.6524L30.3239 28.9196L30.6383 29.2362L30.9073 28.969L30.593 28.6524Z" fill="#FFFF00" stroke="black" stroke-width="0.0557709"/>
<path d="M32.0009 29.659L31.9066 29.5641L31.8275 29.6427L31.7567 29.5714L31.8359 29.4928L31.7415 29.3979L31.6624 29.4765L31.5917 29.4052L31.6708 29.3266L31.5765 29.2317L31.4182 29.3888C31.3865 29.4203 31.3864 29.4518 31.41 29.4756L31.748 29.8159C31.7605 29.8285 31.7775 29.8356 31.7952 29.8357C31.813 29.8357 31.83 29.8287 31.8426 29.8162L32.0009 29.659V29.659Z" fill="#FFFF00" stroke="black" stroke-width="0.0557709"/>
<path d="M31.1682 28.8199L31.0738 28.7249L30.9947 28.8035L30.924 28.7323L31.0031 28.6537L30.9088 28.5587L30.8296 28.6373L30.7589 28.5661L30.838 28.4875L30.7437 28.3925L30.5854 28.5497C30.5538 28.5811 30.5537 28.6127 30.5772 28.6364L30.9152 28.9768C30.9277 28.9894 30.9447 28.9965 30.9625 28.9965C30.9802 28.9966 30.9973 28.9896 31.0099 28.9771L31.1682 28.8199V28.8199Z" fill="#FFFF00" stroke="black" stroke-width="0.0557709"/>
<path d="M31.2778 29.1827C31.3247 29.1361 31.2549 29.0658 31.208 29.1123L31.0829 29.2365L31.1528 29.3069L31.2778 29.1827Z" fill="black"/>
<path d="M31.52 29.7749C31.567 29.7283 31.5048 29.6656 31.4578 29.7123L31.3638 29.8056L31.426 29.8683L31.52 29.7749Z" fill="black"/>
<path d="M30.6869 28.9359C30.7339 28.8892 30.6717 28.8266 30.6247 28.8733L30.5307 28.9666L30.5929 29.0293L30.6869 28.9359Z" fill="black"/>
<path d="M26.1313 25.368C26.1293 25.6035 26.217 25.8308 26.3767 26.0038C26.4512 26.0871 26.5423 26.1539 26.6441 26.2C26.7458 26.2461 26.8561 26.2705 26.9679 26.2715C27.2021 26.2715 27.414 26.16 27.5591 26.0038C27.7187 25.8308 27.8065 25.6035 27.8044 25.368V24.1634H26.1313V25.368Z" fill="#003399"/>
<path d="M26.5214 24.7872C26.6135 24.7872 26.6882 24.7125 26.6882 24.6203C26.6882 24.5282 26.6135 24.4535 26.5214 24.4535C26.4292 24.4535 26.3546 24.5282 26.3546 24.6203C26.3546 24.7125 26.4292 24.7872 26.5214 24.7872Z" fill="white"/>
<path d="M27.4469 24.7872C27.5391 24.7872 27.6138 24.7125 27.6138 24.6203C27.6138 24.5282 27.5391 24.4535 27.4469 24.4535C27.3548 24.4535 27.2801 24.5282 27.2801 24.6203C27.2801 24.7125 27.3548 24.7872 27.4469 24.7872Z" fill="white"/>
<path d="M26.9785 25.2334C27.0707 25.2334 27.1454 25.1587 27.1454 25.0666C27.1454 24.9745 27.0707 24.8998 26.9785 24.8998C26.8864 24.8998 26.8117 24.9745 26.8117 25.0666C26.8117 25.1587 26.8864 25.2334 26.9785 25.2334Z" fill="white"/>
<path d="M26.5214 25.7018C26.6135 25.7018 26.6882 25.6271 26.6882 25.535C26.6882 25.4429 26.6135 25.3682 26.5214 25.3682C26.4292 25.3682 26.3546 25.4429 26.3546 25.535C26.3546 25.6271 26.4292 25.7018 26.5214 25.7018Z" fill="white"/>
<path d="M27.4469 25.7018C27.5391 25.7018 27.6138 25.6271 27.6138 25.535C27.6138 25.4429 27.5391 25.3682 27.4469 25.3682C27.3548 25.3682 27.2801 25.4429 27.2801 25.535C27.2801 25.6271 27.3548 25.7018 27.4469 25.7018Z" fill="white"/>
<path d="M26.1313 22.4678C26.1293 22.7032 26.217 22.9306 26.3767 23.1036C26.4512 23.1869 26.5423 23.2537 26.6441 23.2998C26.7458 23.3459 26.8561 23.3702 26.9679 23.3713C27.2021 23.3713 27.414 23.2597 27.5591 23.1036C27.7187 22.9306 27.8065 22.7032 27.8044 22.4678V21.2631H26.1313V22.4678Z" fill="#003399"/>
<path d="M26.5214 21.8869C26.6135 21.8869 26.6882 21.8122 26.6882 21.72C26.6882 21.6279 26.6135 21.5532 26.5214 21.5532C26.4292 21.5532 26.3546 21.6279 26.3546 21.72C26.3546 21.8122 26.4292 21.8869 26.5214 21.8869Z" fill="white"/>
<path d="M27.4469 21.8869C27.5391 21.8869 27.6138 21.8122 27.6138 21.72C27.6138 21.6279 27.5391 21.5532 27.4469 21.5532C27.3548 21.5532 27.2801 21.6279 27.2801 21.72C27.2801 21.8122 27.3548 21.8869 27.4469 21.8869Z" fill="white"/>
<path d="M26.9785 22.3329C27.0707 22.3329 27.1454 22.2582 27.1454 22.1661C27.1454 22.0739 27.0707 21.9992 26.9785 21.9992C26.8864 21.9992 26.8117 22.0739 26.8117 22.1661C26.8117 22.2582 26.8864 22.3329 26.9785 22.3329Z" fill="white"/>
<path d="M26.5214 22.8014C26.6135 22.8014 26.6882 22.7267 26.6882 22.6345C26.6882 22.5424 26.6135 22.4677 26.5214 22.4677C26.4292 22.4677 26.3546 22.5424 26.3546 22.6345C26.3546 22.7267 26.4292 22.8014 26.5214 22.8014Z" fill="white"/>
<path d="M27.4469 22.8014C27.5391 22.8014 27.6138 22.7267 27.6138 22.6345C27.6138 22.5424 27.5391 22.4677 27.4469 22.4677C27.3548 22.4677 27.2801 22.5424 27.2801 22.6345C27.2801 22.7267 27.3548 22.8014 27.4469 22.8014Z" fill="white"/>
<path d="M23.8112 25.368C23.8092 25.6035 23.8969 25.8308 24.0566 26.0038C24.1311 26.0871 24.2221 26.1539 24.3239 26.2C24.4257 26.2461 24.536 26.2705 24.6478 26.2715C24.882 26.2715 25.0939 26.16 25.2389 26.0038C25.3986 25.8308 25.4863 25.6035 25.4843 25.368V24.1634H23.8112V25.368Z" fill="#003399"/>
<path d="M24.2011 24.7872C24.2933 24.7872 24.368 24.7125 24.368 24.6203C24.368 24.5282 24.2933 24.4535 24.2011 24.4535C24.109 24.4535 24.0343 24.5282 24.0343 24.6203C24.0343 24.7125 24.109 24.7872 24.2011 24.7872Z" fill="white"/>
<path d="M25.1267 24.7872C25.2189 24.7872 25.2936 24.7125 25.2936 24.6203C25.2936 24.5282 25.2189 24.4535 25.1267 24.4535C25.0346 24.4535 24.9599 24.5282 24.9599 24.6203C24.9599 24.7125 25.0346 24.7872 25.1267 24.7872Z" fill="white"/>
<path d="M24.6585 25.2334C24.7507 25.2334 24.8254 25.1587 24.8254 25.0666C24.8254 24.9745 24.7507 24.8998 24.6585 24.8998C24.5664 24.8998 24.4917 24.9745 24.4917 25.0666C24.4917 25.1587 24.5664 25.2334 24.6585 25.2334Z" fill="white"/>
<path d="M24.2011 25.7018C24.2933 25.7018 24.368 25.6271 24.368 25.535C24.368 25.4429 24.2933 25.3682 24.2011 25.3682C24.109 25.3682 24.0343 25.4429 24.0343 25.535C24.0343 25.6271 24.109 25.7018 24.2011 25.7018Z" fill="white"/>
<path d="M25.1267 25.7018C25.2189 25.7018 25.2936 25.6271 25.2936 25.535C25.2936 25.4429 25.2189 25.3682 25.1267 25.3682C25.0346 25.3682 24.9599 25.4429 24.9599 25.535C24.9599 25.6271 25.0346 25.7018 25.1267 25.7018Z" fill="white"/>
<path d="M28.4513 25.368C28.4492 25.6035 28.537 25.8308 28.6967 26.0038C28.7712 26.0871 28.8622 26.1539 28.964 26.2C29.0658 26.2461 29.1761 26.2705 29.2878 26.2715C29.5221 26.2715 29.734 26.16 29.879 26.0038C30.0387 25.8308 30.1264 25.6035 30.1244 25.368V24.1634H28.4513V25.368Z" fill="#003399"/>
<path d="M28.8413 24.7872C28.9334 24.7872 29.0081 24.7125 29.0081 24.6203C29.0081 24.5282 28.9334 24.4535 28.8413 24.4535C28.7491 24.4535 28.6744 24.5282 28.6744 24.6203C28.6744 24.7125 28.7491 24.7872 28.8413 24.7872Z" fill="white"/>
<path d="M29.7667 24.7872C29.8589 24.7872 29.9336 24.7125 29.9336 24.6203C29.9336 24.5282 29.8589 24.4535 29.7667 24.4535C29.6746 24.4535 29.5999 24.5282 29.5999 24.6203C29.5999 24.7125 29.6746 24.7872 29.7667 24.7872Z" fill="white"/>
<path d="M29.2984 25.2334C29.3905 25.2334 29.4652 25.1587 29.4652 25.0666C29.4652 24.9745 29.3905 24.8998 29.2984 24.8998C29.2062 24.8998 29.1315 24.9745 29.1315 25.0666C29.1315 25.1587 29.2062 25.2334 29.2984 25.2334Z" fill="white"/>
<path d="M28.8413 25.7018C28.9334 25.7018 29.0081 25.6271 29.0081 25.535C29.0081 25.4429 28.9334 25.3682 28.8413 25.3682C28.7491 25.3682 28.6744 25.4429 28.6744 25.535C28.6744 25.6271 28.7491 25.7018 28.8413 25.7018Z" fill="white"/>
<path d="M29.7667 25.7018C29.8589 25.7018 29.9336 25.6271 29.9336 25.535C29.9336 25.4429 29.8589 25.3682 29.7667 25.3682C29.6746 25.3682 29.5999 25.4429 29.5999 25.535C29.5999 25.6271 29.6746 25.7018 29.7667 25.7018Z" fill="white"/>
<path d="M26.1313 28.2456C26.1293 28.481 26.217 28.7084 26.3767 28.8814C26.4512 28.9647 26.5423 29.0315 26.6441 29.0776C26.7458 29.1237 26.8561 29.1481 26.9679 29.1491C27.2021 29.1491 27.414 29.0376 27.5591 28.8814C27.7187 28.7084 27.8065 28.481 27.8044 28.2456V27.041H26.1313V28.2456Z" fill="#003399"/>
<path d="M26.5214 27.6646C26.6135 27.6646 26.6882 27.59 26.6882 27.4978C26.6882 27.4057 26.6135 27.331 26.5214 27.331C26.4292 27.331 26.3546 27.4057 26.3546 27.4978C26.3546 27.59 26.4292 27.6646 26.5214 27.6646Z" fill="white"/>
<path d="M27.4469 27.6646C27.5391 27.6646 27.6138 27.59 27.6138 27.4978C27.6138 27.4057 27.5391 27.331 27.4469 27.331C27.3548 27.331 27.2801 27.4057 27.2801 27.4978C27.2801 27.59 27.3548 27.6646 27.4469 27.6646Z" fill="white"/>
<path d="M26.9785 28.1109C27.0707 28.1109 27.1454 28.0362 27.1454 27.9441C27.1454 27.8519 27.0707 27.7772 26.9785 27.7772C26.8864 27.7772 26.8117 27.8519 26.8117 27.9441C26.8117 28.0362 26.8864 28.1109 26.9785 28.1109Z" fill="white"/>
<path d="M26.5214 28.5791C26.6135 28.5791 26.6882 28.5044 26.6882 28.4123C26.6882 28.3202 26.6135 28.2455 26.5214 28.2455C26.4292 28.2455 26.3546 28.3202 26.3546 28.4123C26.3546 28.5044 26.4292 28.5791 26.5214 28.5791Z" fill="white"/>
<path d="M27.4469 28.5791C27.5391 28.5791 27.6138 28.5044 27.6138 28.4123C27.6138 28.3202 27.5391 28.2455 27.4469 28.2455C27.3548 28.2455 27.2801 28.3202 27.2801 28.4123C27.2801 28.5044 27.3548 28.5791 27.4469 28.5791Z" fill="white"/>
</g>
<defs>
<clipPath id="clip0_237_2027">
<rect width="66.9248" height="50.1936" fill="white" transform="translate(0.187012)"/>
</clipPath>
</defs>
</svg>
