<svg width="68" height="51" viewBox="0 0 68 51" fill="none" xmlns="http://www.w3.org/2000/svg">
<g clip-path="url(#clip0_237_1985)">
<path d="M0.546997 0H22.8518V50.1936H0.546997V0Z" fill="#007A5E"/>
<path d="M22.8518 -9.53674e-06H45.1671V50.1936H22.8518V-9.53674e-06Z" fill="#CE1126"/>
<path d="M45.167 -9.53674e-06H67.4718V50.1936H45.167V-9.53674e-06Z" fill="#FCD116"/>
<path d="M34.0094 19.1478L32.1504 24.7992L34.9761 25.7659L34.0094 19.1478Z" fill="#FCD116"/>
<path d="M34.0094 19.1475L35.8684 24.7989L33.0427 25.7656L34.0094 19.1475Z" fill="#FCD116"/>
<path d="M39.6672 23.2582L33.718 23.2366L33.6718 26.2227L39.6672 23.2582Z" fill="#FCD116"/>
<path d="M39.667 23.2581L34.8666 26.7726L33.0741 24.3839L39.667 23.2581Z" fill="#FCD116"/>
<path d="M37.5059 29.9098L35.6881 24.245L32.8338 25.1238L37.5059 29.9098Z" fill="#FCD116"/>
<path d="M37.5061 29.9098L32.6803 26.4304L34.3981 23.9875L37.5061 29.9098Z" fill="#FCD116"/>
<path d="M30.5129 29.9094L35.3387 26.43L33.6208 23.987L30.5129 29.9094Z" fill="#FCD116"/>
<path d="M30.5129 29.9093L32.3307 24.2445L35.185 25.1233L30.5129 29.9093Z" fill="#FCD116"/>
<path d="M28.3517 23.2581L33.152 26.7725L34.9446 24.3839L28.3517 23.2581Z" fill="#FCD116"/>
<path d="M28.3517 23.2583L34.301 23.2366L34.3472 26.2227L28.3517 23.2583Z" fill="#FCD116"/>
</g>
<defs>
<clipPath id="clip0_237_1985">
<rect width="66.9248" height="50.1936" fill="white" transform="translate(0.546997)"/>
</clipPath>
</defs>
</svg>
