<svg width="68" height="51" viewBox="0 0 68 51" fill="none" xmlns="http://www.w3.org/2000/svg">
<g clip-path="url(#clip0_237_993)">
<path d="M0.383911 25.0967H67.3087V50.1935H0.383911V25.0967Z" fill="#00AB39"/>
<path d="M0.384155 0H67.309V25.0968H0.384155V0Z" fill="white"/>
<path d="M44.1986 7.4035H44.1882H44.1986ZM44.1882 7.4035C40.0462 9.63259 36.1308 12.2592 32.4972 15.2463C30.7195 16.8043 31.2215 18.0383 31.1483 19.4291C31.211 20.3702 30.9496 21.2486 30.3745 21.7714L26.4217 22.5662L26.0453 21.4786C26.1603 20.9139 26.6204 20.6421 27.6033 20.9871C27.6765 20.2761 27.091 19.9833 26.4217 19.7323C26.1812 19.5441 25.8989 19.4186 25.9302 18.7912C25.8257 17.3795 28.0844 18.8957 28.1053 18.8957C28.1262 18.8957 28.0216 17.4631 26.9864 17.1808C26.4217 16.9821 26.1812 16.3861 26.4008 15.9469C26.8504 15.0371 27.7079 16.0096 28.3563 16.0514C28.3353 15.4554 28.168 15.0371 27.6556 14.5665C27.3838 14.3888 26.7145 14.2633 26.6936 13.981C26.6831 13.6045 27.321 13.4372 28.2099 13.5418C28.0216 13.0085 27.4256 12.6634 26.6099 12.4124L26.1289 11.5654C25.8989 11.1471 25.7943 11.1262 26.3276 10.3315C26.7982 10.0177 27.436 9.57855 27.9171 9.2753L27.3942 9.21256C27.4569 8.63742 27.4674 8.43874 27.6033 7.48715C27.0805 8.18777 26.4531 8.06229 25.8675 8.34463C25.8675 8.34463 24.2362 8.63742 23.7029 9.33804L19.5828 9.1289C18.7044 9.24393 17.962 9.4949 17.8156 10.3419C15.8183 10.5511 13.7269 10.3733 12.2002 12.2765C13.2459 12.2346 14.1452 11.9837 15.3164 12.1301C15.3164 12.1301 16.3098 12.151 16.5085 13.2071C16.5294 13.249 16.8535 13.249 16.8535 13.249L17.23 13.5418L17.3764 13.1444L17.711 13.3744L17.8156 12.9353L18.1502 13.1653L18.1711 12.6425L18.6103 12.9562V12.2555C18.6103 12.2555 20.2416 12.2555 20.7436 13.3012C20.7645 13.3117 16.1738 14.1378 11.7401 13.7509L13.0158 13.1235C11.4055 12.7889 9.87873 12.4961 8.45658 11.3772C8.98988 13.4058 11.7714 15.7796 12.3466 15.7691L11.8028 14.7861L16.613 14.9953C16.7908 15.5286 16.7176 16.1246 17.1359 16.5952C17.1359 16.5952 16.8745 17.4736 17.4705 17.8291C17.4914 17.871 18.1711 16.0514 18.1711 16.0514C18.1711 16.0514 18.3803 16.5429 18.5894 16.8671C18.9031 15.2985 20.6181 15.0371 20.6181 15.0371L20.9736 15.8737C20.4403 15.9573 19.7711 17.0449 20.137 17.6514C19.7711 17.6514 19.1332 18.7075 19.3319 19.2827C19.0286 19.5859 18.2862 19.9833 18.4639 21.2486C17.8783 21.3741 17.5228 22.4511 17.711 23.6014C16.7908 24.4484 17.0209 26.0065 17.8365 26.6444C17.5019 26.9581 17.2927 27.1777 17.2927 27.5541C16.9686 27.4391 16.6653 27.5332 16.5294 27.7424C16.132 27.3345 15.5673 26.9895 15.17 27.3659C15.0654 26.8849 14.438 26.362 13.7583 26.4248C13.7862 26.1237 13.7072 25.8224 13.5351 25.5738C13.363 25.3252 13.1088 25.1452 12.8171 25.0654C12.8171 25.0654 12.6603 22.7021 11.9492 21.9283C11.876 21.51 11.991 21.2172 12.5766 20.8617C13.1727 20.548 13.2982 20.3074 13.2459 19.4081C13.4864 18.8121 13.6642 18.2056 12.9322 17.7978C12.9531 18.5088 12.7439 18.8435 12.4512 19.1572C12.1061 19.1153 11.991 19.5127 11.761 19.68C11.4368 19.2513 12.4407 18.5716 11.6982 17.5991C11.6564 17.5572 11.1754 16.3442 9.99376 16.3652C10.548 16.6893 10.7885 17.2435 10.7885 17.8187C10.3527 18.7825 10.2857 19.8727 10.6003 20.8826C10.1088 20.1506 9.82644 18.7493 9.41862 18.5088C9.06308 18.4356 8.89577 17.5991 7.50499 17.8396C8.10104 17.9964 8.29972 18.4566 8.44612 18.8644C8.09058 19.0526 8.26835 19.5545 8.54023 19.8996C8.48795 20.7048 8.96897 21.1754 9.6905 21.4682L9.33496 24.783C9.05262 24.7517 8.60297 25.8706 8.43566 25.9019C8.15332 26.0797 7.66184 26.5503 8.22652 26.6862C8.05921 27.2823 7.90235 27.6483 7.00305 27.7737C7.00305 27.7737 7.94418 28.3384 8.73891 27.3764C9.57547 27.3555 9.30359 26.3516 9.71142 25.9124C9.71142 25.881 9.95193 25.7346 10.2866 24.8458C10.4329 25.6405 11.2486 28.0665 13.0786 29.2691C14.6785 30.984 16.0065 32.6049 15.9856 34.8845C16.6 34.2089 17.0413 33.3944 17.2718 32.5108C18.3151 32.1978 19.4052 32.0704 20.4926 32.1343C20.3044 32.5421 20.0848 32.929 20.3566 33.18C19.5828 33.4519 19.4155 34.0166 19.7292 34.5708C18.9136 35.125 18.8613 35.4806 18.8508 36.4008C17.3346 38.3353 16.4039 38.2726 14.9085 37.7602C14.4275 37.4778 13.6537 37.07 13.3086 37.2896C12.6707 36.8504 11.7401 36.7877 11.5832 37.7706C12.0747 37.3628 12.357 37.4465 12.7439 37.8334C12.6707 38.0321 12.608 38.2203 12.8903 38.3353L12.5139 38.7536C11.8237 38.649 10.8826 38.649 10.6421 39.6634C10.9976 39.3601 11.7924 39.2974 12.4198 39.5797L12.7858 39.7052L12.8276 40.1862C12.8276 40.1862 11.8865 40.0398 11.6355 41.577C12.5139 40.6359 13.1413 40.8764 13.1413 40.8764C13.4864 41.3783 14.7412 41.3051 15.651 40.479C16.9163 39.7679 17.2927 40.7927 18.1084 40.1235C18.7881 39.6215 19.5933 39.9562 20.1475 40.5417C20.7854 40.7823 21.4546 40.9809 21.9775 40.5417C21.9775 40.5417 22.6258 40.1339 23.2637 40.7927C23.2637 40.0607 22.7408 39.6529 22.0298 39.6424L21.8206 39.4333C21.1409 39.2869 20.388 39.3496 19.792 39.015C20.0231 37.9593 20.5322 36.9846 21.2664 36.1916C22.2389 35.1459 22.9604 34.6649 24.1944 33.065C24.1421 33.9747 24.8322 34.9786 25.1982 35.8884C25.1982 35.8884 25.9302 34.7276 26.0348 33.7656C26.0662 33.7656 26.9655 33.3055 27.3419 32.8977C28.1576 33.4101 29.4752 32.5003 30.3326 31.7474C30.8555 31.9565 31.2633 31.9356 31.8698 31.7474C31.3783 32.7513 32.1521 33.6819 33.3861 34.0689C33.4906 34.9472 34.3899 35.1355 35.7389 35.1355C35.8016 35.6583 36.6068 35.7315 36.6068 35.7315C36.084 35.9616 35.833 36.2021 35.8435 36.7354C35.3206 36.7354 34.9337 36.8713 34.7978 37.4674C34.0762 37.4883 33.3442 37.5406 32.7273 37.8857C32.0685 37.7916 31.2633 37.5197 30.7509 36.9864C30.4895 36.7668 30.4163 36.4426 29.9562 36.3171C29.6634 35.972 29.3078 36.0452 29.1928 36.3799C28.8896 36.1393 27.7497 36.0348 27.5511 37.1118C28.0948 36.7249 28.5654 36.5785 28.9105 37.0596C28.7222 37.3837 29.3497 37.5824 29.8934 37.7079C30.2803 37.7288 30.96 38.0843 31.1692 38.6699C30.8759 38.7548 30.5676 38.7745 30.2659 38.7275C29.9642 38.6806 29.6765 38.5681 29.4229 38.3981C29.2347 38.2412 29.0014 38.1485 28.7569 38.1334C28.5124 38.1184 28.2694 38.1818 28.0635 38.3144C27.6034 38.0216 26.5263 38.5758 26.4845 39.4542C26.9341 39.0359 27.3524 38.8268 27.7707 39.0987C27.5615 39.1405 27.6347 39.1614 27.6661 39.2869L28.7118 39.8934C28.1889 40.0294 27.7079 40.2385 27.938 41.2005C27.938 41.2005 28.3563 40.364 29.2974 40.6777C29.3183 40.6463 29.4333 40.9705 29.7052 40.7509C30.113 40.2908 31.0437 40.0816 31.8698 39.998C32.5286 39.9248 33.1874 39.7261 33.7521 40.1026C34.2749 39.8411 34.8396 39.6634 35.4252 40.0816C36.1154 40.2908 36.6173 41.1064 37.4852 40.7404C37.9244 40.4267 38.4577 40.4267 39.0015 41.0332C39.0015 40.2594 38.4263 39.998 37.6107 39.8307L37.046 39.496C36.5232 39.4124 36.0003 39.5065 35.467 39.2555C36.7174 38.9557 37.8952 38.409 38.9313 37.6476C39.9675 36.8862 40.841 35.9254 41.5007 34.8218L42.8078 35.2819C43.1215 35.3028 43.1425 35.4074 43.7803 35.5956C43.8012 34.6649 43.3934 33.7029 41.7099 33.6088L39.5139 32.7722C39.0329 32.2703 38.8237 31.2141 39.4198 30.5971C40.0054 30.0743 40.1099 30.137 40.4968 29.4991C40.9674 29.4573 41.4066 29.9383 41.8353 29.9383C42.0445 30.5553 43.2366 31.0886 43.9895 30.9108C44.46 31.3291 45.3489 31.5592 46.3423 31.2246C46.6253 31.4886 46.9821 31.6602 47.3651 31.7162C47.7482 31.7723 48.1392 31.7102 48.486 31.5383C48.716 31.7683 49.1971 31.9565 49.7408 31.8311C49.7931 31.8311 50.0336 32.4376 50.6297 32.6572C50.3682 32.9081 50.5251 34.0166 50.8074 34.4244C50.6052 34.8382 50.5715 35.3143 50.7133 35.7524C50.1068 36.1393 49.9813 36.4321 50.2532 37.0909C49.4585 38.3771 48.5069 38.5235 47.6076 38.1366L46.6351 37.5092L45.6103 36.5053C45.4325 36.338 45.0665 36.2962 44.9933 36.6517C44.9933 36.6517 43.6758 36.3589 43.5607 37.4778C44.115 36.9445 44.8888 37.4151 44.8888 37.436C44.8888 37.4569 44.7006 37.5824 44.847 37.7916C44.8783 37.7602 45.8195 38.1366 46.6456 38.4922C47.0952 38.6699 47.1998 38.7222 47.3985 38.8268C47.1488 38.7124 46.8978 38.6008 46.6456 38.4922C46.2827 38.3249 45.8934 38.2222 45.4953 38.1889C45.0352 38.1471 44.5332 38.0843 44.3032 38.4399C43.8012 38.649 43.0065 38.8268 43.0483 39.7679C43.383 39.2032 43.8535 39.2346 44.4496 39.2869L44.4078 39.4124C45.0561 39.7052 44.9306 39.3287 45.5371 39.2764C46.0817 39.2682 46.6234 39.3567 47.137 39.5379C46.6665 39.6738 46.0181 39.6111 45.7149 39.9562C45.6521 40.0607 45.4535 40.0189 45.5476 40.2908C45.5476 40.2908 44.6064 40.2699 44.3659 41.5456C45.3071 40.9496 46.0286 40.9705 46.039 40.9705L46.3423 41.0332L47.4926 40.2699C47.5239 40.2699 48.601 39.7888 49.0925 40.3326C49.5317 40.5417 49.9918 40.5627 50.4519 40.2908C51.3303 39.9039 52.1564 39.8725 52.9616 40.4163L53.704 40.8555L54.0177 40.6463C54.0177 40.6463 54.8543 40.4163 55.4608 41.1587C55.2098 39.8725 54.2896 39.8307 54.2896 39.8307L54.0805 39.6424L52.7838 39.1301C52.5851 38.6595 52.1146 38.2935 52.5851 37.7288C53.0766 35.3132 53.6517 33.5042 52.7106 31.0572C53.589 31.4337 54.2478 32.6049 55.3458 32.1971C55.3458 31.2141 51.7277 29.3423 48.967 27.8469C53.5054 27.6064 58.943 24.2706 56.8516 20.0251L57.8346 16.9507C58.3051 17.8919 59.2462 18.6029 60.0933 18.9062C59.3926 17.5782 58.9953 13.5104 59.3926 10.7079C57.5428 12.9286 55.5481 15.0246 53.4217 16.9821C54.4674 17.2331 55.3981 17.0553 56.4124 16.9298L55.5549 18.7075C52.7734 17.0658 49.5108 18.2892 49.4899 20.4643C49.584 22.9949 52.7106 23.3609 54.5197 22.472C54.1641 24.783 48.852 23.936 48.852 23.936C46.9697 23.2877 45.1816 23.3923 43.2052 23.4132C43.613 22.1479 45.8926 21.0185 47.639 21.5205C45.2025 18.7807 47.9841 15.3822 51.3407 14.3469C47.6808 13.1339 50.8284 10.3419 53.5681 8.34463C53.5681 8.34463 45.694 11.6595 44.9724 11.649C42.7346 11.4817 43.3411 8.82565 44.1986 7.4035H44.1882ZM19.4678 10.5824C19.656 10.5824 19.8652 10.6033 20.0429 10.6452C20.3985 10.7393 20.8272 10.7811 20.8272 10.8961C20.6599 11.168 20.2521 11.4922 19.8547 11.4817C19.4573 11.4608 19.2273 11.2203 19.1018 10.6243C19.1436 10.6033 19.29 10.5824 19.4678 10.5824V10.5824ZM52.6165 19.931C53.1394 19.931 53.7563 20.1401 54.3524 20.7885C54.07 21.625 51.5499 22.0433 51.3826 20.8094C51.3303 20.4329 51.8636 19.9414 52.6165 19.931V19.931Z" fill="#D21034" stroke="black" stroke-width="0.146398"/>
<path d="M22.0716 17.9022L22.4585 18.4564M22.4376 18.4669C22.4376 18.4669 22.4376 19.2198 22.5945 19.2302M22.2494 19.638L22.6468 20.2968M21.5488 20.4642C21.5697 20.4642 22.0403 21.0079 22.0403 21.0079M22.4481 20.5896C22.4481 20.6105 22.8873 21.4367 22.9187 21.4367M21.873 21.1648C21.873 21.1648 22.0194 22.1686 22.1553 22.1373M21.2142 23.0052L21.6534 23.6849M22.0403 22.2941C22.0403 22.2941 22.2808 23.2457 22.469 23.1621M22.6677 21.719C22.6781 21.7399 23.1173 22.3569 23.2324 22.2732M23.1278 22.5137L23.5461 23.3503M22.4376 23.1621L22.7827 24.145M21.6324 23.664C21.6324 23.664 21.9462 24.7202 22.2285 24.5528M21.5174 25.0757C21.5174 25.0757 21.5383 25.6299 21.8102 25.6613M21.9984 24.7934C21.9984 24.8143 22.2808 25.1907 22.2808 25.1907M22.8036 24.1346L23.0232 24.5006M23.5356 23.4549L23.8807 23.8836M21.9252 18.4773C21.9357 18.9479 22.6781 18.31 22.9709 17.9126M21.6115 20.1086C21.6115 20.1086 22.4167 19.5335 23.0441 18.6655M21.3396 21.4785C21.9148 21.3216 22.9709 20.0459 23.1801 19.3662M21.2246 22.7438C21.3815 22.817 23.3474 21.3844 23.3997 20.3491M21.1723 23.8418C21.1723 23.8313 22.9709 23.3817 23.7134 21.4053M21.0887 25.3371C21.0887 25.3371 23.9644 23.6117 24.1212 22.3464M43.5085 28.2337C43.5085 28.2337 43.3203 29.7186 41.8354 29.9487M43.9791 30.8898C43.9895 30.8689 45.4012 29.3212 45.0352 28.8507M47.2416 29.3944C47.2416 29.3944 47.2207 30.4715 46.3423 31.214M48.9984 29.7081C48.9984 29.7081 49.0298 31.0048 48.4756 31.5277M50.6088 30.482C50.6088 30.482 49.9814 31.7054 49.7618 31.8309M50.5879 32.6466C50.5879 32.6466 51.4035 32.8557 51.665 32.3119M50.797 34.4138C50.797 34.4138 51.5499 34.5497 51.9055 33.8282M50.7134 35.7837C50.7134 35.7837 51.3303 36.3065 51.7486 35.6164M41.919 25.7449C41.919 25.7449 41.8458 28.3906 45.5581 28.9239C49.7095 30.0741 51.6754 29.4676 51.9159 34.121C51.7591 35.8987 51.5395 37.8855 50.2428 37.1222M37.9663 28.1814C37.9663 28.1814 38.5623 29.2376 39.2734 29.1644C40.2145 28.8925 40.5596 29.4676 40.5596 29.4676M35.4357 29.2376C35.4357 29.2376 37.0042 30.0009 38.3323 28.767M35.6135 28.1396C35.7494 29.9696 33.5116 31.0153 32.6228 30.8375M35.718 35.1249C35.7285 35.1249 36.931 34.4138 36.6905 33.9119M33.3338 34.0687C33.3652 34.0269 35.352 33.8387 35.718 33.1276M32.4136 31.1408C32.4136 31.1408 35.2265 31.1617 35.4148 31.6741M36.1468 29.4781C36.1468 29.4781 33.407 34.1733 38.4682 34.1733M33.2397 29.4153C33.2397 29.4153 32.6541 31.1617 31.8176 31.7577M30.3327 28.8088C30.3327 28.8088 31.347 30.7748 30.3327 31.7473M27.6766 29.3631C27.687 29.3944 28.0008 32.1551 27.3106 32.9394M26.3486 29.4467C26.3486 29.4467 26.4531 31.2035 25.9303 31.8309C25.4074 32.4583 26.0558 33.755 26.0558 33.755M19.7293 34.5916C19.7293 34.5916 20.1057 35.2504 20.6181 35.0203M20.3567 33.159C20.3567 33.159 21.1932 33.5249 21.4756 33.389M21.2664 30.2101C21.2664 30.2101 20.0325 30.5552 20.5031 32.0191C21.2142 32.5943 21.9043 32.5002 21.9043 32.5002M18.83 36.4111C18.8195 36.4111 18.9764 37.5614 19.7711 36.6934C20.3253 35.5222 22.0716 32.2387 22.4795 31.1094M23.2951 30.5761C23.2951 30.5761 22.4481 29.9173 22.4795 30.8375C22.4585 31.4126 22.7409 31.5486 22.7409 31.5486C22.7723 31.9669 23.1383 32.5524 23.431 32.0191C23.5565 31.4963 23.3474 31.2662 23.3474 31.2662M23.8389 30.3251C23.0755 30.2833 22.6572 31.9669 24.1317 30.9107M24.6336 29.7604C24.6336 29.7604 24.4454 30.0219 24.1421 29.7395C23.9853 29.4676 23.431 30.9944 24.4035 31.0466C24.5813 30.597 25.1146 30.4715 25.1146 30.4715M25.5747 29.0284C25.5747 29.0284 25.1355 29.2376 24.9787 29.2062C24.4558 29.3212 24.5604 30.5447 25.2192 30.4715C25.4492 30.2101 25.6898 29.8441 25.6898 29.8441M21.4756 27.439C21.4547 27.439 19.7502 30.1264 22.4272 30.8375M43.132 23.413C43.132 23.413 42.0863 24.2914 43.0588 25.7136C39.8172 25.6613 38.0918 27.1566 37.9558 28.1605C33.8358 27.8677 34.5887 29.0807 33.2502 29.4781C31.462 27.9827 28.8373 28.8193 29.0046 30.3146C27.8125 28.6311 25.9721 29.4467 25.742 29.865C25.5224 30.2833 25.6061 27.7945 25.6061 27.7945C25.6061 27.7945 24.4035 28.3383 23.5774 29.3212V27.2403C22.5736 27.4494 21.6011 27.4494 20.5658 27.4285M17.8575 26.6652C17.8575 26.6652 19.3528 27.5017 21.2037 26.3724M17.7424 23.664C17.7424 23.664 18.8927 24.7097 21.0887 24.3751M18.4744 21.2693C18.4744 21.2693 18.7254 22.1164 21.2246 22.1686M19.311 19.3034C19.311 19.3034 20.2521 20.4537 21.5279 20.2759M20.1162 17.6617C20.1162 17.6617 20.4822 18.2891 21.873 18.3937M20.9318 15.8317C20.9318 15.8317 21.6638 16.6264 22.5004 16.4905M25.2715 9.3379C25.2715 9.3379 25.5956 9.02419 26.1394 9.18104M25.0414 11.0424C25.0414 11.0424 24.0376 11.011 24.1003 10.6241C24.184 10.164 25.1669 9.83983 25.1669 9.83983C25.1669 9.83983 26.474 9.00327 26.6727 8.71048M20.7541 13.3116L22.0298 15.748L22.6363 14.8278L22.95 15.4552L23.4729 14.5455L24.3722 15.1206L24.0376 14.0017L24.7905 13.9494C24.7905 13.9494 24.5813 13.4161 23.9121 13.3011C24.0898 13.1652 24.7173 12.7469 24.7173 12.7469C24.7173 12.7469 24.3617 12.3286 23.797 12.3181C23.9853 12.1195 24.2362 11.6384 24.2153 11.6384L23.6611 11.513C23.6611 11.513 24.9369 11.9312 25.9198 11.3456M23.4938 9.37973C23.5042 9.39018 23.4206 9.88166 23.1487 10.164M18.579 10.7182C18.579 10.7182 19.3633 10.5091 19.9489 10.6241C20.5345 10.7496 21.3187 10.9587 21.3187 10.9587C21.3187 10.9587 22.2599 10.8332 22.5631 10.6137M16.6235 11.2411C16.6235 11.2411 16.519 11.6175 16.4771 11.8685C16.4771 12.0463 15.902 12.2868 15.902 12.2868M16.9791 10.4673C16.9791 10.4673 17.481 11.0947 17.5019 11.4607C17.5124 11.8162 17.1255 12.0881 17.1255 12.0881M11.7819 14.7442L11.2591 13.9076L11.7297 13.7403M21.1932 26.3933C20.775 25.8495 21.507 17.5885 23.0441 15.4343C22.5108 19.3243 24.299 23.298 24.7486 23.2771M16.4876 13.1338C16.4876 13.1338 17.1987 13.3952 18.6522 12.2345M20.6286 15.037L21.6743 15.0474M53.0767 8.56408C53.0767 8.56408 35.6448 16.6996 35.3939 17.1388C38.3323 16.2395 50.8179 14.1586 51.1212 14.3363C50.3892 14.5141 35.237 17.9963 34.5259 18.8329C38.3114 18.7074 46.2273 20.0459 47.4717 21.3425C44.7738 20.736 36.7324 19.5544 34.2645 20.0772C36.0631 20.506 42.9647 24.9711 42.9647 25.6822C41.919 24.6888 33.6266 21.2693 33.3025 21.604C35.2056 22.7438 37.8931 26.9789 37.8931 28.0141C37.3389 27.1357 32.5391 21.9804 32.2568 22.315C32.7692 23.0157 33.773 29.1016 33.2606 29.384C33.2606 28.652 31.3993 23.3189 31.2424 23.1725C30.866 23.2771 28.4922 29.6559 28.9628 30.2624C28.6491 28.1291 29.0151 23.6745 29.5902 23.8522C28.5445 24.0091 25.2297 28.3906 25.5852 29.0807C25.6898 27.9827 25.8362 27.2612 27.7184 23.6326C25.627 23.7581 21.3187 26.4665 20.5867 27.439C21.1723 25.7136 24.8218 22.7961 26.4217 22.5869M33.9508 16.2395C35.7912 15.2147 41.4798 13.1338 45.2862 11.5966M30.3745 21.7399C30.3745 21.7399 31.6293 21.719 32.8842 18.31C34.1181 13.6462 43.9372 8.44905 44.1359 7.47655M13.7688 26.4351C13.7688 26.4351 13.476 27.0625 13.1204 27.2298M15.1805 27.3762C15.1805 27.3762 14.7936 28.1291 14.6994 28.4847M16.5294 27.7527C16.5294 27.7527 16.8431 28.7775 16.5817 29.2585M12.7754 25.0652C11.7924 25.6195 13.34 29.1435 18.0143 29.4781M17.2614 27.5749C17.2614 27.5749 17.1359 28.2023 18.0143 29.4572C17.7634 30.8584 19.0809 31.9564 19.6038 32.1342M16.885 14.9638L17.0314 14.5873L17.1882 15.0056L17.4496 14.9951L17.617 14.5769L17.7634 14.9951H18.0143L18.1712 14.535L18.4117 14.9742H18.6208L18.7777 14.4514L19.0914 14.8278L19.2169 14.786L19.3214 14.2422L19.6456 14.6187L19.7502 14.5664L19.8966 14.0436L20.158 14.4305L20.2939 14.3886L20.4194 13.939L20.6704 14.3573M16.5922 15.0056L18.5581 14.9742C19.1855 14.9742 20.2103 14.1063 21.3501 14.3782M12.4721 19.1884C12.4721 19.1884 12.7963 19.8995 13.2459 19.5021M11.7192 19.659C11.7192 19.659 11.0918 21.353 11.8447 21.7504M10.8199 17.7976C10.8199 17.7976 10.8199 18.195 11.6565 17.5885M8.25793 26.6547C8.25793 26.6547 8.91673 26.8638 8.81216 27.3553M8.49845 18.9061C8.49845 18.9061 8.91673 19.1047 9.31409 18.4878M12.8904 38.3247C13.5283 38.2829 13.6747 38.5757 14.2498 38.5757C14.94 38.5966 15.5988 38.3247 16.4458 38.0842M21.9984 39.6528C21.9775 39.6528 21.6847 40.2593 21.9462 40.5625M12.7963 39.705C12.7963 39.705 13.8211 38.8685 14.3648 39.3809C14.8772 39.5586 15.1596 39.5273 15.1596 39.5273M13.3296 37.2999C13.3296 37.2999 13.5805 37.9483 12.744 37.8541M12.493 38.7953C12.493 38.7953 13.0263 39.1299 12.4198 39.5796M12.8172 40.1861C12.8172 40.1861 13.5492 40.2906 13.1204 40.8867M35.854 36.7143C36.5964 37.3104 36.2932 37.6659 38.6355 36.0974M34.7874 37.4568C34.7874 37.4568 35.8853 38.6489 36.6905 37.2058M32.6855 37.8855L31.1901 38.6698M28.5132 39.7678C28.5132 39.7678 29.4229 38.994 29.8412 39.4018C30.2699 39.8201 32.0685 39.0462 32.0685 39.0462M29.1929 36.3902C29.1929 36.3902 29.5066 37.0176 28.9001 37.0908M28.0112 38.3352C28.0112 38.3352 28.3249 38.9208 27.7184 39.0672M28.7118 39.9142C28.7118 39.9142 29.653 39.9665 29.3183 40.6775M37.5166 39.7887C37.5166 39.7887 36.9938 40.2279 37.3807 40.7298M45.0143 36.6516C45.0143 36.6516 45.6104 36.9444 44.8993 37.4359M44.3032 38.4711C44.3032 38.4711 44.7529 38.9417 44.4496 39.3286M45.5581 40.2697C45.5581 40.2697 46.175 40.4475 46.1018 40.9599M54.2374 39.8096C54.2374 39.8096 53.7145 40.1965 53.9969 40.688M45.0352 24.7097C46.2691 24.5633 48.0468 27.3239 48.9566 27.8573M54.3838 20.8092C54.3838 20.8092 55.0112 21.3635 54.457 22.6915M55.5445 18.6969C55.7223 18.8329 56.3915 19.1989 56.8412 20.0354M57.2699 14.5769L56.402 16.9297M58.2424 14.4618C58.2424 14.4618 58.0751 16.5532 57.8241 16.9715M36.565 35.7209C36.565 35.7209 38.5519 35.9301 38.6564 36.0765C38.8865 35.8359 40.6642 34.3824 38.4787 34.1837C38.378 34.6173 38.1346 35.0044 37.7876 35.2832C37.4406 35.5619 37.0101 35.7161 36.565 35.7209V35.7209ZM54.342 20.7883C54.0596 21.6249 51.5395 22.0432 51.3722 20.8092C51.278 20.1818 52.8571 19.2093 54.342 20.7883Z" stroke="black" stroke-width="0.146398" stroke-linejoin="round"/>
<path d="M19.4468 10.5929L20.4193 10.7707C20.4193 10.7707 19.7396 11.6909 19.4468 10.5929Z" fill="black" stroke="black" stroke-width="0.146398" stroke-linejoin="round"/>
</g>
<defs>
<clipPath id="clip0_237_993">
<rect width="66.9248" height="50.1936" fill="white" transform="translate(0.384155)"/>
</clipPath>
</defs>
</svg>
