<svg width="68" height="51" viewBox="0 0 68 51" fill="none" xmlns="http://www.w3.org/2000/svg">
<g clip-path="url(#clip0_237_1005)">
<path d="M16.2084 -9.53674e-06H51.7308V50.1936H16.1979L16.2084 -9.53674e-06Z" fill="white"/>
<path d="M-1.54773 -9.53674e-06H16.2083V50.1936H-1.54773V-9.53674e-06ZM51.7307 -9.53674e-06H69.4867V50.1936H51.7412L51.7307 -9.53674e-06ZM21.5309 24.2602L20.1401 24.7203L26.5607 30.3671C27.0522 31.7997 26.3934 32.2285 25.9751 32.9814L32.9395 32.103L32.7722 39.1092L34.2257 39.0778L33.9015 32.1134L40.8763 32.95C40.4476 32.0403 40.0607 31.5592 40.4581 30.1057L46.8682 24.7726L45.7493 24.3544C44.8291 23.6433 46.1467 20.9454 46.3349 19.2409C46.3349 19.2409 42.6017 20.5271 42.3612 19.8474L41.3992 18.0174L37.9902 21.761C37.6242 21.8551 37.4674 21.7087 37.3732 21.395L38.9418 13.5732L36.453 14.9744C36.2439 15.0685 36.0347 14.9849 35.9093 14.7444L33.5042 9.93414L31.0363 14.9326C30.8481 15.1104 30.6598 15.1313 30.5134 15.0058L28.1188 13.6778L29.5514 21.4264C29.4364 21.7401 29.1645 21.8238 28.8508 21.6564L25.5882 17.9651C25.1699 18.6448 24.8771 19.7533 24.3124 20.0042C23.7478 20.2448 21.855 19.5337 20.5897 19.2722C21.0289 20.8199 22.3674 23.4132 21.5309 24.2602V24.2602Z" fill="#D52B1E"/>
</g>
<defs>
<clipPath id="clip0_237_1005">
<rect width="66.9248" height="50.1936" fill="white" transform="translate(0.512207)"/>
</clipPath>
</defs>
</svg>
