<svg width="81" height="61" viewBox="0 0 81 61" fill="none" xmlns="http://www.w3.org/2000/svg">
<g clip-path="url(#clip0_237_7082)">
<path fill-rule="evenodd" clip-rule="evenodd" d="M0.713379 0.803345H80.4493V60.6053H0.713379V0.803345Z" fill="#FFE800"/>
<path fill-rule="evenodd" clip-rule="evenodd" d="M0.713379 30.7044H80.4493V60.6054H0.713379V30.7044Z" fill="#00148E"/>
<path fill-rule="evenodd" clip-rule="evenodd" d="M0.713379 45.6548H80.4493V60.6052H0.713379V45.6548Z" fill="#DA0010"/>
<path fill-rule="evenodd" clip-rule="evenodd" d="M34.3025 37.0331L25.2574 46.564L25.1079 46.3647L34.128 36.8337L34.2775 37.0331H34.3025ZM40.5817 38.5904L28.7708 51.0492L28.5714 50.8498L40.3699 38.3911L40.5817 38.5904Z" fill="black"/>
<path fill-rule="evenodd" clip-rule="evenodd" d="M28.8076 50.9035L27.7038 52.0073L26.4456 52.9568L27.395 51.6986L28.4989 50.5947L28.8076 50.9035Z" fill="#808080" stroke="black" stroke-width="0.0613628"/>
<path fill-rule="evenodd" clip-rule="evenodd" d="M25.7676 46.0321L24.6637 47.136L23.4055 48.0855L24.355 46.8273L25.4589 45.7234L25.7676 46.0321Z" fill="#808080" stroke="black" stroke-width="0.0613628"/>
<path fill-rule="evenodd" clip-rule="evenodd" d="M26.62 15.1047C26.62 15.1047 25.6277 41.9439 29.597 41.9439C33.5664 41.9439 35.5567 39.1212 35.5567 39.1212L35.5118 24.3701L26.62 15.1047Z" fill="#FFDF00" stroke="black" stroke-width="0.0905091"/>
<path fill-rule="evenodd" clip-rule="evenodd" d="M29.048 17.6083C29.048 19.0196 28.6051 39.1211 30.5898 39.1211C32.5745 39.1211 35.5571 37.7097 35.5571 37.7097L35.5123 24.3699L29.048 17.6083Z" fill="#0000C4" stroke="black" stroke-width="0.0905091"/>
<path fill-rule="evenodd" clip-rule="evenodd" d="M30.3374 18.964C30.3374 20.3753 30.5897 36.2986 32.58 36.2986H35.557L35.5121 24.3701L30.3374 18.964Z" fill="#E10000" stroke="black" stroke-width="0.0905091"/>
<path fill-rule="evenodd" clip-rule="evenodd" d="M26.4033 15.2552L35.4235 24.7861L35.5854 24.5868L26.5653 15.0558L26.4033 15.2552Z" fill="black"/>
<path fill-rule="evenodd" clip-rule="evenodd" d="M23.6744 20.6048C23.6744 20.6048 21.1164 46.6052 28.7905 46.6052C35.1856 46.6052 35.1856 42.5035 36.4646 42.5035L35.1856 32.9253L23.6672 20.6048H23.6744Z" fill="#FFDF00" stroke="black" stroke-width="0.101136"/>
<path d="M30.0142 24.9273C30.069 24.9232 32.0101 20.7226 36.8615 18.0638" stroke="black" stroke-width="0.10956"/>
<path fill-rule="evenodd" clip-rule="evenodd" d="M29.22 20.9677C29.8965 21.2834 30.3246 21.6467 30.7143 22.0703C29.9401 21.908 29.5407 21.8425 28.8642 21.5268C28.1877 21.2111 27.6709 20.7282 27.2602 20.3375C27.7638 20.4907 28.5397 20.6502 29.22 20.9677Z" fill="#005B00" stroke="black" stroke-width="0.0495537"/>
<path fill-rule="evenodd" clip-rule="evenodd" d="M30.9143 23.5409C30.9639 23.6251 30.9212 23.7438 30.8164 23.802C30.7116 23.8602 30.586 23.8378 30.5353 23.7515C30.4845 23.6651 30.5296 23.5507 30.6344 23.4925C30.7391 23.4342 30.8648 23.4567 30.9143 23.5409Z" fill="#FF0000" stroke="black" stroke-width="0.0339879"/>
<path fill-rule="evenodd" clip-rule="evenodd" d="M33.0432 18.2792C32.7501 19.0233 32.4267 19.5137 32.0539 19.9712C32.2215 19.1433 32.2926 18.7184 32.5857 17.9742C32.8789 17.23 33.3067 16.6328 33.6526 16.1573C33.5033 16.7015 33.338 17.5309 33.0432 18.2792Z" fill="#005B00" stroke="black" stroke-width="0.0467173"/>
<path fill-rule="evenodd" clip-rule="evenodd" d="M32.0533 18.2402C31.9856 18.9844 31.8374 19.5607 31.6425 20.1453C31.5915 19.4221 31.5535 19.0606 31.6212 18.3165C31.6889 17.5723 31.8964 16.848 32.0659 16.2679C32.0682 16.7691 32.1213 17.492 32.0533 18.2402Z" fill="#005B00" stroke="black" stroke-width="0.0403367"/>
<path fill-rule="evenodd" clip-rule="evenodd" d="M32.6996 19.0915C32.3163 19.5425 31.9939 19.7381 31.655 19.8651C31.9965 19.2397 32.1638 18.9071 32.5472 18.4561C32.9305 18.0051 33.3414 17.7933 33.6713 17.6288C33.4259 18.0094 33.0851 18.638 32.6996 19.0915Z" fill="#005B00" stroke="black" stroke-width="0.0438128"/>
<path fill-rule="evenodd" clip-rule="evenodd" d="M29.4337 19.7216C29.8847 20.2628 30.109 20.7841 30.2784 21.3602C29.6879 20.9585 29.3764 20.7711 28.9254 20.2299C28.4744 19.6887 28.2202 19.011 28.0209 18.4648C28.3872 18.7782 28.9802 19.1774 29.4337 19.7216Z" fill="#005B00" stroke="black" stroke-width="0.0501338"/>
<path fill-rule="evenodd" clip-rule="evenodd" d="M28.5257 23.8929C29.0895 24.3439 29.387 24.8089 29.6242 25.3341C28.9069 25.0366 28.5303 24.903 27.9666 24.452C27.4028 24.001 27.0597 23.3911 26.7896 22.8987C27.2388 23.1446 27.9588 23.4394 28.5257 23.8929Z" fill="#005B00" stroke="black" stroke-width="0.0532287"/>
<path fill-rule="evenodd" clip-rule="evenodd" d="M31.1656 23.6458C30.7146 24.3674 30.2267 24.8523 29.6676 25.3098C29.9372 24.5184 30.0538 24.1133 30.5048 23.3917C30.9558 22.6701 31.5997 22.077 32.1199 21.6046C31.8855 22.1276 31.6191 22.9202 31.1656 23.6458Z" fill="#005B00" stroke="black" stroke-width="0.0546813"/>
<path fill-rule="evenodd" clip-rule="evenodd" d="M31.6369 23.6171C30.9153 24.1132 30.2872 24.3713 29.6179 24.5747C30.2348 23.939 30.5341 23.6049 31.2557 23.1088C31.9773 22.6126 32.7821 22.3161 33.429 22.0829C32.9776 22.4801 32.3625 23.1182 31.6369 23.6171Z" fill="#005B00" stroke="black" stroke-width="0.0525492"/>
<path fill-rule="evenodd" clip-rule="evenodd" d="M36.5018 18.4314C36.1861 18.7922 35.9031 19.006 35.5981 19.1924C35.858 18.7618 35.9828 18.5381 36.2985 18.1773C36.6142 17.8165 36.9785 17.5623 37.2715 17.361C37.0782 17.6368 36.8193 18.0686 36.5018 18.4314Z" fill="#005B00" stroke="black" stroke-width="0.0278286"/>
<path fill-rule="evenodd" clip-rule="evenodd" d="M35.8176 17.3672C35.6372 17.7506 35.4443 18.0386 35.2241 18.3267C35.3347 17.9433 35.383 17.7506 35.5634 17.3672C35.7438 16.9839 35.998 16.6238 36.2033 16.3358C36.1084 16.5984 35.999 16.9817 35.8176 17.3672Z" fill="#005B00" stroke="black" stroke-width="0.0231174"/>
<path fill-rule="evenodd" clip-rule="evenodd" d="M36.8742 18.055C36.5585 18.2354 36.3213 18.2907 36.0841 18.3077C36.3998 18.0296 36.5585 17.8796 36.8742 17.6992C37.1899 17.5188 37.4864 17.4679 37.7236 17.4301C37.5073 17.5938 37.1916 17.8736 36.8742 18.055Z" fill="#005B00" stroke="black" stroke-width="0.0253398"/>
<path fill-rule="evenodd" clip-rule="evenodd" d="M32.5175 20.0761C31.9537 20.4144 31.49 20.6112 31.0071 20.7806C31.5221 20.3726 31.7758 20.1602 32.3396 19.8219C32.9034 19.4837 33.4922 19.2507 33.9646 19.0663C33.5984 19.3267 33.0844 19.736 32.5175 20.0761Z" fill="#005B00" stroke="black" stroke-width="0.0318161"/>
<path fill-rule="evenodd" clip-rule="evenodd" d="M34.1631 20.5815C33.419 21.0325 32.7853 21.2453 32.116 21.3978C32.7695 20.7933 33.0886 20.4733 33.8327 20.0223C34.5769 19.5713 35.3859 19.3341 36.0358 19.1487C35.5632 19.5207 34.9114 20.128 34.1631 20.5815Z" fill="#005B00" stroke="black" stroke-width="0.05296"/>
<path d="M29.1061 27.8806C29.154 27.8532 28.7005 23.8963 31.7276 19.7804" stroke="black" stroke-width="0.107842"/>
<path fill-rule="evenodd" clip-rule="evenodd" d="M33.7424 19.5413C33.792 19.6255 33.7494 19.7442 33.6446 19.8024C33.5398 19.8606 33.4142 19.8382 33.3634 19.7518C33.3126 19.6655 33.3577 19.551 33.4625 19.4928C33.5673 19.4346 33.6929 19.457 33.7424 19.5413Z" fill="#FF0000" stroke="black" stroke-width="0.0339879"/>
<path fill-rule="evenodd" clip-rule="evenodd" d="M35.0881 18.7563C35.1377 18.8405 35.0951 18.9592 34.9903 19.0174C34.8855 19.0757 34.7599 19.0532 34.7091 18.9669C34.6583 18.8806 34.7034 18.7661 34.8082 18.7079C34.913 18.6497 35.0386 18.6721 35.0881 18.7563Z" fill="#FF0000" stroke="black" stroke-width="0.0339879"/>
<path fill-rule="evenodd" clip-rule="evenodd" d="M31.3331 21.3945C31.3678 21.4589 31.3031 21.5608 31.1867 21.619C31.0702 21.6772 30.9475 21.6711 30.9119 21.6051C30.8764 21.5391 30.9428 21.4405 31.0592 21.3823C31.1757 21.324 31.2984 21.3301 31.3331 21.3945Z" fill="#FF0000" stroke="black" stroke-width="0.0306445"/>
<path fill-rule="evenodd" clip-rule="evenodd" d="M31.732 21.2197C31.7667 21.2841 31.7021 21.386 31.5856 21.4442C31.4692 21.5024 31.3464 21.4963 31.3109 21.4303C31.2753 21.3643 31.3417 21.2657 31.4581 21.2075C31.5746 21.1492 31.6973 21.1553 31.732 21.2197Z" fill="#FF0000" stroke="black" stroke-width="0.0306445"/>
<path fill-rule="evenodd" clip-rule="evenodd" d="M31.4952 21.5941C31.5299 21.6585 31.4652 21.7604 31.3488 21.8186C31.2324 21.8768 31.1096 21.8707 31.074 21.8047C31.0385 21.7387 31.1049 21.6401 31.2213 21.5819C31.3378 21.5237 31.4605 21.5297 31.4952 21.5941Z" fill="#FF0000" stroke="black" stroke-width="0.0306445"/>
<path fill-rule="evenodd" clip-rule="evenodd" d="M32.1946 21.6462C32.2441 21.7453 32.1946 21.8691 32.0707 21.9311C31.9468 21.993 31.8229 21.9558 31.7734 21.8443C31.7238 21.7329 31.7734 21.6214 31.8973 21.5594C32.0211 21.4975 32.145 21.5347 32.1822 21.6462H32.1946Z" fill="#FF0000" stroke="black" stroke-width="0.0379471"/>
<path fill-rule="evenodd" clip-rule="evenodd" d="M32.4834 21.3476C32.5208 21.4473 32.4834 21.5719 32.3589 21.6341C32.2343 21.6964 32.1097 21.6591 32.0474 21.5594C31.9851 21.4597 32.0474 21.3227 32.172 21.2604C32.2966 21.1981 32.4211 21.2479 32.471 21.3476H32.4834Z" fill="#FF0000" stroke="black" stroke-width="0.0379471"/>
<path fill-rule="evenodd" clip-rule="evenodd" d="M32.5432 21.4839C32.5927 21.583 32.5432 21.7192 32.4193 21.7688C32.2954 21.8183 32.1716 21.7936 32.122 21.6945C32.0725 21.5954 32.122 21.4715 32.2459 21.4096C32.3698 21.3476 32.4936 21.3848 32.5432 21.4839Z" fill="#FF0000" stroke="black" stroke-width="0.0379471"/>
<path fill-rule="evenodd" clip-rule="evenodd" d="M26.2322 23.3467C26.2322 24.7139 23.6742 39.7688 30.0765 43.8705C32.6345 45.2377 36.4715 42.5032 36.4715 43.8705L35.1925 32.925L26.2322 23.3467Z" fill="#0000C4" stroke="black" stroke-width="0.101136"/>
<path fill-rule="evenodd" clip-rule="evenodd" d="M28.7906 26.081C28.7906 27.4482 27.5116 38.3937 31.3559 41.1359C33.9139 43.8704 40.3162 43.1288 40.3162 43.1288L35.1929 32.9249L28.7906 26.081Z" fill="#E10000" stroke="black" stroke-width="0.101136"/>
<path fill-rule="evenodd" clip-rule="evenodd" d="M23.6123 20.4878L35.4232 32.9465L35.635 32.7472L23.8241 20.3009L23.6248 20.5002L23.6123 20.4878Z" fill="black"/>
<path fill-rule="evenodd" clip-rule="evenodd" d="M21.7951 19.0111L22.5449 19.1434L22.7654 19.3639C22.7353 19.3617 22.9859 19.5845 22.6772 19.8932C22.3685 20.2019 21.9292 19.7591 21.9292 19.7591C21.9292 19.7591 22.0615 20.5089 22.5038 20.9512C22.9461 21.3935 23.4741 21.304 23.4741 21.304C23.4741 21.304 22.9715 20.8921 23.3417 20.5543C23.7125 20.2134 23.871 20.466 23.871 20.466L24.312 20.9071L24.6225 20.5966L22.8571 18.8312L22.7248 18.0814L21.5876 17.8931L21.7956 19.0081L21.7951 19.0111Z" fill="#CECECC" stroke="black" stroke-width="0.0282212"/>
<path fill-rule="evenodd" clip-rule="evenodd" d="M23.5348 13.7753L24.442 15.1817L25.5905 15.4917L24.8407 15.9768L26.2079 15.9327L26.8271 16.375L27.0489 16.0202L26.428 15.5766L25.9441 14.2074L25.8105 15.1356L25.1043 14.1179L23.5343 13.7721L23.5348 13.7753Z" fill="#CECECC" stroke="black" stroke-width="0.0303866"/>
<path fill-rule="evenodd" clip-rule="evenodd" d="M27.2258 14.6202C27.2258 14.6949 27.1261 14.7585 27.0115 14.7585C26.8969 14.7585 26.7922 14.6949 26.7922 14.6202C26.7922 14.5454 26.8919 14.4781 27.0115 14.4781C27.1311 14.4781 27.2258 14.5417 27.2258 14.6202ZM26.9168 14.9154C26.9168 16.2535 27.9583 21.9347 28.0431 22.073C28.048 22.2412 27.8038 22.3122 27.6892 22.1066C27.3603 21.4563 26.6527 16.1264 26.6277 14.8818C26.6128 14.3698 26.8121 14.3286 27.0414 14.3399C27.2258 14.3473 27.455 14.4781 27.455 14.6351C27.455 14.822 27.166 14.9603 26.9168 14.9154Z" fill="#E10000" stroke="black" stroke-width="0.0584234"/>
<path fill-rule="evenodd" clip-rule="evenodd" d="M27.6243 15.9468C27.5869 16.0215 27.4604 16.0602 27.3515 16.0315C27.2427 16.0029 27.175 15.9131 27.2124 15.8384C27.2498 15.7636 27.3781 15.7213 27.4917 15.7512C27.6053 15.7811 27.6635 15.8683 27.6243 15.9468ZM27.1831 16.1648C27.527 18.8522 26.3734 23.0022 26.3829 23.1654C26.3054 23.3311 26.036 23.3448 26.0318 23.1068C25.9751 22.9523 27.3031 19.2035 26.9253 16.0589C27.1672 15.5431 27.3771 15.5518 27.5893 15.6204C27.7607 15.6739 27.9131 15.8621 27.8346 16.019C27.7411 16.2059 27.3974 16.272 27.1831 16.1648Z" fill="#0000C4" stroke="black" stroke-width="0.0612274"/>
<path fill-rule="evenodd" clip-rule="evenodd" d="M23.9738 19.6782C23.9738 19.8028 23.8492 19.9274 23.6997 19.9274C23.5502 19.9274 23.4256 19.8028 23.4256 19.6782C23.4256 19.5536 23.5502 19.4539 23.6997 19.4539C23.8492 19.4539 23.9614 19.5536 23.9614 19.6782H23.9738ZM23.5751 20.1765C23.5751 22.4067 24.8833 31.8753 24.983 32.112C24.983 32.3861 24.6964 32.5107 24.5469 32.1619C24.1358 31.0779 23.2512 22.1949 23.2138 20.1267C23.2014 19.2671 23.4505 19.2048 23.7371 19.2172C23.9738 19.2297 24.2479 19.4539 24.2479 19.7156C24.2479 20.0146 23.8866 20.2513 23.5751 20.1765Z" fill="#E10000" stroke="black" stroke-width="0.0885432"/>
<path fill-rule="evenodd" clip-rule="evenodd" d="M24.6469 20.8287C24.5971 20.9483 24.4351 21.0126 24.2976 20.9696C24.16 20.9266 24.0768 20.7857 24.1266 20.6661C24.1765 20.5465 24.3409 20.4762 24.4845 20.5211C24.628 20.5659 24.6992 20.7031 24.6469 20.8287ZM24.0793 21.1853C24.4331 25.4458 22.8379 32.0644 22.8449 32.3234C22.7412 32.5884 22.3984 32.6164 22.4004 32.2385C22.3331 31.9945 24.1376 26.009 23.7549 21.023C24.0783 20.1981 24.3449 20.2071 24.6125 20.311C24.8288 20.3921 25.0167 20.6874 24.912 20.9386C24.7875 21.2376 24.3484 21.3505 24.0793 21.1853Z" fill="#0000C4" stroke="black" stroke-width="0.0862452"/>
<path fill-rule="evenodd" clip-rule="evenodd" d="M46.8607 37.0331L55.8933 46.5641L56.0553 46.3647L47.0227 36.8338L46.8607 37.0331ZM40.5815 38.5905L52.3924 51.0492L52.5918 50.8499L40.7933 38.3911L40.5815 38.5905Z" fill="black"/>
<path fill-rule="evenodd" clip-rule="evenodd" d="M52.356 50.9035L53.4598 52.0073L54.718 52.9568L53.7685 51.6986L52.6647 50.5947L52.356 50.9035Z" fill="#808080" stroke="black" stroke-width="0.0613628"/>
<path fill-rule="evenodd" clip-rule="evenodd" d="M55.396 46.0321L56.4998 47.136L57.758 48.0855L56.8086 46.8273L55.7047 45.7234L55.396 46.0321Z" fill="#808080" stroke="black" stroke-width="0.0613628"/>
<path fill-rule="evenodd" clip-rule="evenodd" d="M54.5431 15.1045C54.5431 15.1045 55.5354 41.9436 51.566 41.9436C47.5967 41.9436 45.6064 39.121 45.6064 39.121L45.6513 24.3698L54.5431 15.1045Z" fill="#FFDF00" stroke="black" stroke-width="0.0905091"/>
<path fill-rule="evenodd" clip-rule="evenodd" d="M52.115 17.6084C52.115 19.0197 52.558 39.1212 50.5733 39.1212C48.5886 39.1212 45.606 37.7098 45.606 37.7098L45.6508 24.37L52.115 17.6084Z" fill="#0000C4" stroke="black" stroke-width="0.0905091"/>
<path fill-rule="evenodd" clip-rule="evenodd" d="M50.8262 18.9642C50.8262 20.3755 50.5739 36.2988 48.5836 36.2988H45.6066L45.6514 24.3703L50.8262 18.9642Z" fill="#E10000" stroke="black" stroke-width="0.0905091"/>
<path fill-rule="evenodd" clip-rule="evenodd" d="M54.7597 15.2552L45.7396 24.7862L45.5776 24.5868L54.5978 15.0559L54.7597 15.2552Z" fill="black"/>
<path fill-rule="evenodd" clip-rule="evenodd" d="M47.6396 22.6151C47.6396 22.6151 50.1683 25.8594 51.3882 28.3667C52.6072 30.8792 54.0305 34.7078 54.0305 34.7078C54.0305 34.7078 53.2172 30.9386 51.6823 27.9167C49.6709 24.1151 47.6387 22.8314 47.6396 22.6151Z" fill="#005B00" stroke="black" stroke-width="0.0422313"/>
<path fill-rule="evenodd" clip-rule="evenodd" d="M47.552 20.0385C47.552 20.0385 50.3738 24.0509 51.6618 27.0266C52.9481 30.008 54.3804 34.477 54.3804 34.477C54.3804 34.477 53.6852 30.1774 52.0543 26.58C49.905 22.0406 47.5339 20.2771 47.552 20.0385Z" fill="#005B00" stroke="black" stroke-width="0.0487976"/>
<path fill-rule="evenodd" clip-rule="evenodd" d="M49.9877 16.0712C49.9877 16.0712 51.9841 22.0127 52.5925 25.6868C53.1976 29.3641 53.5671 34.4249 53.5671 34.4249C53.5671 34.4249 53.9516 30.1775 53.1362 25.6686C52.008 19.896 49.905 16.2553 49.9877 16.0712Z" fill="#005B00" stroke="black" stroke-width="0.0554268"/>
<path fill-rule="evenodd" clip-rule="evenodd" d="M48.1949 15.799C48.1949 15.799 50.9594 21.0757 52.0362 24.6614C53.1101 28.2523 54.12 33.4329 54.12 33.4329C54.12 33.4329 53.9742 28.7267 52.5832 24.3618C50.7173 18.8168 48.1345 16.0371 48.1949 15.799Z" fill="#005B00" stroke="black" stroke-width="0.0561654"/>
<path fill-rule="evenodd" clip-rule="evenodd" d="M51.5148 17.4784C51.5148 17.4784 52.8905 23.1596 53.2361 26.549C53.5789 29.9407 53.6771 34.5167 53.6771 34.5167C53.6771 34.5167 54.155 30.8133 53.6754 26.6402C52.9934 21.2808 51.4408 17.6259 51.5148 17.4784Z" fill="#005B00" stroke="black" stroke-width="0.0498086"/>
<path fill-rule="evenodd" clip-rule="evenodd" d="M47.8793 17.6346C47.8793 17.6346 50.5537 22.1546 51.636 25.3142C52.7158 28.4787 53.779 33.1034 53.779 33.1034C53.779 33.1034 53.5207 28.8176 52.1296 24.9803C50.2719 20.1164 47.8302 17.8589 47.8793 17.6346Z" fill="#005B00" stroke="black" stroke-width="0.051227"/>
<path fill-rule="evenodd" clip-rule="evenodd" d="M47.3777 20.783C47.3777 20.783 50.1995 24.3662 51.4875 27.1105C52.7738 29.8604 54.2061 34.0359 54.2061 34.0359C54.2061 34.0359 53.5109 29.9452 51.88 26.6355C49.7306 22.4692 47.3596 21.0161 47.3777 20.783Z" fill="#005B00" stroke="black" stroke-width="0.0482584"/>
<path fill-rule="evenodd" clip-rule="evenodd" d="M47.7439 19.1368C47.7439 19.1368 50.3397 23.3522 51.4697 26.4015C52.5978 29.4561 53.7988 33.9874 53.7988 33.9874C53.7988 33.9874 53.3179 29.6934 51.879 26C49.9728 21.3308 47.7146 19.3697 47.7439 19.1368Z" fill="#005B00" stroke="black" stroke-width="0.0481549"/>
<path fill-rule="evenodd" clip-rule="evenodd" d="M50.5551 16.1613C50.5551 16.1613 52.2239 21.9784 52.6375 25.5312C53.0478 29.087 53.1549 33.9476 53.1549 33.9476C53.1549 33.9476 53.751 29.9172 53.1754 25.5523C52.3553 19.9579 50.464 16.3313 50.5551 16.1613Z" fill="#005B00" stroke="black" stroke-width="0.0538782"/>
<path fill-rule="evenodd" clip-rule="evenodd" d="M48.2646 14.7112C48.2646 14.7112 50.7016 20.191 51.5837 23.8502C52.4627 27.5143 53.2103 32.7572 53.2103 32.7572C53.2103 32.7572 53.276 28.0565 52.1249 23.5957C50.567 17.9209 48.1959 14.9436 48.2646 14.7112Z" fill="#005B00" stroke="black" stroke-width="0.0553912"/>
<path fill-rule="evenodd" clip-rule="evenodd" d="M52.1451 17.8945C52.1451 17.8945 53.1932 23.3497 53.3441 26.5811C53.4921 29.8146 53.3279 34.1594 53.3279 34.1594C53.3279 34.1594 54.0174 30.6702 53.7775 26.689C53.4037 21.5728 52.0627 18.0308 52.1451 17.8945Z" fill="#005B00" stroke="black" stroke-width="0.0478924"/>
<path fill-rule="evenodd" clip-rule="evenodd" d="M47.9531 16.9703C47.9531 16.9703 50.3901 21.6934 51.2721 24.9265C52.1512 28.1642 52.8987 32.8512 52.8987 32.8512C52.8987 32.8512 52.9645 28.5709 51.8133 24.6377C50.2555 19.644 47.8844 17.1888 47.9531 16.9703Z" fill="#005B00" stroke="black" stroke-width="0.0523459"/>
<path fill-rule="evenodd" clip-rule="evenodd" d="M57.4887 20.6049C57.4887 20.6049 60.0467 46.6053 52.3726 46.6053C45.9775 46.6053 45.9775 42.5037 44.6985 42.5037L45.9775 32.9254L57.4959 20.6049H57.4887Z" fill="#FFDF00" stroke="black" stroke-width="0.101136"/>
<path fill-rule="evenodd" clip-rule="evenodd" d="M54.9309 23.3468C54.9309 24.7141 57.4889 39.769 51.0866 43.8706C48.5286 45.2378 44.6915 42.5034 44.6915 43.8706L45.9706 32.9251L54.9309 23.3468Z" fill="#0000C4" stroke="black" stroke-width="0.101136"/>
<path fill-rule="evenodd" clip-rule="evenodd" d="M52.373 26.0811C52.373 27.4483 53.652 38.3938 49.8077 41.136C47.2497 43.8705 40.8474 43.1289 40.8474 43.1289L45.9707 32.925L52.373 26.0811Z" fill="#E10000" stroke="black" stroke-width="0.101136"/>
<path fill-rule="evenodd" clip-rule="evenodd" d="M57.5505 20.4879L45.7396 32.9467L45.5278 32.7473L57.3387 20.301L57.5505 20.5004V20.4879Z" fill="black"/>
<path fill-rule="evenodd" clip-rule="evenodd" d="M59.3675 19.0113L58.6177 19.1436L58.3972 19.3641C58.4273 19.3619 58.1767 19.5846 58.4854 19.8933C58.7941 20.2021 59.2334 19.7593 59.2334 19.7593C59.2334 19.7593 59.1011 20.5091 58.6588 20.9513C58.2165 21.3936 57.6885 21.3042 57.6885 21.3042C57.6885 21.3042 58.1911 20.8923 57.8209 20.5544C57.4501 20.2135 57.2916 20.4662 57.2916 20.4662L56.8506 20.9072L56.5401 20.5968L58.3055 18.8314L58.4378 18.0816L59.575 17.8932L59.367 19.0083L59.3675 19.0113Z" fill="#CECECC" stroke="black" stroke-width="0.0282212"/>
<path fill-rule="evenodd" clip-rule="evenodd" d="M57.6278 13.7752L56.7206 15.1815L55.5721 15.4915L56.3219 15.9766L54.9547 15.9325L54.3355 16.3748L54.1137 16.02L54.7346 15.5764L55.2185 14.2072L55.3521 15.1354L56.0583 14.1178L57.6283 13.7719L57.6278 13.7752Z" fill="#CECECC" stroke="black" stroke-width="0.0303866"/>
<path fill-rule="evenodd" clip-rule="evenodd" d="M53.9495 14.6199C53.9495 14.6947 54.0492 14.7582 54.1638 14.7582C54.2784 14.7582 54.3831 14.6947 54.3831 14.6199C54.3831 14.5451 54.2834 14.4779 54.1638 14.4779C54.0442 14.4779 53.9495 14.5414 53.9495 14.6199ZM54.2585 14.9152C54.2585 16.2532 53.217 21.9344 53.1322 22.0727C53.1273 22.2409 53.3714 22.3119 53.4861 22.1064C53.815 21.456 54.5226 16.1262 54.5475 14.8815C54.5625 14.3695 54.3632 14.3284 54.1339 14.3396C53.9495 14.3471 53.7203 14.4779 53.7203 14.6348C53.7203 14.8217 54.0093 14.96 54.2585 14.9152Z" fill="#E10000" stroke="black" stroke-width="0.0584234"/>
<path fill-rule="evenodd" clip-rule="evenodd" d="M53.5388 15.9466C53.5762 16.0214 53.7027 16.06 53.8115 16.0313C53.9204 16.0027 53.9881 15.913 53.9507 15.8382C53.9133 15.7635 53.785 15.7211 53.6714 15.751C53.5578 15.7809 53.4996 15.8681 53.5388 15.9466ZM53.98 16.1646C53.6361 18.852 54.7897 23.002 54.7802 23.1652C54.8577 23.3309 55.1271 23.3446 55.1313 23.1066C55.188 22.9522 53.86 19.2033 54.2378 16.0587C53.9959 15.5429 53.786 15.5517 53.5738 15.6202C53.4024 15.6738 53.25 15.8619 53.3285 16.0189C53.422 16.2057 53.7657 16.2718 53.98 16.1646Z" fill="#0000C4" stroke="black" stroke-width="0.0612274"/>
<path fill-rule="evenodd" clip-rule="evenodd" d="M57.2013 19.678C57.2013 19.8026 57.3259 19.9272 57.4629 19.9272C57.6124 19.9272 57.737 19.8026 57.737 19.678C57.737 19.5534 57.6124 19.4538 57.4629 19.4538C57.3134 19.4538 57.2013 19.5534 57.2013 19.678ZM57.5751 20.1764C57.2768 24.1726 56.8112 28.1546 56.1797 32.1118C56.1797 32.3859 56.4662 32.5105 56.6157 32.1617C57.0269 31.0778 57.9115 22.1947 57.9488 20.1265C57.9613 19.2669 57.7121 19.2046 57.4256 19.217C57.1888 19.2295 56.9148 19.4538 56.9148 19.7154C56.9148 20.0144 57.2761 20.2511 57.5875 20.1764H57.5751Z" fill="#E10000" stroke="black" stroke-width="0.0885432"/>
<path fill-rule="evenodd" clip-rule="evenodd" d="M56.5162 20.8287C56.566 20.9483 56.728 21.0126 56.8655 20.9697C57.0031 20.9267 57.0863 20.7858 57.0364 20.6662C56.9866 20.5466 56.8222 20.4763 56.6786 20.5211C56.5351 20.566 56.4638 20.7032 56.5162 20.8287ZM57.0838 21.1853C56.73 25.4458 58.3252 32.0644 58.3182 32.3234C58.4219 32.5884 58.7647 32.6165 58.7627 32.2386C58.83 31.9945 57.0255 26.0091 57.4082 21.0231C57.0848 20.1982 56.8182 20.2072 56.5506 20.3111C56.3343 20.3922 56.1464 20.6875 56.251 20.9386C56.3756 21.2376 56.8147 21.3505 57.0838 21.1853Z" fill="#0000C4" stroke="black" stroke-width="0.0862452"/>
<path fill-rule="evenodd" clip-rule="evenodd" d="M36.4794 53.4487C37.0632 53.8072 37.7247 53.9959 38.3979 53.9959C39.0712 53.9959 39.7327 53.8072 40.3164 53.4487V42.5032H37.7584C39.0374 46.6049 39.0374 50.7143 36.4722 53.4487H36.4794Z" fill="#E10000" stroke="black" stroke-width="0.101136"/>
<path fill-rule="evenodd" clip-rule="evenodd" d="M38.5046 42.745C38.5046 50.4632 36.6514 52.1813 36.6514 53.7336C37.4232 53.7336 37.9377 53.0098 38.5046 52.0155C39.2764 50.4632 39.3506 42.6229 39.2764 42.745H38.5046Z" fill="#0000C4" stroke="black" stroke-width="0.0834794"/>
<path fill-rule="evenodd" clip-rule="evenodd" d="M36.9608 42.7453C36.9216 47.2541 35.0073 51.4315 35.3692 52.356C35.7791 53.1845 36.9608 50.4635 38.5045 52.0071C39.2763 50.4635 39.3504 42.6232 39.2763 42.7366H36.9608V42.7453Z" fill="#0000C4" stroke="black" stroke-width="0.0834794"/>
<path fill-rule="evenodd" clip-rule="evenodd" d="M37.1341 42.0877C37.1341 47.1597 35.3594 47.4978 35.3594 48.8503C36.1312 48.8503 37.1298 48.111 37.1341 48.1798C37.9059 47.1597 37.9801 42.0075 37.9059 42.0877H37.1341Z" fill="#FFDF00" stroke="black" stroke-width="0.067672"/>
<path fill-rule="evenodd" clip-rule="evenodd" d="M35.5905 42.0878C35.5513 45.0507 33.6806 47.5724 34.0425 48.1799C34.4568 48.7186 35.5905 47.1597 37.1342 48.1799C37.906 47.1597 37.9801 42.0075 37.906 42.0878H35.5905Z" fill="#FFDF00" stroke="black" stroke-width="0.067672"/>
<path fill-rule="evenodd" clip-rule="evenodd" d="M44.6842 53.4487C44.1004 53.8072 43.4389 53.9959 42.7657 53.9959C42.0924 53.9959 41.4309 53.8072 40.8471 53.4487V42.5032H43.4052C42.1262 46.6049 42.1262 50.7143 44.6914 53.4487H44.6842Z" fill="#E10000" stroke="black" stroke-width="0.101136"/>
<path fill-rule="evenodd" clip-rule="evenodd" d="M42.6585 42.745C42.6585 50.4632 44.5117 52.1813 44.5117 53.7336C43.7399 53.7336 43.2254 53.0098 42.6585 52.0155C41.8867 50.4632 41.8125 42.6229 41.8867 42.745H42.6585Z" fill="#0000C4" stroke="black" stroke-width="0.0834794"/>
<path fill-rule="evenodd" clip-rule="evenodd" d="M44.2017 42.7453C44.241 47.2541 46.1553 51.4315 45.7934 52.356C45.3835 53.1845 44.2017 50.4635 42.6581 52.0071C41.8863 50.4635 41.8122 42.6232 41.8863 42.7366H44.2017V42.7453Z" fill="#0000C4" stroke="black" stroke-width="0.0834794"/>
<path fill-rule="evenodd" clip-rule="evenodd" d="M44.029 42.0877C44.029 47.1597 45.8037 47.4978 45.8037 48.8503C45.0319 48.8503 44.0333 48.111 44.029 48.1798C43.2571 47.1597 43.183 42.0075 43.2571 42.0877H44.029Z" fill="#FFDF00" stroke="black" stroke-width="0.067672"/>
<path fill-rule="evenodd" clip-rule="evenodd" d="M45.5725 42.0877C45.6118 45.0507 47.4825 47.5723 47.1205 48.1798C46.7063 48.7185 45.5725 47.1597 44.0289 48.1798C43.2571 47.1597 43.183 42.0075 43.2571 42.0877H45.5725Z" fill="#FFDF00" stroke="black" stroke-width="0.067672"/>
<path fill-rule="evenodd" clip-rule="evenodd" d="M30.8176 43.3569L29.4766 44.3272L30.8176 45.2975L31.4874 44.8123L31.8223 45.2975L32.1572 46.2678L32.4936 45.2975L32.8285 44.8123H50.7975V43.842H32.827L32.4921 43.3542C32.4921 42.869 32.5623 42.3839 32.8285 42.3839H34.168C34.168 41.8987 33.4982 40.9284 32.1572 40.9284C30.8176 40.9284 30.1463 41.8987 30.1463 42.3839H31.4874C31.752 42.3839 31.8223 42.869 31.8223 43.3569L31.4874 43.842L30.8161 43.3542L30.8176 43.3569Z" fill="#908F8A" stroke="black" stroke-width="0.0924851"/>
<path fill-rule="evenodd" clip-rule="evenodd" d="M34.751 45.7091H46.4966V46.3045H34.7545L34.751 45.7091ZM34.751 45.1103H46.4966V45.7091H34.7545L34.751 45.1103ZM34.751 44.5149H46.4966V45.1137H34.7545L34.751 44.5149ZM34.751 43.9195H46.4966V44.5149H34.7545L34.751 43.9195ZM34.751 43.3241H46.4966V43.9195H34.7545L34.751 43.3241ZM34.751 42.7253H46.4966V43.3241H34.7545L34.751 42.7253ZM34.751 42.1333H46.4966V42.7253H34.7545L34.751 42.1333Z" fill="#B74D00" stroke="black" stroke-width="0.0626023"/>
<path fill-rule="evenodd" clip-rule="evenodd" d="M35.311 42.0982L39.6031 46.2694H40.2167L35.9277 42.1016H35.3141L35.311 42.0982Z" fill="#908F8A" stroke="black" stroke-width="0.108448"/>
<path fill-rule="evenodd" clip-rule="evenodd" d="M35.311 46.3954L39.6031 42.2243H40.2167L35.9277 46.3921H35.3141L35.311 46.3954Z" fill="#908F8A" stroke="black" stroke-width="0.108448"/>
<path fill-rule="evenodd" clip-rule="evenodd" d="M35.4302 42.0982V46.2694H36.0476V42.0982H35.4302Z" fill="#908F8A" stroke="black" stroke-width="0.107815"/>
<path fill-rule="evenodd" clip-rule="evenodd" d="M40.8301 42.0982L45.1221 46.2694H45.7357L41.4468 42.1016H40.8332L40.8301 42.0982Z" fill="#908F8A" stroke="black" stroke-width="0.108448"/>
<path fill-rule="evenodd" clip-rule="evenodd" d="M40.8301 46.3954L45.1221 42.2243H45.7357L41.4468 46.3921H40.8332L40.8301 46.3954Z" fill="#908F8A" stroke="black" stroke-width="0.108448"/>
<path fill-rule="evenodd" clip-rule="evenodd" d="M45.248 42.0982V46.2694H45.8655V42.0982H45.248Z" fill="#908F8A" stroke="black" stroke-width="0.107815"/>
<path fill-rule="evenodd" clip-rule="evenodd" d="M40.9624 42.0982V46.2694H41.5799V42.0982H40.9624Z" fill="#908F8A" stroke="black" stroke-width="0.107815"/>
<path fill-rule="evenodd" clip-rule="evenodd" d="M39.7158 42.0982V46.2694H40.3333V42.0982H39.7158Z" fill="#908F8A" stroke="black" stroke-width="0.107815"/>
<path fill-rule="evenodd" clip-rule="evenodd" d="M49.2766 30.1906C49.2766 36.9881 45.2589 42.5034 40.3163 42.5034C35.3737 42.5034 31.356 36.9881 31.356 30.1906C31.356 23.3931 35.3664 17.8702 40.3163 17.8702C45.2661 17.8702 49.2766 23.3854 49.2766 30.1829V30.1906ZM47.9976 30.1906C47.9976 36.2311 44.558 41.1361 40.3163 41.1361C36.0746 41.1361 32.635 36.2311 32.635 30.1906C32.635 24.1424 36.0746 19.2374 40.3163 19.2374C44.558 19.2374 47.9976 24.1424 47.9976 30.1906Z" fill="#FFDF00" stroke="black" stroke-width="0.101136"/>
<path fill-rule="evenodd" clip-rule="evenodd" d="M43.8066 18.8434C42.7299 18.2177 41.552 17.8701 40.3164 17.8701C39.0807 17.8701 37.9029 18.2177 36.8262 18.8357L37.332 20.1025C38.2407 19.5426 39.2711 19.2478 40.32 19.2478C41.3688 19.2478 42.3993 19.5426 43.308 20.1025L43.8066 18.8357V18.8434Z" fill="#FFDF00" stroke="black" stroke-width="0.101136"/>
<path fill-rule="evenodd" clip-rule="evenodd" d="M43.8315 41.2069C42.7548 41.8325 41.5769 42.1801 40.3413 42.1801C39.1056 42.1801 37.9278 41.8325 36.8511 41.2146L37.3569 39.9478C38.2656 40.5077 39.296 40.8024 40.3449 40.8024C41.3937 40.8024 42.4242 40.5077 43.3329 39.9478L43.8315 41.2146V41.2069Z" fill="#FFDF00" stroke="black" stroke-width="0.101136"/>
<path fill-rule="evenodd" clip-rule="evenodd" d="M48.0066 30.1932C48.0066 36.2357 44.5556 41.132 40.3196 41.132C36.0836 41.132 32.645 36.2357 32.645 30.1932C32.645 24.1507 36.0836 19.2295 40.3196 19.2295C44.5556 19.2295 48.0066 24.1383 48.0066 30.1932Z" fill="#A7CFFF"/>
<path fill-rule="evenodd" clip-rule="evenodd" d="M47.9972 30.1905C48.0766 32.2452 47.6648 33.2494 47.1373 35.389C47 35.6208 46.3424 34.887 45.9522 34.5239C45.562 34.1609 45.3885 34.8483 44.8972 34.2922C44.413 33.7206 44.1023 34.4467 43.741 33.9678C43.3797 33.4888 40.034 33.427 40.034 33.3807C40.3664 33.2108 42.0718 33.3961 41.7972 32.5233C41.4865 31.6118 39.5571 32.4924 39.297 31.3337C39.1163 30.1751 35.4238 30.1287 35.1564 29.8506C35.2648 30.2832 38.0324 30.4686 37.9674 31.5886C37.9023 32.0521 35.2431 32.1834 34.983 32.5696C34.7662 33.0563 37.0786 32.4383 37.158 33.0331C37.158 33.2803 36.8184 33.0331 35.6189 33.4193C35.0119 33.6124 36.7317 34.2149 36.0814 34.5471C35.431 34.8792 34.0364 35.026 34.0942 35.165C34.311 35.8602 37.3242 36.679 37.028 36.7949C35.9585 37.3047 35.3949 37.6369 34.8818 37.9304C33.3785 35.6733 32.591 32.9608 32.6345 30.1905C34.9252 29.3099 34.441 29.1245 38.6755 29.1245C42.91 29.1245 44.3119 29.3022 47.9972 30.1905Z" fill="#AFFF7B" stroke="black" stroke-width="0.101136"/>
<path fill-rule="evenodd" clip-rule="evenodd" d="M47.9974 30.1903C47.4193 30.1903 46.8123 30.4529 46.1909 30.4529C45.5622 30.4529 44.9263 30.1826 44.276 30.1826C43.6256 30.1826 42.8813 30.5379 42.2165 30.5379C41.5445 30.5379 40.9592 30.1903 40.2872 30.1903C39.6151 30.1903 38.9431 30.4529 38.2783 30.4529C37.6135 30.4529 36.956 30.1826 36.3128 30.1826C35.6697 30.1826 35.0338 30.4529 34.4196 30.4529C33.8054 30.4529 33.2056 30.1826 32.6348 30.1826C32.6348 28.6763 32.8515 27.2396 33.2418 25.9264C35.1928 26.0809 34.0366 24.7137 35.1928 24.7137C35.5303 24.6941 35.8678 24.7515 36.183 24.882C36.4982 25.0125 36.7839 25.2132 37.021 25.4707C37.1944 25.4707 38.0615 24.5901 39.0371 24.7137C40.0054 24.8373 39.6513 26.8224 40.9447 26.9229C41.5951 27.4481 41.9781 27.7803 42.8741 27.9966C44.1531 28.1201 47.8167 27.8034 47.8384 27.9811C47.9439 28.7121 47.9971 29.4506 47.9974 30.1903Z" fill="white" stroke="black" stroke-width="0.101136"/>
<path fill-rule="evenodd" clip-rule="evenodd" d="M41.4761 36.5621C41.4761 36.2212 41.8125 35.994 41.8125 35.4498C41.8125 34.9056 41.5135 34.8936 41.5035 34.3853C41.4986 34.176 41.7602 33.9667 41.8748 33.9428C41.9894 33.9189 42.0866 34.3853 42.0866 34.487C42.0866 34.5886 41.9695 34.2358 41.8723 34.2298C41.7751 34.2239 41.5658 34.2657 41.5658 34.3674C41.5658 34.5707 41.9346 34.8219 41.9072 35.5036C41.8798 36.1734 41.5907 36.3767 41.5907 36.58C41.5907 36.7834 41.7153 37.3455 41.7153 37.3455C41.7153 37.3455 41.4736 36.897 41.4736 36.5561L41.4761 36.5621Z" fill="black" stroke="black" stroke-width="0.0522555"/>
<path fill-rule="evenodd" clip-rule="evenodd" d="M42.5522 36.5123C42.5522 36.1714 42.2158 35.9441 42.2158 35.3999C42.2158 34.8557 42.5148 34.8438 42.5248 34.3355C42.5497 34.0963 42.2308 33.9408 42.1161 33.9228C42.0015 33.9049 41.867 34.4013 41.867 34.4969C41.867 34.5926 42.0015 34.186 42.0987 34.18C42.1959 34.174 42.4625 34.2159 42.4625 34.3175C42.4625 34.5209 42.0937 34.772 42.1211 35.4538C42.1485 36.1235 42.4376 36.3269 42.4376 36.5302C42.4376 36.7335 42.313 37.2957 42.313 37.2957C42.313 37.2957 42.5547 36.8472 42.5547 36.5063L42.5522 36.5123Z" fill="black" stroke="black" stroke-width="0.0522555"/>
<path fill-rule="evenodd" clip-rule="evenodd" d="M42.2011 33.8064C42.2011 33.9684 42.1139 34.1054 42.0143 34.1054C41.9146 34.1054 41.8398 33.9684 41.8398 33.794C41.8398 33.6196 41.9146 33.495 42.0143 33.495C42.1139 33.495 42.2011 33.632 42.2011 33.8064ZM44.3191 34.9277H44.369V37.3572H44.3067L44.3191 34.9277ZM44.8299 34.7284H44.8922V37.1828H44.8299V34.7284Z" fill="black"/>
<path fill-rule="evenodd" clip-rule="evenodd" d="M44.6431 35.8373V35.775L45.1414 35.8622V35.9245L44.6431 35.8373Z" fill="black"/>
<path fill-rule="evenodd" clip-rule="evenodd" d="M37.5209 36.5422C37.5209 36.5422 39.3997 37.4228 39.8116 37.9481C40.2162 38.4733 40.0573 38.4733 40.0573 38.4733L44.2267 38.651C44.2267 38.3884 44.9638 38.3884 45.13 37.7704C45.2961 37.1602 45.2962 36.9825 45.2962 36.9825L43.9882 37.4228L44.0605 36.6349H42.9188L42.7526 37.4228L40.2957 37.3378L40.4619 35.2291L39.9705 35.314L39.8983 37.3224C39.8116 37.3224 37.6004 36.7122 37.5137 36.5422H37.5209Z" fill="#B74D00" stroke="black" stroke-width="0.101136"/>
<path fill-rule="evenodd" clip-rule="evenodd" d="M33.7402 23.9647C33.7402 23.9647 36.4645 23.0995 40.3954 23.1613C44.3264 23.2231 47.0507 24.15 46.9929 24.15C46.935 24.15 46.2413 22.7288 46.2413 22.7288C46.2413 22.7288 43.4665 21.9177 40.3376 21.8559C37.216 21.7941 34.4917 22.4738 34.5568 22.5356L33.7402 23.9647Z" fill="#FEDE00" stroke="#FEDE00" stroke-width="0.101136"/>
<path fill-rule="evenodd" clip-rule="evenodd" d="M38.8372 21.9581L40.5316 21.9332L40.5565 22.9174L38.8621 22.9548L38.8372 21.9581ZM34.9501 22.4938L34.3521 23.478L36.3704 23.2289L36.2084 22.2695L34.9501 22.5187V22.4938ZM36.6569 22.12L38.3513 21.983L38.4261 22.9548L36.7441 23.1043L36.6569 22.12ZM42.7492 22.0328L41.0673 21.9082L41.005 22.9049L42.6869 23.0046L42.7492 22.0328ZM46.3872 22.6558L46.9977 23.8518L45.1787 23.4033L45.378 22.444L46.3747 22.6433L46.3872 22.6558ZM44.9171 22.282L43.2476 22.0702L43.123 23.042L44.8049 23.2662L44.9171 22.282Z" fill="#38A9F9"/>
<path fill-rule="evenodd" clip-rule="evenodd" d="M40.3955 24.5209L40.2148 23.4781L39.6656 24.3664L39.868 23.3236L39.0514 23.9184L39.6006 23.0455L38.6323 23.2618L39.4633 22.6747L38.4878 22.4816L39.4633 22.2808L38.6323 21.6937L39.6006 21.91L39.0442 21.0372L39.868 21.6319L39.6656 20.5892L40.2148 21.4775L40.3955 20.4347L40.5834 21.4775L41.1253 20.5892L40.9302 21.6319L41.7467 21.0372L41.1903 21.91L42.1659 21.6937L41.3349 22.2808L42.3104 22.4816L41.3349 22.6747L42.1659 23.2618L41.1903 23.0455L41.7467 23.9184L40.9302 23.3236L41.1325 24.3664L40.5834 23.4781L40.3955 24.5209Z" fill="#FFDF00" stroke="black" stroke-width="0.101136"/>
<path fill-rule="evenodd" clip-rule="evenodd" d="M41.8384 21.8274C41.8384 22.4068 41.3697 22.874 40.7873 22.874C40.205 22.874 39.7363 22.4068 39.7363 21.8274C39.7363 21.2481 40.205 20.7747 40.7873 20.7747C41.3697 20.7747 41.8384 21.2481 41.8384 21.8337V21.8274Z" fill="#FFDF00" stroke="black" stroke-width="0.0900365"/>
<path fill-rule="evenodd" clip-rule="evenodd" d="M40.6689 22.0576C40.6689 22.1199 40.5069 22.1822 40.32 22.1822C40.1332 22.1822 39.9712 22.1199 39.9712 22.0576C39.9712 21.9953 40.1207 21.933 40.32 21.933C40.5194 21.933 40.6689 21.9829 40.6689 22.0576ZM41.4164 22.0576C41.4164 22.1199 41.3043 22.1822 41.1672 22.1822C41.0302 22.1822 40.8931 22.1199 40.8931 22.0576C40.8931 21.9829 41.0177 21.933 41.1548 21.933C41.2918 21.933 41.4164 21.9829 41.4164 22.0576Z" fill="black"/>
<path d="M40.6323 22.4873L40.7051 22.5291C40.5302 22.4222 40.6099 22.4619 40.8845 22.7325C41.0413 22.6413 41.0711 22.5583 41.1686 22.4454" stroke="black" stroke-width="0.102147"/>
<path d="M39.9365 23.0376L39.9943 23.0994C39.857 22.9449 39.922 23.0222 40.2255 23.223C40.5146 23.2616 40.8108 23.1303 40.9843 22.914" stroke="black" stroke-width="0.101136"/>
<path fill-rule="evenodd" clip-rule="evenodd" d="M35.7723 25.0725C35.7723 25.0725 35.8969 26.0692 35.1369 27.3151C34.3894 28.5485 34.5015 28.1125 34.5015 28.1125C34.5015 28.1125 34.8504 28.7977 34.7881 28.7977C34.7258 28.7977 34.2025 28.1748 34.2025 28.1748L33.5796 28.86C33.5796 28.86 34.1527 27.801 34.0904 27.801C34.0281 27.801 33.916 27.4272 33.916 27.4272L34.377 27.2404C34.377 27.2404 35.0746 25.9447 35.0746 26.0069C35.0746 26.0692 32.994 27.4272 32.994 27.4272L35.7723 25.085V25.0725ZM36.2333 25.4463C36.171 25.4463 36.5199 26.443 36.8189 26.9414C37.1054 27.4397 37.1054 28.0502 37.1054 28.0502L38.0897 28.5485L36.8189 26.6299L37.6287 26.9289L36.2333 25.4463ZM36.2333 28.0502C36.2333 28.0502 36.931 28.7977 36.9808 29.0469C37.0307 29.2961 37.0431 29.8442 37.0431 29.8442L36.7566 29.2213L36.3454 29.7819C36.3454 29.7819 36.6444 28.9098 36.5822 28.8475C36.5199 28.7852 36.1212 29.159 36.1212 29.159C36.1212 29.159 36.2956 28.6607 36.2956 28.6108C36.2956 28.561 36.2956 28.2371 36.2333 28.0502ZM32.7573 29.7819C32.994 29.5951 33.455 29.4705 33.455 29.4705C33.455 29.4705 33.1685 29.9688 33.1062 29.9688C33.0439 29.9688 32.8819 29.9688 32.7573 29.7819ZM40.7434 27.0659C40.7434 27.0659 42.2509 27.9879 42.2509 28.0502C42.2509 28.1125 41.2666 27.6141 41.2666 27.6141L40.7434 27.0659ZM38.0274 25.1348C38.152 25.1971 40.2326 26.9289 40.1703 26.9289C40.108 26.9289 39.2483 26.4305 39.2483 26.5053V26.9289L38.7749 25.9447L38.6628 26.3184L38.0398 25.1348H38.0274ZM38.5506 27.9256L39.1237 29.0967L39.7093 28.9721C39.7093 28.9721 38.6129 27.9256 38.5506 27.9256ZM40.3447 27.1781L40.407 28.2994C40.407 28.2994 40.7434 28.6108 40.7434 28.5485C40.7434 28.4862 40.407 27.2404 40.3447 27.1781Z" fill="#B7E1FF"/>
<path fill-rule="evenodd" clip-rule="evenodd" d="M23.4629 11.9539C23.4629 11.9539 26.0792 10.5087 29.0569 9.43722C31.2476 8.63228 33.5081 8.0317 35.8095 7.64316C36.6816 7.64316 38.2016 9.86081 38.4508 9.86081C38.6999 9.86081 39.7091 9.23788 40.9799 9.23788C42.2507 9.23788 42.9857 10.2346 43.2474 10.2346H45.5149C45.764 10.2346 44.7549 7.76775 45.5149 7.89233C45.8886 7.95463 49.103 8.45298 52.0931 9.4123C55.0832 10.3841 59.3192 12.1034 59.3192 12.1034C59.3192 12.1034 52.4046 13.0129 50.5482 12.7512C50.299 12.8758 50.5482 14.3709 50.1744 13.7106C49.6013 13.586 47.4709 13.2496 47.0971 13.2496C46.7234 13.2496 46.0132 13.6732 45.0041 13.9224C44.0074 14.1715 42.7366 14.5453 42.7366 14.5453L44.3811 17.1243L42.3628 18.121C42.3628 18.121 41.1045 15.1558 40.5937 15.1558C40.0829 15.1558 39.8461 17.2488 39.2107 17.1243C38.5878 16.9997 38.3386 15.1558 37.8278 14.6574C37.3295 14.1715 34.6633 13.9847 33.6541 13.7479C32.6574 13.4988 31.0253 13.3119 30.1408 13.0627C29.2687 12.8135 28.3716 13.6856 27.9979 13.6856C27.6241 13.6856 28.4962 12.9381 28.1225 12.8135C27.7487 12.6889 27.4995 13.1873 27.2503 13.1873C27.0012 13.1873 24.3475 12.6889 24.0983 12.5644C23.8491 12.4398 24.7212 11.9539 24.472 11.9539H23.4629Z" fill="#984000"/>
<path fill-rule="evenodd" clip-rule="evenodd" d="M42.2585 10.7202C42.2585 11.407 41.6939 11.9641 41.0005 11.9641C40.307 11.9641 39.7451 11.407 39.7451 10.7202C39.7451 10.0335 40.307 9.47958 41.0005 9.47958C41.6939 9.47958 42.2585 10.0367 42.2585 10.7202Z" fill="#808080" stroke="#772600" stroke-width="0.111933"/>
<path fill-rule="evenodd" clip-rule="evenodd" d="M35.8809 10.9571C36.1062 10.694 36.3854 10.2953 37.1154 10.2953C37.2836 10.2275 37.2836 9.82883 37.6738 9.82883C38.0674 9.82883 37.953 10.2275 38.2356 10.3631C38.5148 10.4946 40.8123 10.2275 40.8123 10.2275C40.8123 10.2275 41.0343 10.4268 41.0343 10.694C41.0343 10.9611 40.8661 11.1564 40.8123 11.1564C40.7585 11.1564 38.5148 10.9571 38.3466 11.0249C38.1784 11.0926 38.0674 11.1564 37.6738 11.1564C37.2836 11.1564 37.1692 10.694 36.89 10.694C36.6108 10.694 36.3316 10.6262 35.8809 10.9611V10.9571Z" fill="#984000" stroke="#772600" stroke-width="0.197056"/>
<path d="M42.716 10.8182H43.6108C43.9337 10.8222 44.0447 10.9378 44.3408 10.9498H45.1245C45.4105 10.9378 45.5618 10.8581 45.8511 10.8182C46.3389 10.8103 46.1741 10.7664 46.0765 10.4196C45.989 10.1604 45.9756 10.0368 45.8511 9.88932C45.804 9.57037 45.6964 9.45874 45.6829 9.09196C45.6325 8.81288 45.5383 8.6255 45.6291 8.2946C45.7569 8.52185 45.8074 8.61354 46.1337 8.62949C46.4701 8.62949 46.6013 8.61753 46.8065 8.76105C46.9612 8.95641 47.1698 8.89262 47.4792 8.89262C47.7349 8.94843 47.7786 9.10392 47.9805 9.22352C48.2193 9.38299 48.374 9.42286 48.707 9.42286C48.9762 9.48266 49.2116 9.52652 49.3798 9.6222C49.5245 9.82553 49.7498 9.87736 50.0526 9.88932C50.2208 9.88932 50.3553 9.86938 50.5 9.82154C50.759 9.83749 51.0214 9.82154 51.341 9.82154C51.5495 10.1086 51.5966 10.2162 51.9565 10.2202C52.2055 10.4275 52.414 10.4594 52.6293 10.5511H53.4703C53.773 10.579 53.8672 10.7265 54.143 10.8182C54.3797 10.945 54.6223 11.0555 54.8696 11.1491C55.1104 11.2008 55.355 11.2235 55.5996 11.2169C55.8048 11.3445 56.0571 11.3525 56.2152 11.48C56.4473 11.5399 56.7635 11.6116 56.9418 11.6794C57.2378 11.7272 57.3522 11.8389 57.6146 11.8787C57.8399 11.9585 57.5405 12.0223 57.3892 12.0781C57.0595 12.0661 57.036 11.9186 56.7164 11.8787C56.5482 11.7631 56.2926 11.7791 56.0436 11.6794H55.9898C56.2118 11.8389 56.4271 11.9385 56.3262 12.2136C56.0403 12.2136 55.8082 12.1698 55.5424 12.1458C55.2599 12.0821 55.132 12.0143 54.8158 12.0143C55.132 11.9226 55.2128 12.0223 55.4314 12.1458C55.5121 12.4648 55.3372 12.3452 55.0378 12.3452C54.7822 12.2375 54.6274 12.106 54.3112 12.0781H53.6385C53.9715 12.094 54.0421 12.2415 54.2541 12.413C54.2709 12.5166 54.2507 12.5086 54.0859 12.5445C53.9109 12.3651 53.6856 12.3053 53.4131 12.2136C53.1473 12.2017 52.8681 12.1738 52.6293 12.0781C52.4645 12.0661 52.4914 11.8349 52.8547 12.2136C53.0733 12.3651 53.1507 12.4927 53.1339 12.6123C52.8446 12.5246 52.7033 12.389 52.5183 12.2774C52.2667 12.174 52.0005 12.1293 51.7345 12.1458C51.4452 12.0541 51.7648 12.0023 51.9565 12.3452C52.3737 12.696 51.9027 12.5445 51.7345 12.4767C51.4822 12.393 51.2199 12.2694 51.0046 12.2136C50.8364 12.1538 50.6884 12.098 50.5 12.0781C50.7926 12.11 50.8902 12.2336 51.0046 12.4767C51.3006 12.716 50.9911 12.6003 50.7254 12.5445C50.5572 12.3691 50.3385 12.2774 50.2208 12.0781C49.9416 11.9146 49.9315 11.7193 50.1098 12.1458C50.1535 12.2814 50.1434 12.5764 50.1636 12.6123C49.9584 12.3452 50.0021 12.2774 49.7734 12.2774C49.6153 12.1498 49.3865 12.0502 49.2688 11.8787C49.0535 11.8548 49.0401 11.7631 48.8214 11.6794C48.9997 11.9306 49.2385 12.1777 49.3798 12.413C49.6355 12.5804 49.7061 12.7319 49.8844 12.8754C49.955 13.0229 50.1535 13.1425 49.9416 12.9432C49.6994 12.6641 49.5211 12.5964 49.1578 12.413C48.9492 12.2136 48.8752 12.1339 48.6532 11.9465C48.3505 11.8309 48.4682 11.7671 48.6532 12.1458C48.8652 12.3771 49.0266 12.6322 49.2116 12.8116C49.3567 13.017 49.5268 13.1957 49.7162 13.3419C49.7667 13.4296 49.918 13.4455 49.7162 13.4734C49.548 13.2901 49.2991 13.1744 49.1006 13.007C48.8214 12.9153 48.6902 12.7439 48.485 12.5445C48.3505 12.3093 48.1352 12.1299 47.9805 11.9465C47.6575 11.795 48.0444 12.09 48.1486 12.2774C48.2193 12.5206 48.3101 12.716 48.3707 12.9432C48.4649 13.1625 48.0881 12.8914 47.9805 12.8116C47.7592 12.6417 47.5107 12.5277 47.2505 12.4767C47.0276 12.4239 46.8032 12.38 46.5777 12.3452C46.3254 12.2654 46.7156 12.5366 46.8603 12.8116C47.1429 13.1266 46.5811 12.8675 46.4129 12.8116C46.1352 12.7557 45.8535 12.733 45.5719 12.7439C45.212 12.7678 45.471 12.8236 45.5719 13.007C45.6829 13.1106 45.7603 13.3259 45.7401 13.4057C45.5047 13.3658 45.3028 13.2861 45.0102 13.2741C44.7747 13.3658 44.4955 13.3419 44.2264 13.3419C44.2163 13.5093 44.2768 13.3658 44.3946 13.5412C44.5897 13.6329 44.7175 13.7446 44.6771 13.8721H43.0524C42.8741 13.9279 43.0894 13.9 43.2206 14.1392C43.1466 14.3545 43.0524 14.2708 42.827 14.2708C42.6756 14.199 42.3695 14.1672 42.2114 14.0715C42.0533 14.0715 42.0668 14.0236 41.9322 14.0037C42.4032 14.4024 42.1677 14.3027 42.4368 14.6017C42.4805 14.6216 42.5882 14.6695 42.4906 14.6695M38.7938 16.7945C38.7601 16.7945 38.6861 16.5792 38.5717 16.3958C38.491 16.1566 38.3901 16.2921 38.2892 15.9293C38.3026 15.5546 38.3127 15.4908 38.2892 15.132C38.0604 14.9406 37.9629 14.8848 37.7846 14.5339C37.502 14.2549 37.8283 13.7764 37.8821 13.4256C37.6332 13.3618 37.5121 13.8841 37.132 14.0715C36.8562 14.2907 37.0984 13.617 36.9638 13.2263C36.873 12.6721 36.6005 13.5053 36.4996 13.7406C36.3146 13.8881 36.2574 14.0794 35.995 13.8044C35.995 13.601 36.1598 13.0269 36.0892 12.9153C35.8268 13.0708 35.4837 13.5333 35.2112 13.605C34.9354 13.5372 35.2684 13.015 35.2684 12.6282C35.1675 12.5884 34.7739 13.6568 34.6125 13.6648C34.451 13.6728 34.5216 12.6282 34.4443 12.6522C34.3265 12.8515 34.0877 13.2661 33.9229 13.4097C33.6033 13.3578 33.97 12.712 34.0171 12.4728C34.0709 12.1857 33.7177 13.0229 33.5293 13.0748C33.3914 13.2183 33.1189 13.314 33.0247 13.3419C33.1324 13.0947 33.6639 12.5964 33.6302 12.4528C33.3174 12.4648 32.8431 12.9512 32.5773 13.011C32.4024 13.011 32.1602 13.0788 32.1299 13.0748C32.1434 12.7558 32.7825 12.4927 32.8834 12.2973C32.5706 12.3571 31.9685 12.6841 31.7936 12.9432C31.585 12.995 31.3226 13.0628 31.1208 12.9432C31.1511 12.6442 31.622 12.0661 31.7263 11.8747C31.4404 12.0223 31.2991 12.1379 30.9963 12.2056C30.9391 12.2734 30.7777 12.4169 30.8281 12.2734C30.919 11.9943 31.0535 11.8747 31.1645 11.6754C30.9122 11.7312 30.818 11.9027 30.5489 12.0741C30.3774 12.0821 29.8862 12.6681 29.7214 12.6761C29.4425 12.9367 29.1168 13.1181 28.7694 13.2063C28.5138 13.2621 28.3893 13.3259 28.2649 13.4734C28.3927 13.2063 28.5878 12.9552 28.7694 12.8116C28.8803 12.5696 29.0587 12.3808 29.274 12.2774C29.3379 12.1857 29.5129 12.1618 29.3278 12.1458C29.1697 12.3133 28.9006 12.5047 28.7694 12.6123C28.5979 12.7399 28.3994 12.8675 28.3187 12.8116C28.4095 12.5246 28.571 12.4528 28.7123 12.2136C29.0083 11.9904 28.7123 12.1339 28.4869 12.2136C28.3422 12.3651 28.0832 12.4807 27.8713 12.6123C27.6358 12.6841 27.4777 12.8515 27.1985 12.9432C27.1985 13.0389 27.2793 12.7718 27.3129 12.6761C27.5416 12.3811 27.6022 12.2973 27.8713 12.2136C27.9386 12.098 28.0193 12.1458 27.8175 12.1458C27.6627 12.3053 27.4542 12.393 27.2557 12.5445C27.0572 12.5964 26.7982 12.6123 26.5291 12.6123C26.1793 12.6601 26.2095 12.692 26.5291 12.4767C26.7074 12.2774 26.8554 12.3292 26.8655 12.0781C26.6536 12.2615 26.3946 12.397 26.1355 12.5445C25.9203 12.5525 25.8631 12.6123 25.631 12.6123C25.742 12.4767 25.8092 12.3053 25.9674 12.2136C26.2028 11.9066 25.8193 12.1538 25.742 12.2136H24.901C24.753 12.4369 24.8943 12.2136 25.0154 12.0781C25.16 11.9904 25.3114 11.8747 25.2946 11.8149C25.1264 11.9864 24.9346 12.0661 24.79 12.2136C24.6353 12.2694 24.4536 12.2934 24.4536 12.3452C24.5781 12.1339 24.7765 12.0023 24.9044 11.8149C25.0927 11.7671 25.2542 11.6953 25.2946 11.6156H24.5108H25.0692C25.3551 11.6156 25.5973 11.5837 25.8563 11.5478C26.3004 11.4601 25.816 11.4163 25.5738 11.4163C25.53 11.3126 25.7151 11.2568 25.9102 11.2169C26.0784 11.1212 26.2903 11.0375 26.4719 10.9498C26.6323 10.8919 26.7834 10.803 26.9193 10.6867C26.7511 10.6947 26.7511 10.7425 26.5829 10.7505C26.8352 10.7305 27.0135 10.6867 27.3129 10.6867C27.5595 10.5903 27.8019 10.4799 28.0395 10.3558C28.1404 10.2122 28.1808 10.2202 27.9285 10.2202C28.1539 10.1365 28.4734 10.0926 28.6551 10.0209C28.8869 9.96332 29.1126 9.87505 29.3278 9.75775C29.4927 9.62619 29.5869 9.4707 29.7752 9.35907C29.9939 9.53449 29.9973 9.55841 30.3908 9.55841C30.707 9.55443 30.9021 9.46273 31.0636 9.2913C31.3058 9.21156 31.3495 9.07601 31.6254 9.02817C31.8846 9.07643 32.1468 9.09777 32.4091 9.09196C32.6783 9.00824 32.9373 8.85275 33.1357 8.69328C33.3073 8.59361 33.5125 8.45008 33.6975 8.36237C33.8993 8.48596 34.0608 8.58563 34.3131 8.62949C34.5721 8.58165 34.71 8.43015 34.9287 8.36237C35.0635 8.19226 35.24 8.07653 35.4333 8.03147C35.7595 7.8401 35.736 8.09127 35.8806 8.2946C36.0488 8.50191 36.2641 8.40224 36.4962 8.49394C36.6274 8.73315 36.7216 8.89262 36.8898 9.02418C37.021 9.21555 37.1757 9.26339 37.4516 9.2913C37.5525 9.45077 37.4718 9.5624 37.6736 9.6222C37.7543 9.72586 37.8922 9.76573 38.01 9.82154" stroke="#772600" stroke-width="0.130131"/>
<path d="M42.0705 15.1002V15.1321C42.0705 15.0404 42.0705 15.0922 42.1276 15.2676C42.1478 15.4111 42.1007 15.3952 42.0435 15.4988C42.0335 15.6463 42.0166 15.754 42.0166 15.9294C41.9965 16.0729 41.9292 16.2085 41.8754 16.3281C41.8215 16.4517 41.5894 16.5234 41.5962 16.6949C41.4616 16.7387 41.4582 16.6351 41.4549 16.4597C41.3741 16.352 41.3472 16.2045 41.2867 16.061C41.253 15.9254 41.1723 15.8218 41.1185 15.6623C41.0378 15.5148 40.9671 15.4709 40.8965 15.2995C40.8662 15.2198 40.8729 15.1161 40.8124 15.0683C40.7215 14.9287 40.661 14.9088 40.5029 14.9008C40.3818 14.9327 40.3347 14.9965 40.2237 15.0324C40.1362 15.0683 39.968 15.0563 39.8604 15.1002C39.8335 15.152 39.9142 15.1799 39.9445 15.2995C39.8705 15.3713 39.8436 15.4949 39.8032 15.5985C39.7359 15.6982 39.6922 15.746 39.6619 15.8975C39.709 15.9892 39.6687 16.1128 39.6081 16.1965C39.5879 16.348 39.524 16.4317 39.4937 16.5593C39.4063 16.6351 39.3726 16.7028 39.2986 16.8264C39.2347 16.9341 39.1775 16.9261 39.0194 16.9261C38.895 16.8862 38.8782 16.8065 38.7671 16.7587C38.7571 16.7188 38.747 16.7068 38.71 16.6949" stroke="#782600" stroke-width="0.115259"/>
<path fill-rule="evenodd" clip-rule="evenodd" d="M39.0362 16.4387C39.0362 16.4387 38.9863 17.0616 38.5877 17.4727C38.189 17.8839 37.3667 18.3573 37.3667 18.3573C37.3667 18.3573 38.4755 17.834 38.5877 17.9462C38.7122 18.0708 37.8775 18.9803 37.8775 18.9803C37.8775 18.9803 38.9614 18.0209 39.0985 18.0209C39.2355 18.0209 39.547 18.9553 39.6716 18.9304C39.7837 18.9055 39.4224 17.7468 39.4722 17.56C39.5221 17.3855 39.4722 16.4013 39.4722 16.4013L39.0486 16.4387H39.0362ZM41.5902 16.3639C41.5902 16.3639 41.5404 17.0242 41.1417 17.4603C40.743 17.8963 39.9207 18.4071 39.9207 18.4071C39.9207 18.4071 41.0296 17.8465 41.1417 17.9711C41.2663 18.0957 40.4315 19.0675 40.4315 19.0675C40.4315 19.0675 41.5155 18.0458 41.6525 18.0458C41.7896 18.0458 42.101 19.0425 42.2256 19.0176C42.3377 18.9927 41.9764 17.7468 42.0263 17.56C42.0761 17.3606 42.0263 16.3141 42.0263 16.3141L41.5902 16.3639ZM38.0146 10.3837C38.0146 10.4958 37.89 10.5955 37.7529 10.5955C37.6159 10.5955 37.4788 10.4958 37.4788 10.3713C37.4788 10.2467 37.6034 10.147 37.7529 10.147C37.9024 10.147 38.0146 10.2467 38.0146 10.3713V10.3837Z" fill="#812E00"/>
</g>
<defs>
<clipPath id="clip0_237_7082">
<rect width="79.736" height="59.802" fill="white" transform="translate(0.713379 0.803345)"/>
</clipPath>
</defs>
</svg>
