<svg width="67" height="51" viewBox="0 0 67 51" fill="none" xmlns="http://www.w3.org/2000/svg">
<g clip-path="url(#clip0_237_1078)">
<path fill-rule="evenodd" clip-rule="evenodd" d="M-4.18213 -9.53674e-06H71.1083V50.1936H-4.18213V-9.53674e-06Z" fill="#199D00"/>
<path fill-rule="evenodd" clip-rule="evenodd" d="M14.7872 14.2246C14.7088 15.401 14.5912 17.4598 15.6009 17.6754C16.8068 17.7931 16.1401 15.6363 16.5813 15.2442C16.6597 15.0481 16.8068 15.0481 16.8166 15.2932V17.1264C16.8166 17.7147 17.2087 17.8911 17.5028 18.0088C17.8165 17.9891 18.0322 18.0088 18.1498 18.3029L18.3067 21.4694C18.3067 21.4694 19.0321 21.685 19.0713 19.6949C19.1008 18.5185 18.8361 17.548 18.9929 17.3225C18.9929 17.097 19.287 17.0872 19.4831 17.1951C19.7968 17.4107 19.9341 17.6852 20.4242 17.5872C21.1693 17.3715 21.6202 17.0088 21.63 16.4402C21.6153 15.8814 21.4991 15.33 21.2869 14.8128C21.3261 14.7148 21.1497 14.4501 21.1889 14.3521C21.3163 14.5677 21.5222 14.5481 21.5614 14.3521C21.434 13.9403 21.2379 13.5384 20.9242 13.3717C20.6595 13.1364 20.2674 13.1757 20.1399 13.6658C20.0615 14.2246 20.336 14.8815 20.7379 15.4305C20.8262 15.6363 20.9438 15.9892 20.8948 16.303C20.6791 16.4304 20.4634 16.3716 20.2772 16.1853C20.2772 16.1853 19.689 15.7442 19.689 15.6363C19.8458 14.6364 19.7184 14.5187 19.6301 14.2344C19.5713 13.8521 19.3851 13.7247 19.238 13.4698C19.091 13.3129 18.8949 13.3129 18.7969 13.4698C18.5322 13.9207 18.6596 14.8913 18.8459 15.3324C18.9831 15.7344 19.189 15.9892 19.091 15.9892C19.0125 16.2147 18.8459 16.1559 18.7184 15.8912C18.575 15.3342 18.5057 14.7606 18.5126 14.1854C18.4635 13.7345 18.4047 12.7737 18.1008 12.5188C17.9243 12.2835 17.6597 12.4012 17.5616 12.6169C17.5357 13.0548 17.5456 13.4942 17.591 13.9305C17.7871 14.656 17.8557 15.303 17.9538 16.0383C17.9832 17.0284 17.3852 16.4696 17.4146 15.9696C17.5432 15.3411 17.5331 14.692 17.3852 14.0678C17.2871 13.8129 17.1793 13.7541 16.9342 13.7933C16.7479 13.7933 16.2676 14.3129 16.1303 15.1952C16.1303 15.1952 16.0127 15.6461 15.9637 16.0481C15.895 16.499 15.6009 16.8323 15.3853 15.9892C15.2088 15.3716 15.0912 13.8717 14.797 14.2246H14.7872Z" fill="white"/>
<path fill-rule="evenodd" clip-rule="evenodd" d="M18.0714 19.0381L14.9343 20.5479C14.9637 19.8322 16.4146 18.548 17.4146 18.5381C18.0518 18.548 17.895 18.7832 18.0616 19.0381H18.0714Z" fill="white"/>
<path fill-rule="evenodd" clip-rule="evenodd" d="M17.5128 20.0188C15.8658 24.2833 21.3851 24.8813 22.0028 20.1952C22.0616 19.9992 22.2969 19.8129 22.3361 20.1266C22.2086 24.3715 18.0618 24.6558 17.3559 23.3225C17.1899 22.8638 17.1069 22.3791 17.1108 21.8912C17.0128 21.0579 16.5716 21.3814 16.503 22.2049C16.4344 22.6657 16.454 22.7931 16.454 23.2343C16.6697 26.5871 22.0126 25.146 22.8851 22.3814C23.3458 20.8521 22.8066 19.7247 23.0517 19.7247C23.5811 20.2933 24.3262 19.8031 24.4928 19.607C24.5615 19.509 24.7379 19.4404 24.8556 19.5678C25.2673 19.8619 25.9928 19.7247 26.1496 19.2051C26.2378 18.6855 26.3065 18.1561 26.3261 17.6169C25.983 17.7149 25.7379 17.7836 25.7085 17.9306L25.6398 18.3816C25.6104 18.5286 25.3261 18.5286 25.3065 18.3424C25.1791 17.7542 24.6497 17.6855 24.3262 18.5875C24.1203 18.7639 23.7282 18.8031 23.6889 18.5384C23.738 17.9306 23.4929 17.8522 23.0027 18.1365L22.5321 14.5877C22.7282 14.5877 22.9243 14.7347 23.1105 14.4994C22.9145 13.8622 22.4733 12.5681 22.2282 12.4701C22.1204 12.3329 22.0224 12.4211 21.8655 12.4603C21.6106 12.5387 21.3753 12.7544 21.4538 13.1858C21.7479 15.0288 21.9439 16.4307 22.2478 18.2835C22.2969 18.4894 22.1204 18.7737 21.8851 18.7443C21.493 18.4796 21.3949 17.9404 20.7087 17.96C20.2185 17.96 19.6695 18.4992 19.6009 19.009C19.5127 19.4207 19.4833 19.8619 19.6009 20.2148C19.944 20.6266 20.3558 20.5874 20.7185 20.4991C21.0126 20.3717 21.2577 20.0776 21.3655 20.1462C21.4342 20.2344 21.3753 21.2148 19.9636 21.9598C19.1107 22.352 18.4245 22.4304 18.0618 21.7344C17.8363 21.2932 18.0814 19.6364 17.5128 20.0188V20.0188Z" fill="white"/>
<path fill-rule="evenodd" clip-rule="evenodd" d="M24.542 15.6856C24.8656 15.568 26.4341 13.7641 26.4341 13.7641L26.1988 13.5681C26.1106 13.4994 26.1204 13.421 26.1988 13.3524C26.591 13.1171 26.4635 12.6269 26.2675 12.3917C26.1343 12.3268 25.9879 12.2939 25.8398 12.2956C25.6918 12.2973 25.5461 12.3335 25.4146 12.4015C25.1401 12.6661 25.0812 13.0877 25.2969 13.3426C25.5028 13.4406 25.7087 13.6563 25.5714 13.7739C24.9244 14.4602 23.1696 15.6464 23.3754 15.6856C23.4147 15.7444 24.5028 15.7444 24.5322 15.6856H24.542ZM15.0327 22.0578C14.4445 22.999 14.3955 24.4009 14.719 24.8224C14.8955 25.0185 15.1798 25.1067 15.3856 25.0381C15.7582 24.8812 15.9248 24.1264 15.8366 23.8617C15.7091 23.6656 15.6111 23.6362 15.4837 23.7931C15.2288 24.3224 15.1209 23.9597 15.0915 23.6656C15.0634 23.1675 15.0897 22.6679 15.17 22.1755C15.2386 21.7637 15.17 21.8814 15.0327 22.0578V22.0578ZM40.2374 20.5579C39.6688 19.3227 38.8747 18.1071 38.6296 17.6463C37.8656 16.4386 37.0546 15.2612 36.1983 14.1171C35.5905 13.3916 37.1983 14.421 36.0023 12.9701L35.1298 12.2348C34.9337 12.0975 34.4631 11.8427 34.3847 12.2544C34.3455 12.6269 34.3651 12.823 34.4239 13.1269C34.4729 13.323 34.767 13.6661 34.9141 13.8622C36.9239 16.5242 38.6892 19.3624 40.1883 22.3421C40.4432 22.2147 40.3844 20.7638 40.2374 20.5579V20.5579Z" fill="white"/>
<path fill-rule="evenodd" clip-rule="evenodd" d="M37.7376 24.6559C37.6199 24.7834 38.0121 25.3226 38.5218 25.3226C39.3649 25.2245 40.11 24.754 40.7962 23.4991C41.0751 23.0817 41.253 22.6051 41.3158 22.107C41.3988 19.7272 41.2081 17.3457 40.7472 15.0094C40.7178 14.8133 40.7472 14.578 40.7668 14.5192C40.8256 14.4506 41.0119 14.5192 41.1099 14.3525C41.257 14.2055 40.7178 12.98 40.4237 12.5193C40.3257 12.3036 40.2767 12.1664 40.1002 12.5389C39.8873 12.9499 39.7858 13.4097 39.8061 13.8722C40.208 16.6661 40.3355 19.1072 40.5904 21.9012C40.6198 22.1757 40.5806 22.5678 40.3943 22.7247C39.6546 23.5483 38.7492 24.2064 37.7376 24.6559V24.6559ZM49.1586 24.6461C48.5508 24.9991 48.5508 25.401 49.0409 25.4108C49.884 25.3128 50.884 25.2441 51.5702 24.205C51.8126 23.7155 51.9527 23.1818 51.982 22.6364C52.1054 20.2932 51.9507 17.9436 51.5212 15.6368C51.5016 15.4407 51.4134 14.9799 51.4428 14.9211C51.5016 14.7839 51.7761 14.9309 51.8741 14.7741C52.0114 14.627 51.1585 13.529 50.8546 13.0585C50.7565 12.8428 50.7173 12.7055 50.5311 13.0781C50.3336 13.4929 50.2718 13.9594 50.3546 14.4113C50.8055 17.4504 51.1389 19.7248 51.2075 22.411C51.1683 22.6658 51.1585 22.8031 51.0408 23.1266C50.7761 23.4599 50.482 23.8913 50.2075 24.0971C49.933 24.2932 49.3448 24.4893 49.1586 24.6461V24.6461Z" fill="white"/>
<path fill-rule="evenodd" clip-rule="evenodd" d="M49.6093 21.9305C49.6093 21.2148 49.6191 20.607 49.5995 20.0678C49.5932 19.6112 49.4931 19.1607 49.3054 18.7443C49.129 18.3424 49.2368 18.0189 49.1486 17.5875C49.0702 17.1562 49.0898 16.5092 48.9721 16.0092C48.9329 15.8131 48.8349 15.1759 48.8643 15.1073C48.9133 14.97 49.0996 15.1073 49.1976 14.9504C49.3348 14.8034 48.7074 13.1858 48.3937 12.725C48.2859 12.5192 48.0702 12.5878 47.8251 12.9211C47.58 13.1466 47.6683 13.6466 47.7663 14.1269C48.3643 17.2934 48.8251 20.1658 48.727 23.1755C48.6878 23.4304 49.6093 22.4108 49.6093 21.9305V21.9305ZM45.1292 18.0091C44.7468 17.9895 43.9528 17.2542 43.7175 16.8327C43.679 16.7296 43.6626 16.6197 43.6693 16.5099C43.6761 16.4001 43.7058 16.293 43.7567 16.1955C43.9037 16.0974 44.1194 15.9994 44.2861 16.0974C44.2861 16.0974 44.4527 16.3327 44.4233 16.3621C44.6194 16.4601 44.7174 16.4111 44.737 16.3229C44.7468 16.1758 44.6782 16.0876 44.6782 15.9308C44.7664 15.4798 45.2664 15.4112 45.4625 15.6955C45.5997 15.8719 45.6586 16.2347 45.6684 16.4798C45.6684 16.6072 45.4723 16.4601 45.3448 16.4798C45.237 16.519 45.2076 16.6562 45.1978 16.7739C45.1782 17.0974 45.139 17.617 45.1292 17.9993V18.0091ZM38.0903 22.7147C38.1883 21.754 38.0511 20.0384 38.0413 19.4698C37.9888 18.0075 37.8678 16.5484 37.6786 15.0975C37.5609 14.274 38.0119 15.1857 37.953 14.7053C37.806 13.8916 37.355 13.3328 36.8159 12.5976C36.6492 12.3525 36.6492 12.3035 36.3845 12.6564C36.0904 13.3132 36.3453 13.774 36.4237 14.2936C36.806 15.9798 37.0315 17.5287 37.1394 19.0679C37.2522 20.6667 37.2653 22.2711 37.1786 23.8715C37.4727 23.8813 37.9236 23.4108 38.0903 22.7147Z" fill="white"/>
<path fill-rule="evenodd" clip-rule="evenodd" d="M50.9133 21.1757C50.2369 20.0385 49.2271 18.8229 48.9526 18.3621C48.0436 17.0926 47.0888 15.8566 46.09 14.6564C45.2567 13.7741 46.4822 14.5093 45.9332 13.8231C45.4724 13.3231 45.345 13.1565 44.943 12.8526C44.747 12.7251 44.6293 12.48 44.5509 12.9016C44.5196 13.2667 44.5131 13.6335 44.5313 13.9996C44.5313 14.1662 44.7077 14.4897 44.8646 14.6858C46.8939 17.1857 49.1193 19.7346 50.9035 22.9403C51.1584 22.8129 51.0702 21.3718 50.9035 21.1757H50.9133Z" fill="white"/>
<path fill-rule="evenodd" clip-rule="evenodd" d="M20.3851 19.0873C20.3361 19.1755 20.2282 19.2833 20.2674 19.3912C20.3361 19.4892 20.4047 19.5186 20.5223 19.5186C20.6302 19.5186 20.787 19.548 20.8164 19.4892C20.8753 19.4206 20.9145 19.2932 20.8753 19.1657C20.7576 18.8716 20.4439 18.9892 20.3851 19.0873V19.0873Z" fill="#1BA400"/>
<path fill-rule="evenodd" clip-rule="evenodd" d="M43.0901 35.5379C43.992 35.5771 44.5802 35.5869 45.3743 35.6752L46.3154 35.5771C47.3546 35.4791 47.3938 37.0574 47.3938 37.0574C47.3938 37.9888 47.031 38.0378 46.5703 38.1358C46.3056 38.175 46.1781 37.979 46.0311 37.7829C45.8094 37.854 45.5732 37.8675 45.3449 37.8221C44.9625 37.8025 44.59 37.8025 44.2175 37.7731C43.8253 37.7437 43.6096 37.8221 43.2077 37.7829C43.1293 37.9103 43.0116 38.0868 42.7763 38.0378C42.5803 38.0084 42.3352 37.4496 42.4038 37.0084C42.5509 36.6947 42.5019 36.8025 42.5019 36.6653C38.8158 36.5673 35.1003 36.4006 31.4926 36.4496C28.6692 36.4594 25.885 36.5771 23.091 36.6947C21.6009 36.6751 20.4637 36.4398 19.6794 35.2928C19.7579 35.2928 23.4832 35.4987 24.5714 35.4301C26.5811 35.4105 28.4241 35.2438 30.473 35.185C34.512 35.2536 38.5217 35.2536 42.5607 35.5379C42.1685 35.2732 42.1685 34.6556 42.7567 34.4987C42.8058 34.4595 42.8352 34.8026 42.9234 34.7928C43.4038 34.7634 43.1881 35.4105 43.0901 35.5379V35.5379ZM26.8556 13.2645C26.2477 15.0095 27.2085 16.931 27.8751 16.7447C28.3653 16.9408 28.6594 16.0193 28.8555 15.0193C29.0025 14.735 29.1005 14.7056 29.1692 14.8526C29.1496 16.1859 29.2672 16.4898 29.6103 16.8918C30.375 17.48 31.0122 16.9702 31.0612 16.9212L31.6494 16.3232C31.7867 16.1761 31.9632 16.1761 32.1494 16.2937C32.3357 16.4604 32.3063 16.7447 32.6984 16.9408C33.0317 17.078 33.7278 16.98 33.8944 16.6957C34.1101 16.3134 34.1689 16.1859 34.267 16.0487C34.4238 15.8428 34.6885 15.931 34.6885 15.9996C34.6591 16.1173 34.5022 16.2251 34.6101 16.4408C34.8062 16.578 34.8454 16.4898 34.9532 16.4604C35.3453 16.2643 35.6394 15.4212 35.6394 15.4212C35.6492 15.1075 35.4728 15.1271 35.3551 15.2056L35.0512 15.4114C34.8552 15.4408 34.4924 15.5683 34.3062 15.284C34.1199 14.9507 34.1199 14.4703 33.9827 14.1272C33.9827 14.1076 33.7278 13.588 33.9631 13.5586C34.0807 13.5782 34.3258 13.6468 34.365 13.4409C34.4826 13.2351 34.1101 12.6567 33.8454 12.3626C33.6199 12.1175 33.3062 12.0881 33.0023 12.343C32.7866 12.539 32.8161 12.7547 32.7768 12.9606C32.7397 13.1081 32.738 13.2624 32.7721 13.4107C32.8062 13.5589 32.875 13.697 32.9729 13.8135C33.1886 14.2252 33.5709 14.7644 33.4435 15.5291C33.4435 15.5291 33.218 15.882 32.8259 15.833C32.6592 15.8036 32.3945 15.735 32.2573 14.6762C32.1494 13.8919 32.2769 12.7743 31.9435 12.2547C31.8161 11.9312 31.7279 11.6273 31.4338 12.1665C31.3553 12.3822 31.0122 12.7057 31.2573 13.3625C31.4892 13.9544 31.557 14.598 31.4534 15.2252C31.3063 15.4409 31.2769 15.5095 31.0906 15.7153C30.8358 16.0094 30.5515 15.931 30.3358 15.8232C30.1397 15.6957 29.9829 15.6271 29.8848 15.186C29.9044 14.4997 29.9436 13.3723 29.8162 13.137C29.6299 12.7645 29.326 12.9018 29.1986 13.0194C28.6154 13.6673 28.2249 14.4652 28.0712 15.3232C27.8947 15.8918 27.7085 15.7252 27.581 15.4997C27.2673 15.2056 27.2379 12.8822 26.8556 13.2645V13.2645Z" fill="white"/>
<path fill-rule="evenodd" clip-rule="evenodd" d="M28.6986 17.0678C28.9829 16.8718 28.8555 16.7345 29.2672 17.1463C29.7987 18.0866 30.1073 19.1364 30.1692 20.2147C30.1496 20.4696 30.326 20.6265 30.4142 20.5677C30.4535 19.9795 31.8946 19.156 33.218 19.0383C33.4141 18.9893 33.3161 18.607 33.3455 18.4109C33.267 17.6756 33.7572 17.009 34.4435 16.96C35.3846 17.0972 35.6983 17.5972 35.7179 18.3521C35.6101 19.8226 34.0807 20.0677 33.2278 20.1853C33.1004 20.2343 33.0416 20.2932 33.2278 20.3618L36.8159 20.3814L37.0022 20.4794C37.0218 20.5775 36.9433 20.499 36.8061 20.7343C36.6087 21.0811 36.4852 21.4649 36.4434 21.8617C35.3748 22.2146 34.267 22.3519 33.1494 22.4989C32.7573 22.695 32.5612 22.9597 32.6396 23.2538C32.7769 23.5773 33.6396 23.9106 33.6396 23.9204C33.8062 24.0185 33.9925 24.2636 33.5906 24.7635C31.8455 24.6851 30.4829 23.94 30.0123 22.8911C29.8751 22.7832 29.7182 22.8911 29.6202 23.0283C28.9339 23.9106 28.2673 24.6949 27.1007 25.1263C26.4144 25.3027 25.6988 25.0184 25.3655 24.5675C25.14 24.3028 25.1498 24.0185 25.0714 23.9596C24.689 24.1263 21.4539 25.4988 21.8656 24.8518C22.6499 24.0185 24.0224 23.391 25.2184 22.5676C25.3067 22.2833 25.4635 21.3421 25.9341 21.0382C25.9635 21.0382 25.8655 21.5872 25.8753 21.8225C25.8753 22.0186 25.8556 22.0872 25.8949 22.0382C25.9831 21.9892 27.434 20.8422 27.5614 20.4892C27.6987 20.2932 27.5909 19.7834 27.5909 19.7638C27.3164 19.0579 26.934 18.9991 26.7968 18.6462C26.6693 18.1854 26.7282 17.656 26.9928 17.4992C27.2281 17.2933 27.5026 17.3129 27.7673 17.5482C28.0614 17.8129 28.3163 18.3325 28.3947 18.7148C28.3457 18.8619 28.0026 18.6168 27.9046 18.6854C28.0933 18.9022 28.2187 19.1668 28.2673 19.4501C28.4634 20.2539 28.4045 20.5677 28.2085 21.0872C27.5614 22.4499 26.738 22.8519 26.0125 23.3616C25.9929 23.3616 25.9831 23.7048 26.2478 23.891C26.3458 23.9891 26.7282 24.0381 27.1693 23.891C28.1118 23.3676 28.8739 22.5713 29.3555 21.6068C29.4388 20.8729 29.3584 20.1296 29.1202 19.4305C28.8359 18.7736 28.5026 17.8423 28.5026 17.8227C28.4928 17.4109 28.5222 17.2737 28.6986 17.0678V17.0678ZM19.307 13.2837C19.7187 13.4798 20.503 13.3915 20.4638 12.7249L20.4441 12.421C20.3657 12.2249 20.1304 12.2739 20.0814 12.47C20.0618 12.5386 20.1108 12.6465 20.052 12.6759C20.0128 12.7151 19.8854 12.6955 19.8854 12.5092C19.8854 12.4504 19.8461 12.3916 19.8167 12.3524C19.7971 12.3328 19.7775 12.3328 19.7285 12.3328C19.6697 12.3328 19.6697 12.3426 19.6403 12.3916C19.6305 12.4406 19.6109 12.4896 19.6109 12.5484C19.6109 12.6171 19.5716 12.6367 19.5324 12.6465C19.4736 12.6465 19.4834 12.6465 19.4344 12.6269C19.4148 12.5975 19.3854 12.5877 19.3854 12.5288L19.356 12.372C19.3364 12.3426 19.2971 12.323 19.2579 12.3132C19.0325 12.3132 19.0128 12.5779 19.0325 12.6759C19.0128 12.6955 19.003 13.1563 19.307 13.2837V13.2837Z" fill="white"/>
<path fill-rule="evenodd" clip-rule="evenodd" d="M31.4142 18.4012C31.8259 18.5973 32.8161 18.4895 32.571 17.8522L32.5514 17.5385C32.4631 17.3425 32.2377 17.3915 32.1886 17.5974C32.169 17.6562 32.2181 17.764 32.1494 17.7934C32.12 17.8326 31.9828 17.813 31.9926 17.6366C31.9926 17.5778 31.9534 17.5091 31.924 17.4699C31.8945 17.4601 31.8847 17.4503 31.8259 17.4503C31.7769 17.4503 31.7769 17.4699 31.7475 17.5189C31.7279 17.5679 31.7181 17.617 31.7181 17.6758C31.7083 17.7346 31.6789 17.7542 31.6299 17.7738C31.5808 17.7738 31.5906 17.7738 31.5514 17.7444C31.522 17.715 31.4926 17.7052 31.4926 17.6562L31.4632 17.4993C31.4436 17.4699 31.4044 17.4503 31.3652 17.4405C31.1397 17.4405 31.1201 17.6954 31.1299 17.7934C31.1201 17.813 31.1103 18.2836 31.424 18.4012H31.4142ZM38.4727 16.2837C38.8844 16.4798 39.6589 16.3915 39.6295 15.7347L39.6099 15.421C39.5216 15.2249 39.2961 15.2739 39.2471 15.47C39.2275 15.5386 39.2765 15.6465 39.2079 15.6857C39.1785 15.7151 39.0413 15.6955 39.0511 15.5092C39.0511 15.4504 39.0118 15.3916 38.9824 15.3524C38.953 15.3328 38.9432 15.3328 38.8844 15.3328C38.8354 15.3328 38.8354 15.3524 38.806 15.4014L38.7766 15.5484C38.7668 15.6171 38.7373 15.6465 38.6883 15.6465C38.6393 15.6465 38.6491 15.6465 38.6099 15.6269C38.5805 15.5975 38.5511 15.5877 38.5511 15.5386C38.5511 15.4896 38.5413 15.4112 38.5217 15.372C38.5021 15.3426 38.4629 15.3328 38.4236 15.323C38.1982 15.323 38.1786 15.5779 38.1884 15.6759C38.1786 15.6955 38.1687 16.1563 38.4825 16.2837H38.4727ZM42.1293 21.607C41.4137 22.4207 41.7274 23.7637 41.8941 24.0578C42.1293 24.5284 42.3156 24.8323 42.7764 25.0676C43.1979 25.3715 43.5312 25.1852 43.7077 24.9695C44.1292 24.5284 44.139 23.401 44.3351 23.1853C44.4724 22.7736 44.8253 22.8422 44.9919 23.0285C45.1479 23.2498 45.3569 23.4284 45.5998 23.548C45.9919 23.8912 46.4625 23.9598 46.933 23.6461C47.2467 23.4598 47.4526 23.2343 47.6389 22.7736C47.8349 22.2246 47.7369 19.6757 47.6879 18.166L47.2761 16.0582C47.2761 16.0386 47.2271 15.0583 47.1781 14.8328C47.1781 14.7348 47.1487 14.7053 47.2467 14.7151C47.3546 14.8132 47.3644 14.8132 47.4428 14.8426C47.5408 14.8622 47.6389 14.6759 47.5702 14.5191L46.5899 12.6956C46.5115 12.6172 46.4036 12.5388 46.2762 12.7152C46.201 12.7833 46.1411 12.8666 46.1006 12.9595C46.06 13.0525 46.0397 13.153 46.0409 13.2544C46.0703 13.6858 46.1389 14.1269 46.1684 14.5583L46.5605 16.7739C46.6879 18.3424 46.7173 19.6365 46.8448 21.2148C46.8252 21.8815 46.6193 22.4599 46.4232 22.5481C46.4232 22.5481 46.1291 22.7148 45.9331 22.5285C45.786 22.4697 45.2076 21.5579 45.2076 21.5579C44.9135 21.2933 44.7174 21.3619 44.5116 21.5579C43.9234 22.1265 43.6685 23.1657 43.2665 23.8912C43.1685 24.0578 42.8744 24.1853 42.5607 23.8814C41.7568 22.7736 42.2274 21.205 42.1293 21.607V21.607ZM38.6589 12.4211C39.0314 12.5682 39.2863 13.3231 39.2079 13.6956C39.1295 14.1367 38.9334 14.6269 38.7962 14.5681C38.6393 14.5093 38.8942 14.1171 38.7471 13.7054C38.6687 13.4309 38.1589 12.9407 38.2178 12.8035C38.1197 12.4996 38.4334 12.3623 38.6589 12.4113V12.4211Z" fill="white"/>
<path fill-rule="evenodd" clip-rule="evenodd" d="M43.3253 22.0576C43.394 21.1557 43.2665 20.6067 43.2469 20.0773C43.2273 19.5479 42.6489 15.5089 42.5313 15.1167C42.3842 14.3521 43.0901 15.0187 43.0116 14.5678C42.7665 14.0188 42.1685 13.2051 41.9823 12.7247C41.8646 12.5286 41.9136 12.3326 41.6588 12.6757C41.4393 13.2773 41.3621 13.9215 41.4333 14.558C42.0411 17.7245 42.6587 20.3518 42.5607 23.3614C42.8548 23.3614 43.1783 22.7046 43.3253 22.0576V22.0576ZM49.6388 13.6952C49.9819 13.8619 50.1779 14.803 50.1387 15.0677C50.0701 15.5579 49.8936 16.0873 49.7662 16.0187C49.6191 15.9598 49.7956 15.2932 49.727 15.0873C49.6486 14.7932 49.1878 14.2638 49.2368 14.107C49.1388 13.7737 49.4329 13.6364 49.6388 13.6952V13.6952ZM24.5714 20.3518C24.8949 20.4792 25.0909 21.1655 25.0615 21.3615C24.9831 21.7243 24.8164 22.1164 24.689 22.0576C24.5616 22.0184 24.7184 21.5282 24.6596 21.3713C24.6302 21.0086 24.1792 20.8125 24.189 20.6557C24.1106 20.3616 24.3851 20.3126 24.5812 20.3518H24.5714Z" fill="white"/>
<path fill-rule="evenodd" clip-rule="evenodd" d="M32.375 21.3912C32.7868 21.4108 32.9926 21.7441 32.6103 21.8814C32.2182 22.0088 31.8554 22.1166 31.8456 22.6656C31.9927 23.4499 31.6496 23.1754 31.4535 23.0774C31.2182 22.9009 30.5516 22.4892 30.4535 21.6069C30.4437 21.401 30.6104 21.2147 30.8751 21.2147C31.2672 21.3226 31.8554 21.3324 32.375 21.3912V21.3912Z" fill="#1B9D00"/>
<path fill-rule="evenodd" clip-rule="evenodd" d="M15.9541 12.1955C16.4246 12.3328 16.454 13.0386 16.4246 13.2445C16.356 13.617 16.1894 14.019 16.0717 13.9699C15.9345 13.9209 16.0717 13.4112 16.0031 13.2543C15.9345 13.0386 15.5325 12.6269 15.5717 12.5092C15.4835 12.2641 15.7678 12.1465 15.9541 12.1955V12.1955ZM25.3556 15.4895C24.983 15.6856 24.8458 16.2738 25.0713 16.6267C25.2869 16.9208 25.6203 16.8129 25.6595 16.8129C26.0222 16.8522 26.2379 16.1365 26.2379 16.1365C26.2379 16.1365 26.2477 15.9404 25.8261 16.3228C25.6399 16.3522 25.6301 16.2836 25.581 16.1855C25.5362 15.9989 25.5534 15.8027 25.6301 15.6267C25.6987 15.4503 25.5614 15.3718 25.3556 15.4895ZM28.1005 11.921C27.9045 12.0485 27.5417 12.4308 27.5319 12.8622C27.5221 13.1072 27.4731 13.1072 27.63 13.2543C27.7574 13.4308 27.8652 13.421 28.1005 13.2935C28.1592 13.2566 28.2095 13.2079 28.2483 13.1505C28.2871 13.0932 28.3136 13.0283 28.326 12.9602C28.3848 12.6857 28.0319 13.0974 27.9927 12.7837C27.9143 12.4896 28.1397 12.372 28.3554 12.0975C28.3554 11.9014 28.3554 11.774 28.0907 11.921H28.1005ZM30.2965 12.3132C30.2101 12.6701 30.1576 13.0345 30.1396 13.4013C30.0808 13.6758 30.4338 13.7935 30.5808 13.4406C30.8161 12.8033 30.8161 12.5288 30.8357 12.2641C30.7671 11.8426 30.4828 11.8524 30.2965 12.3132ZM44.2174 19.4011C44.2566 19.352 46.1781 17.9894 46.1781 17.9894C46.3741 17.9207 46.3251 18.6952 46.2369 18.6854C45.641 19.2597 44.9556 19.7332 44.2076 20.0873C44.1095 20.1559 44.0213 19.5677 44.2076 19.4011H44.2174ZM45.9526 19.3814C46.2957 19.5481 46.433 20.5383 46.3937 20.8029C46.3937 21.3323 46.0702 21.7441 45.933 21.6853C45.7957 21.6166 45.9526 21.0284 45.884 20.8226C45.8055 20.5284 45.5212 19.9893 45.5703 19.8324C45.4722 19.4991 45.7467 19.3226 45.9624 19.3814H45.9526ZM34.5806 23.6361C34.7396 23.4505 34.9245 23.2887 35.1296 23.1558C35.3257 23.0577 35.5021 23.2342 35.4923 23.2244C35.5217 23.4205 35.3747 23.5871 35.4237 23.842C35.4629 23.94 35.4923 24.0577 35.6786 24.0185C35.9825 23.7734 36.2668 23.7538 36.5609 23.744C36.806 23.7538 36.8158 24.1557 36.6589 24.1557C36.1001 24.2734 35.8551 24.4302 35.4531 24.5773C35.257 24.6949 35.1002 24.5479 35.1002 24.5381C35.1002 24.5283 34.9923 24.4302 35.061 24.1753C35.0806 23.9793 35.0022 23.8616 34.8257 23.8812C34.708 23.9597 34.5904 23.9989 34.5316 23.8518C34.5022 23.7538 34.4924 23.695 34.5806 23.6361V23.6361ZM47.9721 24.1655C48.0505 24.2636 48.1094 24.3616 47.9623 24.5381L47.5996 24.8518C47.5408 24.9498 47.5015 25.1263 47.6976 25.1753C48.0505 25.2733 48.874 24.7341 48.874 24.7243C49.0113 24.6263 48.9721 24.4302 48.9524 24.4302C48.874 24.342 48.6976 24.4008 48.5799 24.3812C48.5211 24.3812 48.3348 24.3616 48.4231 24.1851C48.4889 24.0985 48.5418 24.0027 48.5799 23.9008C48.6289 23.7832 48.5799 23.7048 48.3838 23.6361C48.178 23.5969 48.0897 23.6165 47.8643 23.6361C47.7466 23.6557 47.7074 23.7146 47.678 23.8616C47.6878 24.0871 47.8251 24.0773 47.9721 24.1557V24.1655Z" fill="white"/>
<path fill-rule="evenodd" clip-rule="evenodd" d="M34.6494 18.5975C34.6004 18.6955 34.424 18.6955 34.2573 18.5975C34.0906 18.4995 33.9926 18.3426 34.0514 18.2544C34.1103 18.1661 34.2769 18.1661 34.4436 18.2544C34.6102 18.3426 34.6985 18.5093 34.6494 18.5975ZM25.9244 13.3428C25.8263 13.3723 25.6891 13.284 25.6303 13.1468C25.5715 13.0095 25.6009 12.8919 25.6989 12.8625C25.7969 12.8331 25.9244 12.9311 25.993 13.0585C26.0616 13.186 26.0224 13.3232 25.9146 13.3526L25.9244 13.3428Z" fill="#259F00"/>
<path fill-rule="evenodd" clip-rule="evenodd" d="M43.188 36.763C44.1095 36.8022 44.9722 36.763 45.8839 36.812C46.0506 36.959 45.933 37.3022 45.8251 37.2826L45.0604 37.2531C45.0506 36.959 44.3056 37.0081 44.3252 37.263C43.9232 37.312 43.5605 37.2531 43.1488 37.2335C43.0311 37.0865 43.0507 36.8218 43.188 36.763V36.763Z" fill="#209000"/>
</g>
<defs>
<clipPath id="clip0_237_1078">
<rect width="66.9248" height="50.1936" fill="white" transform="translate(0.000488281)"/>
</clipPath>
</defs>
</svg>
