<svg width="68" height="51" viewBox="0 0 68 51" fill="none" xmlns="http://www.w3.org/2000/svg">
<g clip-path="url(#clip0_237_2170)">
<path d="M0.605225 0H67.5301V50.1936H0.605225V0Z" fill="white"/>
<path d="M28.4209 5.57343H67.5301V11.1575H28.4209V5.57343ZM28.4209 16.7311H67.5301V22.3046H28.4209V16.7311ZM0.605286 27.8887H67.5301V33.4623H0.605286V27.8887ZM0.605286 39.0358H67.5301V44.6199H0.605286V39.0358Z" fill="#0038A8"/>
<path d="M13.9125 16.6654L14.8356 18.0438C11.0425 20.7888 13.3582 22.412 10.6702 23.2907C12.342 21.6591 10.4069 21.5216 11.8155 18.1209" fill="#FCD116"/>
<path d="M13.9125 16.6654L14.8356 18.0438C11.0425 20.7888 13.3582 22.412 10.6702 23.2907C12.342 21.6591 10.4069 21.5216 11.8155 18.1209" stroke="black" stroke-width="0.184043" stroke-miterlimit="20" stroke-linecap="square"/>
<path d="M13.253 17.0562C11.1602 20.5054 12.5327 22.402 10.6705 23.2907" stroke="black" stroke-width="0.184043" stroke-miterlimit="20"/>
<path d="M14.5442 13.9387H16.3846L14.5442 24.061L12.7037 13.9387H14.5442V24.061Z" fill="#FCD116"/>
<path d="M14.5442 13.9387H16.3846L14.5442 24.061L12.7037 13.9387H14.5442ZM14.5442 13.9387V24.061" stroke="black" stroke-width="0.184043" stroke-miterlimit="20"/>
<path d="M12.1698 15.4204L11.8479 17.0478C7.22476 16.3066 7.71443 19.0919 5.19241 17.8125C7.52829 17.841 6.2572 16.3754 9.65788 14.9668" fill="#FCD116"/>
<path d="M12.1698 15.4204L11.8479 17.0478C7.22476 16.3066 7.71443 19.0919 5.19241 17.8125C7.52829 17.841 6.2572 16.3754 9.65788 14.9668" stroke="black" stroke-width="0.184043" stroke-miterlimit="20" stroke-linecap="square"/>
<path d="M11.4266 15.2302C7.50776 16.1894 7.13719 18.501 5.19202 17.8126" stroke="black" stroke-width="0.184043" stroke-miterlimit="20"/>
<path d="M14.544 13.9389L15.8454 15.2403L7.3864 21.0965L13.2426 12.6376L14.544 13.9389L7.3864 21.0965Z" fill="#FCD116"/>
<path d="M14.544 13.9389L15.8454 15.2403L7.3864 21.0965L13.2426 12.6376L14.544 13.9389ZM14.544 13.9389L7.3864 21.0965" stroke="black" stroke-width="0.184043" stroke-miterlimit="20"/>
<path d="M11.817 13.3074L10.4387 14.2305C7.69366 10.4374 6.07043 12.7532 5.19178 10.0652C6.82336 11.737 6.96088 9.8019 10.3616 11.2105" fill="#FCD116"/>
<path d="M11.817 13.3074L10.4387 14.2305C7.69366 10.4374 6.07043 12.7532 5.19178 10.0652C6.82336 11.737 6.96088 9.8019 10.3616 11.2105" stroke="black" stroke-width="0.184043" stroke-miterlimit="20" stroke-linecap="square"/>
<path d="M11.4272 12.6475C7.97788 10.5547 6.08133 11.9272 5.19261 10.065" stroke="black" stroke-width="0.184043" stroke-miterlimit="20"/>
<path d="M14.5439 13.939V15.7795L4.42152 13.939L14.5439 12.0986V13.939H4.42152Z" fill="#FCD116"/>
<path d="M14.5439 13.939V15.7795L4.42152 13.939L14.5439 12.0986V13.939ZM14.5439 13.939H4.42152" stroke="black" stroke-width="0.184043" stroke-miterlimit="20"/>
<path d="M13.0621 11.5661L11.4347 11.2441C12.1758 6.62098 9.39054 7.11066 10.67 4.58863C10.6415 6.92451 12.1071 5.65343 13.5157 9.0541" fill="#FCD116"/>
<path d="M13.0621 11.5661L11.4347 11.2441C12.1758 6.62098 9.39054 7.11066 10.67 4.58863C10.6415 6.92451 12.1071 5.65343 13.5157 9.0541" stroke="black" stroke-width="0.184043" stroke-miterlimit="20" stroke-linecap="square"/>
<path d="M13.2519 10.8231C12.2927 6.90424 9.98112 6.53368 10.6694 4.5885" stroke="black" stroke-width="0.184043" stroke-miterlimit="20"/>
<path d="M14.5441 13.9407L13.2428 15.2421L7.38654 6.78315L15.8455 12.6394L14.5441 13.9407L7.38654 6.78315Z" fill="#FCD116"/>
<path d="M14.5441 13.9407L13.2428 15.2421L7.38654 6.78315L15.8455 12.6394L14.5441 13.9407ZM14.5441 13.9407L7.38654 6.78315" stroke="black" stroke-width="0.184043" stroke-miterlimit="20"/>
<path d="M15.1747 11.2127L14.2516 9.83426C18.0447 7.08927 15.729 5.46604 18.417 4.58739C16.7451 6.21897 18.6802 6.35649 17.2716 9.75716" fill="#FCD116"/>
<path d="M15.1747 11.2127L14.2516 9.83426C18.0447 7.08927 15.729 5.46604 18.417 4.58739C16.7451 6.21897 18.6802 6.35649 17.2716 9.75716" stroke="black" stroke-width="0.184043" stroke-miterlimit="20" stroke-linecap="square"/>
<path d="M15.8342 10.8215C17.9269 7.37222 16.5544 5.47567 18.4166 4.58695" stroke="black" stroke-width="0.184043" stroke-miterlimit="20"/>
<path d="M14.5434 13.9392H12.7029L14.5434 3.81687L16.3838 13.9392H14.5434V3.81687Z" fill="#FCD116"/>
<path d="M14.5434 13.9392H12.7029L14.5434 3.81687L16.3838 13.9392H14.5434ZM14.5434 13.9392V3.81687" stroke="black" stroke-width="0.184043" stroke-miterlimit="20"/>
<path d="M16.917 12.4573L17.2389 10.8299C21.862 11.571 21.3724 8.78577 23.8944 10.0652C21.5585 10.0367 22.8296 11.5023 19.4289 12.9109" fill="#FCD116"/>
<path d="M16.917 12.4573L17.2389 10.8299C21.862 11.571 21.3724 8.78577 23.8944 10.0652C21.5585 10.0367 22.8296 11.5023 19.4289 12.9109" stroke="black" stroke-width="0.184043" stroke-miterlimit="20" stroke-linecap="square"/>
<path d="M17.6602 12.6479C21.579 11.6887 21.9496 9.37712 23.8948 10.0655" stroke="black" stroke-width="0.184043" stroke-miterlimit="20"/>
<path d="M14.5433 13.9392L13.2419 12.6378L21.7009 6.78156L15.8447 15.2405L14.5433 13.9392L21.7009 6.78156Z" fill="#FCD116"/>
<path d="M14.5433 13.9392L13.2419 12.6378L21.7009 6.78156L15.8447 15.2405L14.5433 13.9392ZM14.5433 13.9392L21.7009 6.78156" stroke="black" stroke-width="0.184043" stroke-miterlimit="20"/>
<path d="M17.2703 14.5704L18.6487 13.6473C21.3937 17.4404 23.0169 15.1247 23.8956 17.8127C22.264 16.1408 22.1265 18.076 18.7258 16.6673" fill="#FCD116"/>
<path d="M17.2703 14.5704L18.6487 13.6473C21.3937 17.4404 23.0169 15.1247 23.8956 17.8127C22.264 16.1408 22.1265 18.076 18.7258 16.6673" stroke="black" stroke-width="0.184043" stroke-miterlimit="20" stroke-linecap="square"/>
<path d="M17.6608 15.2303C21.1101 17.3231 23.0066 15.9506 23.8953 17.8128" stroke="black" stroke-width="0.184043" stroke-miterlimit="20"/>
<path d="M14.5435 13.9388V12.0984L24.6658 13.9388L14.5435 15.7793V13.9388H24.6658Z" fill="#FCD116"/>
<path d="M14.5435 13.9388V12.0984L24.6658 13.9388L14.5435 15.7793V13.9388ZM14.5435 13.9388H24.6658" stroke="black" stroke-width="0.184043" stroke-miterlimit="20"/>
<path d="M16.0259 16.3136L17.6533 16.6356C16.9121 21.2587 19.6974 20.769 18.418 23.2911C18.4465 20.9552 16.9809 22.2263 15.5723 18.8256" fill="#FCD116"/>
<path d="M16.0259 16.3136L17.6533 16.6356C16.9121 21.2587 19.6974 20.769 18.418 23.2911C18.4465 20.9552 16.9809 22.2263 15.5723 18.8256" stroke="black" stroke-width="0.184043" stroke-miterlimit="20" stroke-linecap="square"/>
<path d="M15.8351 17.0562C16.7943 20.975 19.1059 21.3456 18.4175 23.2908" stroke="black" stroke-width="0.184043" stroke-miterlimit="20"/>
<path d="M14.5442 13.9392L15.8456 12.6379L21.7018 21.0968L13.2429 15.2406L14.5442 13.9392L21.7018 21.0968Z" fill="#FCD116"/>
<path d="M14.5442 13.9392L15.8456 12.6379L21.7018 21.0968L13.2429 15.2406L14.5442 13.9392ZM14.5442 13.9392L21.7018 21.0968" stroke="black" stroke-width="0.184043" stroke-miterlimit="20"/>
<path d="M14.5436 17.3134C16.407 17.3134 17.9177 15.8027 17.9177 13.9393C17.9177 12.0758 16.407 10.5651 14.5436 10.5651C12.6801 10.5651 11.1694 12.0758 11.1694 13.9393C11.1694 15.8027 12.6801 17.3134 14.5436 17.3134Z" fill="#FCD116" stroke="black" stroke-width="0.184043" stroke-miterlimit="20"/>
<path d="M17.0295 12.5894C16.8148 12.8348 16.6921 12.4053 15.9253 12.4053C15.1584 12.4053 15.0357 12.8654 14.913 12.7734C14.7903 12.6814 15.5572 12.1293 15.8026 12.0986C16.048 12.0679 16.7535 12.3133 17.0295 12.5894ZM16.14 12.8654C16.3547 13.0495 16.1707 13.4482 15.9559 13.4482C15.7412 13.4482 15.3425 13.0802 15.5265 12.8348" fill="black"/>
<path d="M15.1273 13.1416C15.158 12.7735 15.4647 12.7122 15.9555 12.7122C16.4463 12.7122 16.661 13.0802 16.845 13.1723C16.6303 13.1723 16.4463 12.8655 15.9555 12.8655C15.4647 12.8655 15.4647 12.8655 15.1273 13.1723M15.2193 13.2336C15.342 13.0496 15.4954 13.4177 15.8328 13.4177C16.1702 13.4177 16.3543 13.3256 16.569 13.1723C16.7837 13.0189 16.2622 13.5403 15.9248 13.5403C15.5874 13.5403 15.1273 13.3563 15.2193 13.2336Z" fill="black"/>
<path d="M16.2617 13.4173C16.6605 13.2026 16.4151 12.8959 16.2617 12.8345C16.3231 12.8959 16.5684 13.2026 16.2617 13.4173ZM14.544 15.2578C14.728 15.2578 14.7894 15.1964 15.0348 15.1964C15.2802 15.1964 15.863 15.5338 16.2004 15.4111C15.4949 15.6872 15.7709 15.5031 14.544 15.5031H14.3906M16.3231 15.6872C16.2004 15.4725 16.231 15.5338 15.9856 15.1964C16.231 15.3805 16.2924 15.4725 16.3231 15.6872ZM14.544 15.9939C15.3108 15.9939 15.1881 15.8406 16.2004 15.4111C15.4642 15.5031 15.3108 15.7485 14.544 15.7485H14.3906M14.544 14.859C14.7587 14.859 14.8201 14.7056 15.0654 14.7056C15.3108 14.7056 15.6482 14.7977 15.8016 14.9203C15.8323 14.951 15.7096 14.675 15.4642 14.6443C15.2188 14.6136 15.3108 14.2149 15.0348 14.1535C15.0348 14.2762 15.1268 14.2455 15.1575 14.4296C15.1575 14.5829 14.8814 14.5829 14.8201 14.4296C14.8814 14.675 14.6974 14.675 14.544 14.675" fill="black"/>
<path d="M12.0602 12.5894C12.2749 12.8348 12.3976 12.4053 13.1645 12.4053C13.9313 12.4053 14.054 12.8654 14.1767 12.7734C14.2994 12.6814 13.5325 12.1293 13.2871 12.0986C13.0418 12.0679 12.3363 12.3133 12.0602 12.5894ZM12.9497 12.8654C12.735 13.0495 12.9191 13.4482 13.1338 13.4482C13.3485 13.4482 13.7473 13.0802 13.5632 12.8348" fill="black"/>
<path d="M13.9615 13.1416C13.9309 12.7735 13.6241 12.7122 13.1334 12.7122C12.6426 12.7122 12.4279 13.0802 12.2438 13.1723C12.4585 13.1723 12.6426 12.8655 13.1334 12.8655C13.6241 12.8655 13.6241 12.8655 13.9615 13.1723M13.8695 13.2336C13.7468 13.0496 13.5935 13.4177 13.2561 13.4177C12.9186 13.4177 12.7346 13.3256 12.5199 13.1723C12.3052 13.0189 12.8266 13.5403 13.164 13.5403C13.5014 13.5403 13.9615 13.3563 13.8695 13.2336Z" fill="black"/>
<path d="M12.827 13.4173C12.4283 13.2026 12.6737 12.8959 12.827 12.8345C12.7657 12.8959 12.5203 13.2026 12.827 13.4173ZM14.5448 15.2578C14.3607 15.2578 14.2994 15.1964 14.054 15.1964C13.8086 15.1964 13.2258 15.5338 12.8884 15.4111C13.5939 15.6872 13.3178 15.5031 14.5448 15.5031H14.6981M12.7657 15.6872C12.8884 15.4725 12.8577 15.5338 13.1031 15.1964C12.8577 15.3805 12.7964 15.4725 12.7657 15.6872ZM14.5448 15.9939C13.7779 15.9939 13.9006 15.8406 12.8884 15.4111C13.6245 15.5031 13.7779 15.7485 14.5448 15.7485H14.6981M14.5448 14.859C14.33 14.859 14.2687 14.7056 14.0233 14.7056C13.7779 14.7056 13.4405 14.7977 13.2871 14.9203C13.2565 14.951 13.3792 14.675 13.6245 14.6443C13.8699 14.6136 13.7779 14.2149 14.054 14.1535C14.054 14.2762 13.962 14.2455 13.9313 14.4296C13.9313 14.5829 14.2073 14.5829 14.2687 14.4296C14.2073 14.675 14.3914 14.675 14.5448 14.675" fill="black"/>
<path d="M14.544 16.2701C14.3906 16.2701 13.9919 16.3622 14.544 16.3622C15.0961 16.3622 14.6974 16.2701 14.544 16.2701Z" fill="black"/>
</g>
<defs>
<clipPath id="clip0_237_2170">
<rect width="66.9248" height="50.1936" fill="white" transform="translate(0.605225)"/>
</clipPath>
</defs>
</svg>
