<svg width="68" height="51" viewBox="0 0 68 51" fill="none" xmlns="http://www.w3.org/2000/svg">
<g clip-path="url(#clip0_237_1473)">
<path fill-rule="evenodd" clip-rule="evenodd" d="M0.291016 0H67.2158V50.1936H0.291016V0Z" fill="#229E45"/>
<path fill-rule="evenodd" clip-rule="evenodd" d="M33.8998 45.5927L65.4276 25.1283L33.7115 4.6012L2.0791 25.1701L33.8998 45.5927Z" fill="#F8E509"/>
<path fill-rule="evenodd" clip-rule="evenodd" d="M47.6403 25.0966C47.6403 32.4479 41.6693 38.4084 34.2972 38.4084C31.6627 38.4043 29.0887 37.6191 26.9004 36.1523C24.7121 34.6855 23.0078 32.6028 22.003 30.1675C20.9981 27.7322 20.7379 25.0537 21.2552 22.4705C21.7724 19.8873 23.0439 17.5155 24.9089 15.6549C26.774 13.7942 29.1488 12.5283 31.7331 12.0172C34.3175 11.506 36.9954 11.7725 39.4283 12.7831C41.8612 13.7936 43.9399 15.5028 45.4016 17.6945C46.8633 19.8863 47.6424 22.4622 47.6403 25.0966V25.0966Z" fill="#2B49A3"/>
<path fill-rule="evenodd" clip-rule="evenodd" d="M29.916 33.0757L29.4977 32.8352L29.0794 33.0443L29.1735 32.5738L28.8389 32.2182L29.3095 32.166L29.5395 31.7477L29.7382 32.1869L30.1983 32.2705L29.8532 32.5842M38.8463 35.3344L38.4384 35.0939L38.0201 35.3031L38.1038 34.8325L37.7796 34.4874L38.2502 34.4351L38.4698 34.0064L38.6789 34.4456L39.139 34.5292L38.7835 34.8534M34.9981 31.7163L34.6425 31.5072L34.2765 31.6954L34.3602 31.2876L34.0674 30.9843L34.4857 30.9425L34.6739 30.566L34.8412 30.9529L35.249 31.0261L34.9353 31.3085M44.0329 30.4196L43.6774 30.2105L43.3114 30.3987L43.395 29.9909L43.1127 29.6981L43.5205 29.6563L43.7088 29.2903L43.8761 29.6667L44.2734 29.7399L43.9702 30.0118M34.8412 27.7113L34.4229 27.4812L34.0047 27.6904L34.0883 27.2093L33.7641 26.8643L34.2347 26.812L34.4543 26.3832L34.6634 26.8224L35.1236 26.9061L34.768 27.2407M23.83 23.5808L23.4117 23.3507L22.9934 23.5598L23.098 23.0788L22.7529 22.7337L23.2339 22.6815L23.4431 22.2527L23.6522 22.6919L24.1123 22.7756L23.7673 23.0997M25.158 29.0811L24.7398 28.8406L24.3215 29.0498L24.4156 28.5792L24.081 28.2341L24.5515 28.1714L24.7711 27.7531L24.9803 28.1923L25.4404 28.2759L25.0953 28.6001M38.8985 21.5626L38.5221 21.3534L38.1456 21.5416L38.2293 21.1234L37.9365 20.8096L38.3548 20.7574L38.5535 20.3809L38.7312 20.7783L39.1495 20.8515L38.8358 21.1338M38.1352 25.1388L37.8528 24.9715L37.5496 25.1179L37.6123 24.7833L37.3823 24.5428L37.7169 24.501L37.8737 24.2082L38.0097 24.5219L38.3234 24.5742L38.0933 24.8042M23.2235 30.0746L22.9411 29.9177L22.6588 30.0536L22.7216 29.7399L22.502 29.5099L22.8157 29.468L22.9621 29.1857L23.098 29.4785L23.4117 29.5412L23.1712 29.7504M44.1061 31.3503L43.8761 31.2353L43.646 31.3399L43.6983 31.0993L43.5205 30.932L43.7715 30.9007L43.897 30.6915L44.0016 30.9007L44.263 30.9529L44.0643 31.1098" fill="#FFFFEF"/>
<path fill-rule="evenodd" clip-rule="evenodd" d="M23.2235 30.0741L22.9411 29.9173L22.6588 30.0532L22.7216 29.7395L22.502 29.5095L22.8157 29.4676L22.9621 29.1853L23.098 29.4781L23.4117 29.5408L23.1712 29.75" fill="#FFFFEF"/>
<path fill-rule="evenodd" clip-rule="evenodd" d="M23.2235 30.0745L22.9411 29.9176L22.6588 30.0536L22.7216 29.7399L22.502 29.5098L22.8157 29.468L22.9621 29.1857L23.098 29.4785L23.4117 29.5412L23.1712 29.7503M27.5945 30.064L27.3226 29.9176L27.0403 30.0536L27.103 29.7399L26.8834 29.5098L27.1971 29.468L27.3435 29.1857L27.4795 29.4785L27.7932 29.5307L27.5527 29.7503M27.0507 31.528L26.7789 31.3712L26.4965 31.5176L26.5593 31.2039L26.3397 30.9633L26.6534 30.9215L26.7998 30.6392L26.9357 30.932L27.2494 30.9947L27.0089 31.2039M36.1483 28.8824L35.8765 28.7151L35.5837 28.8615L35.6464 28.5478L35.4373 28.3073L35.751 28.2759L35.8974 27.9936L36.0229 28.2864L36.3366 28.3386L36.1065 28.5582M33.4818 28.8719L33.1995 28.7151L32.9171 28.8615L32.9799 28.5478L32.7707 28.3073L33.0844 28.2759L33.2308 27.9831L33.3563 28.2864L33.67 28.3386L33.44 28.5582M26.2456 27.9517L26.0678 27.8472L25.89 27.9308L25.9319 27.7321L25.7959 27.5857L25.9946 27.5648L26.0782 27.3871L26.1619 27.5753L26.3606 27.6066L26.2142 27.7426M43.761 32.4901L43.4892 32.3332L43.2068 32.4796L43.2696 32.1659L43.05 31.9254L43.3637 31.8836L43.5101 31.6012L43.646 31.894L43.9597 31.9568L43.7192 32.1659M41.5442 32.7933L41.3141 32.6469L41.0736 32.7724L41.1259 32.5005L40.9481 32.3123L41.2095 32.2809L41.335 32.0404L41.4396 32.2914L41.701 32.3332L41.5023 32.5214M42.5899 32.7619L42.3807 32.6365L42.1611 32.741L42.2029 32.5005L42.0356 32.3228L42.2761 32.2914L42.3912 32.0822L42.4957 32.2914L42.7363 32.3437L42.5585 32.511M45.6015 30.1268L45.3923 30.0222L45.1832 30.1268L45.2355 29.8863L45.0682 29.7085L45.3087 29.6771L45.4132 29.468L45.5178 29.6876L45.7374 29.7294L45.5701 29.8967M41.5128 34.2678L41.2514 34.1214L40.969 34.2468L41.0318 33.9541L40.8226 33.7449L41.1363 33.7135L41.2723 33.4521L41.3978 33.724L41.7115 33.7763L41.471 33.975M41.5337 35.4599L41.2827 35.3135L41.0318 35.4494L41.0945 35.1566L40.8958 34.9475L41.1782 34.9056L41.3036 34.6442L41.4187 34.9161L41.701 34.9684L41.4919 35.1775M39.505 32.7619L39.3064 32.6365L39.0972 32.741L39.139 32.511L38.9822 32.3332L39.2122 32.3123L39.3168 32.1032L39.4214 32.3123L39.6514 32.3541L39.4841 32.5214M37.6228 32.7619L37.4136 32.6365L37.2045 32.741L37.2568 32.511L37.0895 32.3332L37.33 32.3123L37.4346 32.1032L37.5391 32.3123L37.7587 32.3541L37.5914 32.5214M34.4125 29.949L34.2033 29.834L33.9942 29.9386L34.0465 29.698L33.8792 29.5307L34.1092 29.4994L34.2138 29.2902L34.3184 29.4994L34.5484 29.5517L34.3811 29.7085M34.768 35.669L34.6007 35.5749L34.4125 35.669L34.4543 35.4599L34.3184 35.3135L34.517 35.2925L34.6112 35.1148L34.6948 35.303L34.8935 35.3344L34.7471 35.4703M29.916 26.4146L29.4977 26.174L29.0794 26.3832L29.1735 25.9126L28.8389 25.5675L29.3095 25.5048L29.5395 25.0865L29.7382 25.5257L30.1983 25.6094L29.8532 25.9335" fill="#FFFFEF"/>
<path fill-rule="evenodd" clip-rule="evenodd" d="M46.762 29.8861C47.0211 29.2139 47.2239 28.5213 47.3685 27.8156C40.2787 21.5937 32.3836 18.4043 22.4076 19.0631C22.0458 19.7632 21.7483 20.4947 21.5188 21.2486C33.3352 20.1192 42.0145 25.3477 46.762 29.8861Z" fill="white"/>
<path d="M43.5831 26.3935L43.8236 26.5294C43.7877 26.6004 43.7767 26.6814 43.7923 26.7595C43.8168 26.8351 43.8691 26.8987 43.9387 26.9372C44.0119 26.9895 44.0851 27.0209 44.1478 27.0104C44.2105 27.0104 44.2524 26.979 44.2837 26.9372C44.302 26.9095 44.3094 26.876 44.3047 26.8431C44.2961 26.8045 44.2781 26.7686 44.2524 26.7385C44.2315 26.7072 44.1792 26.634 44.0955 26.5503C44.0095 26.4616 43.9451 26.3542 43.9073 26.2366C43.8812 26.1476 43.888 26.0521 43.9264 25.9677C43.9647 25.8832 44.0322 25.8154 44.1164 25.7765C44.1925 25.7447 44.2765 25.7374 44.3569 25.7556C44.4552 25.7782 44.5478 25.8209 44.6288 25.8811C44.7752 25.9856 44.8693 26.0902 44.9007 26.2157C44.9152 26.2744 44.9171 26.3355 44.9062 26.3949C44.8954 26.4544 44.8722 26.5109 44.838 26.5608L44.587 26.4039C44.6184 26.3412 44.6288 26.2784 44.6079 26.2261C44.5975 26.1739 44.5556 26.1216 44.4824 26.0797C44.4287 26.0365 44.363 26.011 44.2942 26.0065C44.2752 26.0059 44.2565 26.0104 44.2399 26.0196C44.2233 26.0289 44.2096 26.0424 44.2001 26.0588C44.1792 26.0902 44.1792 26.1216 44.1896 26.1634C44.2001 26.2052 44.2524 26.2889 44.3569 26.3935C44.4615 26.498 44.5243 26.5921 44.5661 26.6549C44.6034 26.7234 44.6203 26.8012 44.6148 26.8791C44.6092 26.9569 44.5814 27.0315 44.5347 27.0941C44.4858 27.1652 44.4165 27.2198 44.336 27.2509C44.2576 27.287 44.1699 27.298 44.0851 27.2823C43.9909 27.2614 43.8968 27.2196 43.7923 27.1464C43.6354 27.0418 43.5413 26.9268 43.5099 26.8013C43.4759 26.659 43.4984 26.509 43.5727 26.383L43.5831 26.3935ZM42.3701 25.5987L42.6315 25.7347C42.5992 25.8069 42.5918 25.8878 42.6106 25.9647C42.6374 26.0365 42.6894 26.096 42.757 26.132C42.8407 26.1843 42.9034 26.2052 42.9662 26.1948C43.0289 26.1948 43.0707 26.1634 43.1021 26.1111C43.118 26.0862 43.1253 26.0569 43.123 26.0275C43.123 25.9961 43.1021 25.9543 43.0707 25.9229C43.0172 25.8582 42.9614 25.7954 42.9034 25.7347C42.7884 25.6196 42.7152 25.5255 42.6943 25.4419C42.6772 25.3881 42.6721 25.3312 42.6793 25.2752C42.6865 25.2192 42.7059 25.1654 42.7361 25.1177C42.7759 25.0532 42.8342 25.0021 42.9034 24.9713C42.9753 24.9382 43.0554 24.9273 43.1335 24.9399C43.2302 24.9562 43.3226 24.9918 43.4054 25.0445C43.5622 25.1491 43.6563 25.2536 43.6877 25.3687C43.7068 25.4274 43.7129 25.4896 43.7057 25.551C43.6984 25.6124 43.678 25.6715 43.6459 25.7242L43.3844 25.5778C43.4158 25.5046 43.4263 25.4523 43.4054 25.4C43.3844 25.3478 43.3426 25.2955 43.2694 25.2536C43.2116 25.2121 43.1419 25.1901 43.0707 25.1909C43.0536 25.1921 43.0369 25.1974 43.0224 25.2066C43.0078 25.2157 42.9956 25.2283 42.9871 25.2432C42.9662 25.2746 42.9662 25.3059 42.9766 25.3478C42.9871 25.3896 43.0498 25.4732 43.1544 25.5778C43.259 25.6824 43.3322 25.766 43.3635 25.8288C43.4054 25.8944 43.4277 25.9706 43.4277 26.0484C43.4277 26.1262 43.4054 26.2024 43.3635 26.268C43.3185 26.3409 43.253 26.3991 43.1753 26.4353C43.0969 26.4714 43.0092 26.4823 42.9243 26.4667C42.8167 26.4485 42.7137 26.4094 42.6211 26.3516C42.4859 26.2796 42.3818 26.1605 42.3283 26.017C42.2879 25.8774 42.3029 25.7276 42.3701 25.5987V25.5987ZM40.8852 25.2014L41.6486 23.9465L42.5688 24.5217L42.4433 24.7308L41.7741 24.3125L41.6068 24.5949L42.2342 24.9818L42.0982 25.1909L41.4708 24.804L41.2617 25.1491L41.9623 25.5674L41.8368 25.7765L40.8957 25.2014H40.8852ZM38.7206 23.4237L38.8356 23.2145L39.4003 23.4969L39.1389 24.0197C39.0552 24.0406 38.9507 24.0511 38.8252 24.0406C38.7047 24.0273 38.5877 23.9919 38.4801 23.9361C38.3536 23.8744 38.2454 23.7807 38.1664 23.6642C38.0945 23.556 38.0579 23.4281 38.0618 23.2982C38.0671 23.163 38.1029 23.0307 38.1664 22.9113C38.2292 22.7855 38.3227 22.6776 38.4383 22.5976C38.5488 22.5211 38.6804 22.4809 38.8147 22.4825C38.9193 22.4825 39.0239 22.5139 39.1494 22.5871C39.3167 22.6603 39.4212 22.7649 39.4735 22.8799C39.5279 22.9941 39.539 23.1241 39.5049 23.2459L39.2226 23.1622C39.2398 23.0922 39.2325 23.0183 39.2016 22.9531C39.1703 22.8904 39.118 22.8485 39.0343 22.8067C38.9856 22.7789 38.9315 22.7617 38.8756 22.7563C38.8197 22.7509 38.7633 22.7574 38.7102 22.7753C38.6056 22.8067 38.5115 22.9008 38.4383 23.0472C38.3651 23.1936 38.3337 23.3296 38.3651 23.4446C38.3795 23.4991 38.4057 23.5499 38.4419 23.5932C38.478 23.6366 38.5232 23.6715 38.5742 23.6956C38.6265 23.7269 38.6892 23.7478 38.752 23.7478C38.8144 23.7573 38.8778 23.7573 38.9402 23.7478L39.0239 23.5805L38.7206 23.4237V23.4237ZM29.2884 21.0918L29.4975 19.6278L29.9367 19.701L30.0518 20.7258L30.4596 19.7846L30.8988 19.8474L30.6896 21.2904L30.4073 21.2486L30.5851 20.1088L30.125 21.2068L29.8426 21.165L29.7276 19.9833L29.5603 21.1336L29.2884 21.0918V21.0918ZM27.814 20.914L27.9499 19.45L29.027 19.5546L29.0061 19.8055L28.2218 19.7323L28.1904 20.0461L28.9224 20.1193L28.891 20.3702L28.159 20.297L28.1277 20.6944L28.9433 20.7676L28.9224 21.0186L27.814 20.914V20.914Z" fill="#309E3A"/>
<path d="M22.9305 20.0044C22.9305 19.8475 22.9618 19.7325 23.0037 19.6279C23.0403 19.5535 23.0899 19.4863 23.1501 19.4292C23.2037 19.3751 23.2677 19.3324 23.3383 19.3037C23.4429 19.2724 23.5474 19.2515 23.652 19.2515C23.8716 19.2515 24.0389 19.3351 24.1748 19.4606C24.2396 19.5405 24.2877 19.6326 24.3164 19.7313C24.3451 19.8301 24.3539 19.9336 24.3422 20.0357C24.3422 20.2658 24.269 20.454 24.133 20.59C24.0632 20.6545 23.9805 20.7037 23.8905 20.7343C23.8004 20.765 23.7049 20.7763 23.6102 20.7677C23.5167 20.7687 23.424 20.7506 23.3377 20.7147C23.2515 20.6787 23.1734 20.6256 23.1082 20.5586C22.9781 20.4046 22.9142 20.2053 22.9305 20.0044V20.0044Z" fill="#309E3A"/>
<path d="M23.2336 20.0041C23.2336 20.161 23.265 20.2865 23.3382 20.3806C23.4114 20.4643 23.5055 20.5165 23.631 20.5165C23.6853 20.5203 23.7397 20.512 23.7904 20.4921C23.841 20.4722 23.8866 20.4412 23.9238 20.4015C23.997 20.3179 24.0284 20.1924 24.0388 20.0146C24.0388 19.8473 24.0179 19.7218 23.9343 19.6382C23.9002 19.596 23.8572 19.5619 23.8084 19.5384C23.7596 19.5149 23.7061 19.5026 23.6519 19.5022C23.5969 19.5005 23.5422 19.5108 23.4916 19.5325C23.441 19.5541 23.3958 19.5866 23.3591 19.6277C23.2755 19.7114 23.2441 19.8368 23.2336 20.0041V20.0041Z" fill="#F7FFFF"/>
<path d="M24.656 20.7571L24.6769 19.2931H25.3043C25.4612 19.2931 25.5658 19.314 25.639 19.3454C25.7122 19.3663 25.7644 19.4186 25.8063 19.4814C25.8481 19.5441 25.869 19.6278 25.869 19.7219C25.8698 19.8225 25.8325 19.9196 25.7644 19.9938C25.6871 20.0662 25.5877 20.1104 25.4821 20.1192L25.639 20.2447C25.6808 20.2865 25.7331 20.3702 25.7958 20.4852L25.9736 20.778H25.618L25.4089 20.4434L25.2625 20.2343C25.2372 20.2055 25.2047 20.1839 25.1684 20.1715C25.1208 20.1576 25.0715 20.1506 25.022 20.1506H24.9593V20.7571H24.656V20.7571Z" fill="#309E3A"/>
<path d="M24.9697 19.9205H25.1789C25.3253 19.9205 25.4194 19.9205 25.4507 19.8996C25.4821 19.8996 25.5135 19.8683 25.5344 19.8473C25.5553 19.8264 25.5658 19.7741 25.5658 19.7428C25.5658 19.68 25.5553 19.6382 25.5239 19.6173C25.503 19.5859 25.4612 19.565 25.4194 19.5545H25.2102L24.9697 19.5441V19.9101V19.9205Z" fill="white"/>
<path d="M26.3293 19.3663L26.8731 19.3976C26.9881 19.3976 27.0822 19.4081 27.1449 19.429C27.2263 19.4585 27.2985 19.509 27.3541 19.5754C27.4143 19.6485 27.4572 19.7343 27.4796 19.8264C27.5109 19.9205 27.5214 20.0355 27.5109 20.1714C27.5108 20.2782 27.4932 20.3842 27.4587 20.4852C27.4168 20.5897 27.3541 20.6734 27.2809 20.7361C27.22 20.7863 27.1485 20.8221 27.0718 20.8407C27.009 20.8616 26.9149 20.8616 26.8103 20.8616L26.2561 20.8302L26.3293 19.3663V19.3663Z" fill="#309E3A"/>
<path d="M26.6116 19.6279L26.5593 20.6004H26.9567C27.009 20.6004 27.0508 20.5795 27.0822 20.5481C27.1135 20.5167 27.1449 20.4749 27.1658 20.4122C27.1867 20.3494 27.2077 20.2553 27.2077 20.1403L27.1972 19.8789C27.1823 19.8237 27.1535 19.7733 27.1135 19.7325C27.0788 19.6975 27.0356 19.6723 26.9881 19.6593C26.909 19.6417 26.8285 19.6312 26.7476 19.6279H26.6116V19.6279Z" fill="white"/>
<path d="M33.5024 21.9806L33.8475 20.5584L34.3076 20.663L34.6423 20.7676C34.7155 20.8094 34.7782 20.8721 34.8096 20.9662C34.8514 21.0499 34.8514 21.144 34.8305 21.259C34.8096 21.3427 34.7782 21.4159 34.7259 21.4682C34.6876 21.5141 34.6396 21.551 34.5854 21.5763C34.5311 21.6016 34.472 21.6147 34.4122 21.6146C34.339 21.6146 34.2344 21.5937 34.0985 21.5623L33.9207 21.51L33.7952 22.0538L33.5024 21.9806V21.9806Z" fill="#309E3A"/>
<path d="M34.0671 20.8718L33.9834 21.2692L34.1403 21.311C34.2448 21.3319 34.3285 21.3528 34.3703 21.3424C34.411 21.3367 34.4489 21.3186 34.4789 21.2905C34.5088 21.2624 34.5294 21.2258 34.5376 21.1855C34.5376 21.1332 34.5376 21.0914 34.5167 21.0496C34.4938 21.0071 34.4568 20.9738 34.4121 20.9555L34.2135 20.9032L34.0775 20.8718H34.0671Z" fill="white"/>
<path d="M34.8621 22.3883L35.3535 21.0079L35.9287 21.2171C36.0855 21.2694 36.1796 21.3217 36.2424 21.3635C36.2947 21.4158 36.3365 21.4681 36.347 21.5517C36.3574 21.6354 36.3679 21.7086 36.347 21.7922C36.3051 21.8968 36.2424 21.97 36.1587 22.0223C36.0751 22.0641 35.9705 22.0746 35.845 22.0536C35.8868 22.1059 35.9287 22.1582 35.9496 22.221L36.0332 22.5033L36.096 22.8275L35.7718 22.7124L35.6672 22.336C35.6482 22.2508 35.6238 22.167 35.5941 22.085C35.5802 22.0525 35.5587 22.0238 35.5313 22.0014C35.5104 21.97 35.4686 21.9491 35.3954 21.9282L35.3431 21.9072L35.1339 22.4928L34.8621 22.3883V22.3883Z" fill="#309E3A"/>
<path d="M35.4267 21.6879L35.6254 21.7611C35.7613 21.8134 35.845 21.8343 35.8868 21.8343C35.9182 21.8343 35.9496 21.8343 35.9809 21.803C36.0123 21.7821 36.0332 21.7507 36.0437 21.7089C36.0646 21.667 36.0646 21.6252 36.0437 21.5834C36.0282 21.5428 35.9985 21.5094 35.96 21.4893L35.7509 21.4161L35.5417 21.3429L35.4163 21.6879H35.4267Z" fill="white"/>
<path d="M36.5768 22.3362C36.6127 22.2138 36.6732 22.1 36.7545 22.0016C36.8074 21.9385 36.8712 21.8854 36.9428 21.8448C37.0076 21.8082 37.0784 21.7834 37.1519 21.7716C37.2565 21.7716 37.361 21.7716 37.4761 21.8134C37.5695 21.8365 37.657 21.8792 37.7328 21.9387C37.8085 21.9982 37.8707 22.0731 37.9153 22.1585C37.9989 22.3258 37.9989 22.5245 37.9362 22.7545C37.8844 22.9522 37.7566 23.1213 37.5806 23.2251C37.4238 23.3192 37.2356 23.3297 37.0369 23.2669C36.9437 23.2432 36.8565 23.2002 36.7808 23.1408C36.7052 23.0814 36.6428 23.0068 36.5977 22.9218C36.5558 22.8304 36.5324 22.7316 36.5288 22.6311C36.5252 22.5306 36.5415 22.4304 36.5768 22.3362V22.3362Z" fill="#309E3A"/>
<path d="M36.8696 22.4196C36.8278 22.5764 36.8173 22.7124 36.8696 22.8169C36.9219 22.9215 36.9951 22.9842 37.1101 23.0261C37.2147 23.0574 37.3193 23.047 37.4239 22.9842C37.5284 22.932 37.5912 22.8169 37.6434 22.6496C37.6957 22.4928 37.6957 22.3673 37.6434 22.2627C37.6228 22.2131 37.5915 22.1686 37.5517 22.1325C37.512 22.0964 37.4647 22.0694 37.4134 22.0536C37.3619 22.0358 37.3073 22.0294 37.2531 22.0348C37.1989 22.0403 37.1466 22.0573 37.0997 22.0849C36.9951 22.1477 36.9219 22.2523 36.8696 22.4196V22.4196Z" fill="white"/>
<path d="M39.4316 24.3752L40.1009 23.0785L40.6551 23.3609C40.7596 23.411 40.855 23.4781 40.9375 23.5595C40.9897 23.6118 41.0211 23.6746 41.0211 23.7582C41.0211 23.8419 41.0211 23.9151 40.9793 23.9883C40.9391 24.0823 40.8642 24.1572 40.7701 24.1974C40.6656 24.2183 40.561 24.2183 40.446 24.1765C40.4878 24.2393 40.5087 24.302 40.5296 24.3543C40.5505 24.417 40.561 24.5111 40.5715 24.6471L40.5924 24.9817L40.2787 24.8248L40.2368 24.4379C40.2319 24.3502 40.2214 24.2629 40.2055 24.1765C40.1983 24.1374 40.1802 24.1011 40.1532 24.0719L40.0277 23.9987L39.9754 23.9674L39.6931 24.5111L39.4316 24.3752V24.3752Z" fill="#309E3A"/>
<path d="M40.0798 23.7583L40.2785 23.8628C40.404 23.9256 40.4877 23.9674 40.519 23.9674C40.5504 23.9674 40.5922 23.9674 40.6236 23.9465C40.655 23.936 40.6759 23.9047 40.6968 23.8628C40.7177 23.821 40.7282 23.7792 40.7177 23.7373C40.7048 23.6957 40.6792 23.6592 40.6445 23.6328C40.5833 23.5952 40.5205 23.5603 40.4563 23.5282L40.2471 23.4236L40.0798 23.7583V23.7583Z" fill="white"/>
<path d="M44.8482 27.052C44.9158 26.9445 45.0048 26.852 45.1096 26.7802C45.1799 26.7351 45.2579 26.7032 45.3396 26.686C45.4155 26.6706 45.4938 26.6706 45.5697 26.686C45.6743 26.707 45.7684 26.7488 45.8625 26.8115C45.9439 26.8622 46.0138 26.9293 46.0678 27.0085C46.1218 27.0878 46.1587 27.1774 46.1762 27.2716C46.2076 27.4494 46.1553 27.6481 46.0298 27.8468C45.9248 28.0196 45.7556 28.1437 45.5592 28.1919C45.4656 28.2121 45.3688 28.2123 45.2751 28.1925C45.1814 28.1726 45.0929 28.1332 45.0155 28.0768C44.9341 28.0261 44.8642 27.959 44.8102 27.8798C44.7561 27.8006 44.7192 27.711 44.7018 27.6167C44.6704 27.4285 44.7227 27.2403 44.8482 27.052Z" fill="#309E3A"/>
<path d="M45.1099 27.2197C45.0053 27.3557 44.974 27.4812 44.9949 27.5962C45.0026 27.6492 45.0215 27.6999 45.0503 27.745C45.0792 27.79 45.1173 27.8284 45.1622 27.8576C45.2668 27.9308 45.3713 27.9517 45.4759 27.9204C45.5805 27.889 45.685 27.8158 45.7792 27.6694C45.8733 27.523 45.9151 27.3975 45.8942 27.2929C45.8837 27.1884 45.821 27.0943 45.7269 27.0211C45.6328 26.9479 45.5177 26.9374 45.4132 26.9688C45.3086 26.9897 45.204 27.0734 45.0995 27.2197H45.1099Z" fill="white"/>
<path d="M31.8503 21.3846L32.0909 20.3598L32.8438 20.5376L32.8124 20.7049L32.2582 20.5794L32.2059 20.8095L32.7183 20.9245L32.6764 21.1023L32.1641 20.9768L32.1013 21.2591L32.6764 21.3951L32.6346 21.5624L31.8503 21.3846V21.3846Z" fill="#309E3A"/>
</g>
<defs>
<clipPath id="clip0_237_1473">
<rect width="66.9248" height="50.1936" fill="white" transform="translate(0.291016)"/>
</clipPath>
</defs>
</svg>
