<svg width="68" height="51" viewBox="0 0 68 51" fill="none" xmlns="http://www.w3.org/2000/svg">
<g clip-path="url(#clip0_237_986)">
<path fill-rule="evenodd" clip-rule="evenodd" d="M0.477539 -4.57764e-05H95.8454V3.86905H0.477539V-4.57764e-05ZM0.477539 7.72768H95.8454V11.5968H0.477539V7.72768ZM0.477539 15.4449H95.8454V19.314H0.477539V15.4449ZM0.477539 23.1622H95.8454V27.0313H0.477539V23.1622ZM0.477539 30.9004H95.8454V34.7486H0.477539V30.9004ZM0.477539 38.6072H95.8454V42.4763H0.477539V38.6072ZM0.477539 46.3245H95.8454V50.1936H0.477539V46.3245Z" fill="#BD3D44"/>
<path fill-rule="evenodd" clip-rule="evenodd" d="M0.477417 3.86912H95.8453V7.72775H0.477417V3.86912ZM0.477417 11.5864H95.8453V15.445H0.477417V11.5864ZM0.477417 19.3037H95.8453V23.1727H0.477417V19.3037ZM0.477417 27.0314H95.8453V30.9005H0.477417V27.0314ZM0.477417 34.7486H95.8453V38.6177H0.477417V34.7486ZM0.477417 42.4659H95.8453V46.335H0.477417V42.4659Z" fill="white"/>
<path fill-rule="evenodd" clip-rule="evenodd" d="M0.477539 -4.57764e-05H38.6247V27.0313H0.477539V-4.57764e-05Z" fill="#192F5D"/>
<path fill-rule="evenodd" clip-rule="evenodd" d="M3.6562 1.15011L4.01174 2.22718H5.12018L4.22088 2.88597L4.56596 3.96304L3.6562 3.2938L2.7569 3.95259L3.09152 2.88597L2.18176 2.22718H3.32158L3.6562 1.15011ZM10.0141 1.15011L10.3591 2.22718H11.4885L10.5787 2.88597L10.9134 3.96304L10.0141 3.2938L9.1043 3.95259L9.44938 2.88597L8.55008 2.22718H9.65852L10.0141 1.15011ZM16.3719 1.15011L16.717 2.22718H17.8359L16.9366 2.88597L17.2817 3.96304L16.3719 3.2938L15.4622 3.95259L15.8072 2.88597L14.8975 2.22718H16.0268L16.3719 1.15011ZM22.7298 1.15011L23.0749 2.22718H24.2042L23.2945 2.88597L23.6395 3.96304L22.7298 3.2938L21.82 3.95259L22.1756 2.88597L21.2553 2.22718H22.3742L22.7298 1.15011ZM29.0876 1.15011L29.4327 2.22718H30.5516L29.6523 2.88597L29.9974 3.96304L29.0876 3.2938L28.1779 3.95259L28.523 2.88597L27.6237 2.22718H28.7425L29.0876 1.15011ZM35.4455 1.15011L35.7906 2.22718H36.9199L35.9997 2.88597L36.3553 3.96304L35.4455 3.2938L34.5357 3.95259L34.8913 2.88597L33.9711 2.22718H35.1004L35.4455 1.15011ZM6.83513 3.86893L7.18021 4.93555H8.32002L7.41026 5.58388L7.74489 6.66095L6.85604 6.00216L5.94628 6.66095L6.27045 5.58388L5.39206 4.93555H6.51096L6.83513 3.86893ZM13.193 3.86893L13.5485 4.93555H14.6674L13.7472 5.58388L14.1027 6.66095L13.193 6.00216L12.2832 6.66095L12.6283 5.58388L11.7185 4.93555H12.8479L13.193 3.86893ZM19.5508 3.86893L19.8959 4.93555H21.0253L20.1155 5.58388L20.4606 6.66095L19.5508 6.00216L18.6411 6.66095L18.9862 5.58388L18.0869 4.93555H19.1953L19.5508 3.86893ZM25.9087 3.86893L26.2642 4.93555H27.3831L26.4629 5.58388L26.8185 6.66095L25.9087 6.00216L25.0094 6.66095L25.344 5.58388L24.4343 4.93555H25.5741L25.9087 3.86893ZM32.2666 3.86893L32.6116 4.93555H33.741L32.8312 5.58388L33.1763 6.66095L32.2666 6.00216L31.3568 6.66095L31.7019 5.58388L30.8026 4.93555H31.9215L32.2666 3.86893ZM3.6562 6.54592L4.01174 7.63345H5.12018L4.22088 8.29224L4.56596 9.35886L3.6562 8.70007L2.7569 9.35886L3.09152 8.29224L2.18176 7.63345H3.32158L3.6562 6.54592ZM10.0141 6.54592L10.3591 7.63345H11.4885L10.5787 8.29224L10.9134 9.35886L10.0141 8.70007L9.1043 9.35886L9.44938 8.28179L8.55008 7.623H9.65852L10.0141 6.54592ZM16.3719 6.54592L16.717 7.623H17.8359L16.9366 8.28179L17.2817 9.3484L16.3719 8.68961L15.4622 9.3484L15.8072 8.27133L14.8975 7.61254H16.0268L16.3719 6.54592ZM22.7298 6.54592L23.0749 7.623H24.2042L23.2945 8.28179L23.6395 9.3484L22.7298 8.68961L21.82 9.3484L22.1756 8.27133L21.2553 7.61254H22.3742L22.7298 6.54592ZM29.0876 6.54592L29.4327 7.623H30.5516L29.6523 8.28179L29.9974 9.3484L29.0876 8.68961L28.1779 9.3484L28.523 8.27133L27.6237 7.61254H28.7425L29.0876 6.54592ZM35.4455 6.54592L35.7906 7.623H36.9199L35.9997 8.28179L36.3553 9.3484L35.4455 8.68961L34.5357 9.3484L34.8913 8.27133L33.9711 7.61254H35.1004L35.4455 6.54592ZM6.83513 9.26475L7.18021 10.3314H8.32002L7.41026 10.9902L7.75535 12.0672L6.84559 11.398L5.93583 12.0568L6.28091 10.9902L5.38161 10.3314H6.5005L6.83513 9.26475ZM13.193 9.26475L13.5485 10.3314H14.6674L13.7472 10.9902L14.1027 12.0672L13.193 11.398L12.2832 12.0568L12.6283 10.9902L11.7185 10.3314H12.8479L13.193 9.26475ZM19.5508 9.26475L19.8959 10.3314H21.0253L20.1155 10.9902L20.4606 12.0672L19.5508 11.398L18.6411 12.0568L18.9862 10.9902L18.0869 10.3314H19.1953L19.5508 9.26475ZM25.9087 9.26475L26.2642 10.3314H27.3831L26.4734 10.9902L26.8185 12.0672L25.9087 11.398L25.0094 12.0568L25.344 10.9902L24.4343 10.3314H25.5741L25.9087 9.26475ZM32.2666 9.26475L32.6116 10.3314H33.741L32.8312 10.9902L33.1763 12.0672L32.2666 11.398L31.3568 12.0568L31.7019 10.9902L30.8026 10.3314H31.9215L32.2666 9.26475ZM3.6562 11.9731L4.01174 13.0397H5.12018L4.22088 13.6985L4.56596 14.7756L3.6562 14.1063L2.7569 14.7651L3.09152 13.6985L2.18176 13.0397H3.32158L3.6562 11.9731ZM10.0141 11.9731L10.3591 13.0397H11.4885L10.5787 13.6985L10.9134 14.7651L10.0141 14.1063L9.1043 14.7651L9.44938 13.6985L8.55008 13.0397H9.65852L10.0141 11.9731ZM16.3719 11.9731L16.717 13.0397H17.8359L16.9366 13.6985L17.2817 14.7756L16.3719 14.1063L15.4622 14.7651L15.8072 13.6985L14.8975 13.0397H16.0268L16.3719 11.9731ZM22.7298 11.9731L23.0749 13.0397H24.2042L23.2945 13.6985L23.6395 14.7756L22.7298 14.1063L21.82 14.7651L22.1756 13.6985L21.2553 13.0397H22.3742L22.7298 11.9731ZM29.0876 11.9731L29.4327 13.0397H30.5516L29.6523 13.6985L29.9974 14.7756L29.0876 14.1063L28.1779 14.7651L28.523 13.6985L27.6237 13.0397H28.7425L29.0876 11.9731ZM35.4455 11.9731L35.7906 13.0397H36.9199L35.9997 13.6985L36.3553 14.7756L35.4455 14.1063L34.5357 14.7651L34.8808 13.6985L33.9606 13.0397H35.09L35.4455 11.9731ZM6.83513 14.671L7.18021 15.7481H8.32002L7.41026 16.3964L7.75535 17.4735L6.84559 16.8042L5.93583 17.4735L6.28091 16.3964L5.38161 15.7376H6.5005L6.83513 14.671ZM13.193 14.671L13.5485 15.7481H14.6674L13.7472 16.3964L14.1027 17.4735L13.193 16.8042L12.2832 17.4735L12.6283 16.3964L11.7185 15.7376H12.8479L13.193 14.671ZM19.5508 14.671L19.8959 15.7481H21.0253L20.1155 16.3964L20.4606 17.4735L19.5508 16.8042L18.6411 17.4735L18.9862 16.3964L18.0869 15.7376H19.1953L19.5508 14.671ZM25.9087 14.671L26.2642 15.7481H27.3831L26.4734 16.3964L26.8185 17.4735L25.9087 16.8042L25.0094 17.4735L25.344 16.3964L24.4343 15.7376H25.5741L25.9087 14.671ZM32.2666 14.671L32.6116 15.7481H33.741L32.8312 16.3964L33.1763 17.4735L32.2666 16.8042L31.3568 17.4735L31.7019 16.3964L30.8026 15.7376H31.9215L32.2666 14.671ZM3.6562 17.3689L4.01174 18.446H5.12018L4.22088 19.1048L4.56596 20.1609L3.6562 19.5126L2.7569 20.1609L3.09152 19.0943L2.18176 18.4355H3.32158L3.6562 17.3689ZM10.0141 17.3689L10.3591 18.446H11.4885L10.5787 19.1048L10.9238 20.1609L10.0141 19.5126L9.1043 20.1609L9.45984 19.0943L8.55008 18.4355H9.65852L10.0141 17.3689ZM16.3719 17.3689L16.717 18.446H17.8359L16.9366 19.1048L17.2817 20.1609L16.3719 19.5126L15.4622 20.1609L15.8072 19.0943L14.8975 18.4355H16.0268L16.3719 17.3689ZM22.7298 17.3689L23.0749 18.446H24.2042L23.2945 19.1048L23.6395 20.1609L22.7298 19.5126L21.82 20.1609L22.1756 19.0943L21.2553 18.4355H22.3742L22.7298 17.3689ZM29.0876 17.3689L29.4327 18.446H30.5516L29.6523 19.1048L29.9974 20.1609L29.0876 19.5126L28.1779 20.1609L28.523 19.0943L27.6237 18.4355H28.7425L29.0876 17.3689ZM35.4455 17.3689L35.7906 18.446H36.9199L35.9997 19.1048L36.3553 20.1609L35.4455 19.5126L34.5357 20.1609L34.8913 19.0943L33.9711 18.4355H35.1004L35.4455 17.3689ZM6.83513 20.0773L7.18021 21.1439H8.32002L7.41026 21.8027L7.75535 22.8798L6.84559 22.2105L5.93583 22.8693L6.28091 21.8027L5.38161 21.1439H6.5005L6.83513 20.0773ZM13.193 20.0773L13.5485 21.1439H14.6674L13.7472 21.8027L14.1027 22.8798L13.193 22.2105L12.2832 22.8693L12.6283 21.8027L11.7185 21.1439H12.8479L13.193 20.0773ZM19.5508 20.0773L19.8959 21.1439H21.0253L20.1155 21.8027L20.4606 22.8798L19.5508 22.2105L18.6411 22.8693L18.9862 21.8027L18.0869 21.1439H19.1953L19.5508 20.0773ZM25.9087 20.0773L26.2642 21.1439H27.3831L26.4734 21.8027L26.8185 22.8798L25.9087 22.2105L25.0094 22.8693L25.344 21.8027L24.4343 21.1439H25.5741L25.9087 20.0773ZM32.2666 20.0773L32.6116 21.1439H33.741L32.8312 21.8027L33.1763 22.8798L32.2666 22.2105L31.3568 22.8693L31.7019 21.8027L30.8026 21.1439H31.9215L32.2666 20.0773ZM3.6562 22.7857L4.01174 23.8523H5.12018L4.22088 24.5111L4.56596 25.5777L3.6562 24.9189L2.7569 25.5777L3.09152 24.5006L2.18176 23.8418H3.32158L3.6562 22.7857ZM10.0141 22.7857L10.3591 23.8523H11.4885L10.5787 24.5111L10.9238 25.5777L10.0141 24.9189L9.1043 25.5777L9.45984 24.5006L8.55008 23.8418H9.65852L10.0141 22.7857ZM16.3719 22.7857L16.717 23.8523H17.8359L16.9575 24.5111L17.3026 25.5777L16.3928 24.9189L15.4831 25.5777L15.8282 24.5006L14.9184 23.8418H16.0477L16.3719 22.7857ZM22.7298 22.7857L23.0749 23.8523H24.2042L23.2945 24.5111L23.6395 25.5777L22.7298 24.9189L21.82 25.5777L22.1756 24.5006L21.2553 23.8418H22.3742L22.7298 22.7857ZM29.0876 22.7857L29.4327 23.8523H30.5516L29.6523 24.5111L29.9974 25.5777L29.0876 24.9189L28.1779 25.5777L28.523 24.5006L27.6237 23.8418H28.7425L29.0876 22.7857ZM35.4455 22.7857L35.7906 23.8523H36.9199L35.9997 24.5111L36.3553 25.5777L35.4455 24.9189L34.5357 25.5777L34.8913 24.5006L33.9711 23.8418H35.1004L35.4455 22.7857Z" fill="white"/>
</g>
<defs>
<clipPath id="clip0_237_986">
<rect width="66.9248" height="50.1936" fill="white" transform="translate(0.477539)"/>
</clipPath>
</defs>
</svg>
